<?xml version="1.0" encoding="UTF-8" standalone="no"?>
<!-- Created with Inkscape (http://www.inkscape.org/) -->

<svg
   xmlns:dc="http://purl.org/dc/elements/1.1/"
   xmlns:cc="http://creativecommons.org/ns#"
   xmlns:rdf="http://www.w3.org/1999/02/22-rdf-syntax-ns#"
   xmlns:svg="http://www.w3.org/2000/svg"
   xmlns="http://www.w3.org/2000/svg"
   xmlns:sodipodi="http://sodipodi.sourceforge.net/DTD/sodipodi-0.dtd"
   xmlns:inkscape="http://www.inkscape.org/namespaces/inkscape"
   width="329.56473"
   height="157.18069"
   id="svg2"
   version="1.1"
   inkscape:version="0.48.4 r9939"
   sodipodi:docname="logo.svg">
  <defs
     id="defs4" />
  <sodipodi:namedview
     id="base"
     pagecolor="#ffffff"
     bordercolor="#666666"
     borderopacity="1.0"
     inkscape:pageopacity="0.0"
     inkscape:pageshadow="2"
     inkscape:zoom="1.4"
     inkscape:cx="173.80106"
     inkscape:cy="-25.44028"
     inkscape:document-units="px"
     inkscape:current-layer="layer1"
     showgrid="false"
     inkscape:window-width="1600"
     inkscape:window-height="848"
     inkscape:window-x="-1"
     inkscape:window-y="-1"
     inkscape:window-maximized="1"
     fit-margin-top="0"
     fit-margin-left="0"
     fit-margin-right="0"
     fit-margin-bottom="0" />
  <metadata
     id="metadata7">
    <rdf:RDF>
      <cc:Work
         rdf:about="">
        <dc:format>image/svg+xml</dc:format>
        <dc:type
           rdf:resource="http://purl.org/dc/dcmitype/StillImage" />
        <dc:title />
      </cc:Work>
    </rdf:RDF>
  </metadata>
  <g
     inkscape:label="Layer 1"
     inkscape:groupmode="layer"
     id="layer1"
     transform="translate(-173.53125,-230.20287)">
    <path
       style="fill:#333333;fill-opacity:1;stroke:none"
       d="m 338.50223,230.20287 c -88.47942,0 -160.47231,69.69668 -164.59375,157.15625 0,0 27.03997,-15.08281 41.86273,-15 14.37536,0.0803 26.05991,15.19793 40.43415,15 15.29808,-0.21065 27.27864,-17.33157 42.577,-17.14286 14.41936,0.17787 25.30727,17.61861 39.71987,17.14286 15.13553,-0.49961 25.29075,-20.60869 40.43416,-20.71429 15.56871,-0.10856 26.2972,21.04799 41.86272,20.71429 14.83131,-0.31796 24.17426,-21.11163 39.00558,-21.42857 16.09781,-0.344 28.86086,14.28571 43.29129,21.42857 -4.12106,-87.45991 -76.11407,-157.15625 -164.59375,-157.15625 z"
       id="path2985"
       inkscape:connector-curvature="0"
       sodipodi:nodetypes="scaaaaaaacs" />
    <path
       style="fill:#37abc8;fill-opacity:1;stroke:none"
       d="m 173.9375,383.25 c -0.0991,1.37627 -0.34096,2.70836 -0.40625,4.09375 0,0 0.0618,-0.0309 0.0625,-0.0312 0.0649,-1.36653 0.2459,-2.70487 0.34375,-4.0625 z"
       id="path3253"
       inkscape:connector-curvature="0" />
    <path
       style="fill:#37abc8;fill-opacity:1;stroke:none"
       d="m 175.78125,367.71875 c -0.19611,1.16767 -0.51598,2.29291 -0.6875,3.46875 -0.13798,0.94586 -0.15934,1.92401 -0.28125,2.875 0.27266,-2.12763 0.61608,-4.24227 0.96875,-6.34375 z"
       id="path3251"
       inkscape:connector-curvature="0" />
    <path
       style="fill:#37abc8;fill-opacity:1;stroke:none"
       d="m 179.5,350.96875 c -0.42247,1.52152 -0.964,2.99239 -1.34375,4.53125 -0.38406,1.55635 -0.59784,3.17662 -0.9375,4.75 0.67599,-3.13218 1.43065,-6.218 2.28125,-9.28125 z"
       id="path3249"
       inkscape:connector-curvature="0" />
    <path
       style="fill:#37abc8;fill-opacity:1;stroke:none"
       d="m 184.28125,336.375 c -0.51432,1.34794 -1.1452,2.63536 -1.625,4 -0.31206,0.88754 -0.51523,1.82434 -0.8125,2.71875 0.75274,-2.26457 1.59068,-4.49896 2.4375,-6.71875 z"
       id="path3247"
       inkscape:connector-curvature="0" />
    <path
       style="fill:#37abc8;fill-opacity:1;stroke:none"
       d="m 189.375,324.28125 c -0.26298,0.55227 -0.58674,1.06937 -0.84375,1.625 -0.64503,1.39448 -1.14301,2.86603 -1.75,4.28125 0.84889,-1.97952 1.67068,-3.96754 2.59375,-5.90625 z"
       id="path3245"
       inkscape:connector-curvature="0" />
    <path
       style="fill:#37abc8;fill-opacity:1;stroke:none"
       d="m 197.875,308.8125 c -0.69551,1.1304 -1.48741,2.1955 -2.15625,3.34375 -0.30163,0.51784 -0.54761,1.07235 -0.84375,1.59375 0.95214,-1.67648 1.99157,-3.29831 3,-4.9375 z"
       id="path3243"
       inkscape:connector-curvature="0" />
    <path
       style="fill:#37abc8;fill-opacity:1;stroke:none"
       d="m 200,375.625 0,-0.0625 c -3.26724,1.10037 -6.53681,2.37376 -9.625,3.6875 3.09323,-1.31786 6.35219,-2.52429 9.625,-3.625 z"
       id="path3241"
       inkscape:connector-curvature="0" />
    <path
       style="fill:#37abc8;fill-opacity:1;stroke:none"
       d="m 207.6875,373.375 c -1.66784,0.3685 -3.35014,0.75192 -5.09375,1.28125 -0.62147,0.18866 -1.21834,0.48278 -1.84375,0.6875 2.35733,-0.7735 4.69432,-1.46425 6.9375,-1.96875 z"
       id="path3239"
       inkscape:connector-curvature="0" />
    <path
       style="fill:#37abc8;fill-opacity:1;stroke:none"
       d="m 236.875,265.0625 c -0.36407,0.28444 -0.76339,0.52507 -1.125,0.8125 -0.90943,0.72287 -1.73134,1.53969 -2.625,2.28125 1.24702,-1.03518 2.47244,-2.09539 3.75,-3.09375 z"
       id="path3237"
       inkscape:connector-curvature="0" />
    <path
       style="fill:#37abc8;fill-opacity:1;stroke:none"
       d="M 360.21875,231.84375 C 358.30598,231.58673 356.43315,231.19079 354.5,231 c -0.89452,-0.0883 -1.82005,-0.0511 -2.71875,-0.125 2.84513,0.23253 5.63755,0.59357 8.4375,0.96875 z"
       id="path3235"
       inkscape:connector-curvature="0" />
    <path
       style="fill:#37abc8;fill-opacity:1;stroke:none"
       d="m 375.28125,234.59375 c -1.62766,-0.37588 -3.19792,-0.89152 -4.84375,-1.21875 -0.90091,-0.17912 -1.84382,-0.24189 -2.75,-0.40625 2.5566,0.46322 5.07881,1.04492 7.59375,1.625 z"
       id="path3233"
       inkscape:connector-curvature="0" />
    <path
       style="fill:#37abc8;fill-opacity:1;stroke:none"
       d="m 215.96875,372.40625 c -0.20034,-0.007 -0.39237,-0.0614 -0.59375,-0.0625 -1.85284,-0.0104 -3.87329,0.2205 -6.03125,0.625 -0.34085,0.0639 -0.71625,0.20872 -1.0625,0.28125 2.57241,-0.54894 5.01577,-0.88713 7.1875,-0.875 0.16837,9.4e-4 0.33238,0.0262 0.5,0.0312 z"
       id="path3231"
       inkscape:connector-curvature="0" />
    <path
       style="fill:#37abc8;fill-opacity:1;stroke:none"
       d="m 221.5,373.3125 c -0.28343,-0.0789 -0.55864,-0.21165 -0.84375,-0.28125 -0.14299,-0.0349 -0.29407,-0.0301 -0.4375,-0.0625 0.4306,0.0965 0.85458,0.22549 1.28125,0.34375 z"
       id="path3229"
       inkscape:connector-curvature="0" />
    <path
       style="fill:#37abc8;fill-opacity:1;stroke:none"
       d="m 227.875,375.875 c -0.71414,-0.34623 -1.40387,-0.81737 -2.125,-1.125 -0.60505,-0.25811 -1.23269,-0.40024 -1.84375,-0.625 1.34079,0.49251 2.65352,1.11306 3.96875,1.75 z"
       id="path3227"
       inkscape:connector-curvature="0" />
    <path
       style="fill:#37abc8;fill-opacity:1;stroke:none"
       d="m 250.0625,386.625 c 0.16761,0.0419 0.3318,0.11773 0.5,0.15625 0.14415,0.033 0.29291,0.0321 0.4375,0.0625 -0.3131,-0.0665 -0.62643,-0.14057 -0.9375,-0.21875 z"
       id="path3225"
       inkscape:connector-curvature="0" />
    <path
       style="fill:#37abc8;fill-opacity:1;stroke:none"
       d="m 244.15625,384.40625 c 0.44221,0.20121 0.86751,0.5023 1.3125,0.6875 0.72614,0.30222 1.48381,0.46701 2.21875,0.71875 -1.18957,-0.40864 -2.36306,-0.87419 -3.53125,-1.40625 z"
       id="path3223"
       inkscape:connector-curvature="0" />
    <path
       style="fill:#37abc8;fill-opacity:1;stroke:none"
       d="m 230,377 c 1.86694,0.98844 3.74227,1.89884 5.59375,2.96875 0.60557,0.34994 1.23764,0.59121 1.84375,0.9375 -2.46945,-1.40872 -4.95007,-2.78166 -7.4375,-4.09375 L 230,377 z"
       id="path3221"
       inkscape:connector-curvature="0" />
    <path
       style="fill:#37abc8;fill-opacity:1;stroke:none"
       d="m 261.40625,386.53125 c -0.4586,0.12285 -0.94251,0.12199 -1.40625,0.21875 l 0,0.1875 c 0.47636,-0.097 0.93535,-0.28154 1.40625,-0.40625 z"
       id="path3217"
       inkscape:connector-curvature="0" />
    <path
       style="fill:#37abc8;fill-opacity:1;stroke:none"
       d="m 282.46875,375.40625 c -0.0696,0.0402 -0.14915,0.0533 -0.21875,0.0937 -1.71789,0.99767 -3.42008,2.05426 -5.125,3.125 -3.40985,2.14149 -6.83024,4.30574 -10.34375,5.9375 -1.75675,0.81588 -3.55345,1.48081 -5.375,1.96875 7.37551,-1.95324 14.10966,-7.10023 21.0625,-11.125 z"
       id="path3215"
       inkscape:connector-curvature="0" />
    <path
       style="fill:#37abc8;fill-opacity:1;stroke:none"
       d="m 289.28125,372.125 c -0.60949,0.2365 -1.24089,0.38484 -1.84375,0.65625 -1.6856,0.75888 -3.31943,1.67329 -4.96875,2.625 2.23056,-1.2912 4.50809,-2.37995 6.8125,-3.28125 z"
       id="path3213"
       inkscape:connector-curvature="0" />
    <path
       style="fill:#37abc8;fill-opacity:1;stroke:none"
       d="m 290,371.875 c 0.39594,-0.1432 0.78825,-0.31164 1.1875,-0.4375 -0.39464,0.12574 -0.7961,0.20123 -1.1875,0.34375 l 0,0.0937 z"
       id="path3211"
       inkscape:connector-curvature="0" />
    <path
       style="fill:#37abc8;fill-opacity:1;stroke:none"
       d="m 320,380.1875 0,-0.0312 c -0.57149,-0.38616 -1.14762,-0.73463 -1.71875,-1.125 0.5718,0.39073 1.14629,0.77018 1.71875,1.15625 z"
       id="path3209"
       inkscape:connector-curvature="0" />
    <path
       style="fill:#37abc8;fill-opacity:1;stroke:none"
       d="m 347.75,384.34375 c -1.36616,0.75126 -2.72291,1.48067 -4.15625,1.96875 -1.75578,0.59788 -3.57681,0.9688 -5.46875,1.03125 -1.73685,0.0573 -3.41568,-0.16102 -5.0625,-0.5625 1.66165,0.41143 3.36958,0.6517 5.125,0.59375 3.41574,-0.11275 6.53888,-1.37782 9.5625,-3.03125 z"
       id="path3205"
       inkscape:connector-curvature="0" />
    <path
       style="fill:#37abc8;fill-opacity:1;stroke:none"
       d="m 350,383 c -0.36159,0.23275 -0.69743,0.5308 -1.0625,0.75 0.34983,-0.20913 0.71591,-0.34071 1.0625,-0.5625 L 350,383 z"
       id="path3203"
       inkscape:connector-curvature="0" />
    <path
       style="fill:#37abc8;fill-opacity:1;stroke:none"
       d="m 354.75,379.65625 c -0.66038,0.51275 -1.33315,0.98077 -2,1.46875 0.26467,-0.19399 0.54897,-0.33289 0.8125,-0.53125 0.39845,-0.29991 0.79116,-0.62957 1.1875,-0.9375 z"
       id="path3201"
       inkscape:connector-curvature="0" />
    <path
       style="fill:#37abc8;fill-opacity:1;stroke:none"
       d="m 380,366.84375 0,-0.125 c -0.39484,-0.029 -0.78817,-0.0575 -1.1875,-0.0625 0.40958,0.003 0.78441,0.15567 1.1875,0.1875 z"
       id="path3199"
       inkscape:connector-curvature="0" />
    <path
       style="fill:#37abc8;fill-opacity:1;stroke:none"
       d="m 385,367.875 c -0.27763,-0.0993 -0.53223,-0.28731 -0.8125,-0.375 -0.0295,-0.009 -0.0642,0.009 -0.0937,0 0.31163,0.0946 0.59789,0.26602 0.90625,0.375 z"
       id="path3195"
       inkscape:connector-curvature="0" />
    <path
       style="fill:#37abc8;fill-opacity:1;stroke:none"
       d="m 395.21875,373.75 c -0.22855,-0.17228 -0.45828,-0.36186 -0.6875,-0.53125 -1.66243,-1.22848 -3.34332,-2.36228 -5.0625,-3.34375 -0.26566,-0.15166 -0.54496,-0.23154 -0.8125,-0.375 2.23403,1.19117 4.4239,2.64277 6.5625,4.25 z"
       id="path3193"
       inkscape:connector-curvature="0" />
    <path
       style="fill:#37abc8;fill-opacity:1;stroke:none"
       d="m 421.40625,253 c -2.24639,-1.32219 -4.43692,-2.75182 -6.75,-3.96875 -0.89312,-0.46988 -1.84727,-0.8274 -2.75,-1.28125 3.24483,1.6287 6.37996,3.41789 9.5,5.25 z"
       id="path3191"
       inkscape:connector-curvature="0" />
    <path
       style="fill:#37abc8;fill-opacity:1;stroke:none"
       d="m 436.15625,262.78125 c -2.69621,-2.00523 -5.33673,-4.06572 -8.15625,-5.90625 -0.40107,-0.26181 -0.84652,-0.46035 -1.25,-0.71875 3.23608,2.0679 6.33134,4.34236 9.40625,6.625 z"
       id="path3189"
       inkscape:connector-curvature="0" />
    <path
       style="fill:#37abc8;fill-opacity:1;stroke:none"
       d="m 412.125,385.40625 c 0.885,0.39133 1.74503,0.88172 2.65625,1.15625 0.0409,0.0123 0.084,0.0192 0.125,0.0312 -0.95213,-0.28464 -1.85789,-0.77628 -2.78125,-1.1875 z"
       id="path3187"
       inkscape:connector-curvature="0" />
    <path
       style="fill:#37abc8;fill-opacity:1;stroke:none"
       d="m 410,384.5 0,-0.0312 c -0.0418,-0.0226 -0.0833,-0.0397 -0.125,-0.0625 0.0442,0.0243 0.0807,0.0697 0.125,0.0937 z"
       id="path3185"
       inkscape:connector-curvature="0" />
    <path
       style="fill:#37abc8;fill-opacity:1;stroke:none"
       d="m 459.40625,365.9375 c -1.85391,0.0396 -3.60866,0.36922 -5.3125,0.96875 -1.70384,0.59953 -3.34085,1.46928 -4.9375,2.46875 -1.59665,0.99947 -3.15517,2.13556 -4.6875,3.375 -1.4985,1.21208 -2.9912,2.49097 -4.46875,3.78125 l 0,0.125 c 6.01643,-5.25751 12.03381,-10.51759 19.40625,-10.71875 z"
       id="path3181"
       inkscape:connector-curvature="0" />
    <path
       style="fill:#37abc8;fill-opacity:1;stroke:none"
       d="m 472.4375,299.625 c -0.10022,-0.14106 -0.1806,-0.29677 -0.28125,-0.4375 -0.0863,-0.12066 -0.19464,-0.22333 -0.28125,-0.34375 0.18731,0.26016 0.37668,0.51996 0.5625,0.78125 z"
       id="path3179"
       inkscape:connector-curvature="0" />
    <path
       style="fill:#37abc8;fill-opacity:1;stroke:none"
       d="m 467.1875,367 c -0.63022,-0.16764 -1.23574,-0.43548 -1.875,-0.5625 -0.11168,-0.0222 -0.23179,-0.0104 -0.34375,-0.0312 0.75122,0.13781 1.48001,0.39936 2.21875,0.59375 z"
       id="path3177"
       inkscape:connector-curvature="0" />
    <path
       style="fill:#37abc8;fill-opacity:1;stroke:none"
       d="m 492.53125,381.1875 c 1.60753,1.09091 3.21613,2.18683 4.84375,3.1875 0.54838,0.33715 1.10442,0.61585 1.65625,0.9375 -2.1871,-1.27811 -4.35281,-2.6653 -6.5,-4.125 z"
       id="path3175"
       inkscape:connector-curvature="0" />
    <path
       style="fill:#37abc8;fill-opacity:1;stroke:none"
       d="m 482.90625,374.6875 c 3.08206,2.03318 6.14983,4.15781 9.21875,6.25 0.13211,0.0901 0.27406,0.16029 0.40625,0.25 -3.20411,-2.1782 -6.40837,-4.37719 -9.625,-6.5 z"
       id="path3173"
       inkscape:connector-curvature="0" />
    <path
       style="fill:#37abc8;fill-opacity:1;stroke:none"
       d="m 470,367.84375 c 0.17482,0.0629 0.35703,0.0906 0.53125,0.15625 -0.18083,-0.0677 -0.34977,-0.18517 -0.53125,-0.25 l 0,0.0937 z"
       id="path3171"
       inkscape:connector-curvature="0" />
    <path
       style="fill:#37abc8;fill-opacity:1;stroke:none"
       d="m 502.65625,387.3125 c -0.89534,-0.44465 -1.77251,-0.97204 -2.65625,-1.46875 l 0,0.0625 c 0.881,0.49636 1.76394,0.9621 2.65625,1.40625 z"
       id="path3167"
       inkscape:connector-curvature="0" />
    <path
       style="fill:#37abc8;fill-opacity:1;stroke:none"
       d="m 501.25,372.125 c 0.70261,5.01522 1.22613,10.0698 1.46875,15.21875 0.0208,0.0103 0.0417,0.021 0.0625,0.0312 -0.24329,-5.16335 -0.82037,-10.2239 -1.53125,-15.25 z"
       id="path3165"
       inkscape:connector-curvature="0" />
    <path
       style="fill:#0077aa;fill-opacity:1;stroke:none"
       d="m 338.1875,230.21875 c -0.60833,0 -1.20563,0.0552 -1.8125,0.0625 -3.87373,0.0408 -7.69546,0.25892 -11.5,0.5625 -1.57385,0.13001 -3.15847,0.23613 -4.71875,0.40625 -0.0513,0.006 -0.10497,-0.006 -0.15625,0 l 0,148.90625 c 1.26864,0.85724 2.53205,1.68345 3.8125,2.46875 0.62076,0.37876 1.24864,0.71331 1.875,1.0625 0.877,0.49211 1.76466,0.95954 2.65625,1.375 0.97461,0.45029 1.97096,0.7628 2.96875,1.09375 0.58651,0.19687 1.15377,0.47737 1.75,0.625 1.64682,0.40148 3.32565,0.61983 5.0625,0.5625 1.89194,-0.0625 3.71297,-0.43337 5.46875,-1.03125 1.43334,-0.48808 2.79009,-1.21749 4.15625,-1.96875 0.39074,-0.21367 0.80118,-0.3628 1.1875,-0.59375 0.36507,-0.2192 0.70091,-0.51725 1.0625,-0.75 l 0,-152.21875 c -3.17084,-0.22669 -6.34403,-0.42398 -9.5625,-0.46875 -0.75424,-0.0114 -1.49402,-0.0937 -2.25,-0.0937 z M 380,235.75 l 0,130.96875 c 1.25653,0.0924 2.48703,0.34903 3.6875,0.6875 0.13334,0.0376 0.27353,0.0534 0.40625,0.0937 0.0295,0.009 0.0642,-0.009 0.0937,0 0.28027,0.0877 0.53487,0.27574 0.8125,0.375 1.24702,0.44071 2.45486,0.98443 3.65625,1.625 0.26754,0.14346 0.54684,0.22334 0.8125,0.375 1.71918,0.98147 3.40007,2.11527 5.0625,3.34375 0.22922,0.16939 0.45895,0.35897 0.6875,0.53125 2.56505,1.92772 5.10022,3.97713 7.65625,5.9375 2.29224,1.75805 4.60831,3.40518 7,4.71875 0.0417,0.0228 0.0832,0.0399 0.125,0.0625 l 0,-137.625 c -1.25278,-0.60976 -2.51091,-1.2026 -3.78125,-1.78125 -2.92252,-1.32981 -5.86445,-2.62004 -8.875,-3.78125 -1.94436,-0.75036 -3.92695,-1.4159 -5.90625,-2.09375 -2.90708,-0.99494 -5.83374,-1.94737 -8.8125,-2.78125 -0.86603,-0.24272 -1.75323,-0.4274 -2.625,-0.65625 z m -90,1.65625 c -5.24018,1.60236 -10.36938,3.43938 -15.375,5.53125 -4.96248,2.07384 -9.80107,4.40208 -14.5,6.9375 -0.0408,0.022 -0.0842,0.0404 -0.125,0.0625 l 0,136.8125 c 0.46374,-0.0968 0.94765,-0.0959 1.40625,-0.21875 1.82155,-0.48794 3.61825,-1.15287 5.375,-1.96875 3.51351,-1.63176 6.9339,-3.79601 10.34375,-5.9375 1.70492,-1.07074 3.40711,-2.12733 5.125,-3.125 0.0696,-0.0404 0.14911,-0.0536 0.21875,-0.0937 1.64932,-0.95171 3.28315,-1.86612 4.96875,-2.625 0.60286,-0.27141 1.23426,-0.41975 1.84375,-0.65625 0.2428,-0.095 0.47478,-0.25491 0.71875,-0.34375 l 0,-134.375 z m 150,28.125 0,111 c 1.47755,-1.29028 2.97025,-2.56917 4.46875,-3.78125 1.53233,-1.23944 3.09085,-2.37553 4.6875,-3.375 1.59665,-0.99947 3.23366,-1.86922 4.9375,-2.46875 1.70384,-0.59953 3.45859,-0.92913 5.3125,-0.96875 0.0315,-8.6e-4 0.0621,6.8e-4 0.0937,0 1.87141,-0.04 3.68123,0.14083 5.46875,0.46875 0.11196,0.0209 0.23207,0.009 0.34375,0.0312 0.63926,0.12702 1.24478,0.39486 1.875,0.5625 0.93622,0.24635 1.8938,0.42183 2.8125,0.75 l 0,-71.28125 c -2.379,-3.18296 -4.77758,-6.34452 -7.375,-9.34375 -2.99742,-3.4611 -6.16591,-6.76921 -9.4375,-9.96875 -0.80073,-0.78237 -1.62104,-1.54648 -2.4375,-2.3125 -3.31372,-3.11174 -6.71894,-6.13725 -10.28125,-8.96875 -0.15171,-0.12059 -0.3166,-0.22368 -0.46875,-0.34375 z m -210,5.375 c -0.75761,0.66157 -1.53595,1.29361 -2.28125,1.96875 -1.84981,1.67651 -3.69671,3.36685 -5.46875,5.125 -1.55153,1.53889 -3.04153,3.15074 -4.53125,4.75 -2.69295,2.8923 -5.26801,5.88827 -7.75,8.96875 -1.37562,1.70679 -2.75442,3.39441 -4.0625,5.15625 -1.44043,1.9403 -2.80035,3.93315 -4.15625,5.9375 -0.60324,0.89168 -1.16384,1.81474 -1.75,2.71875 l 0,70.03125 c 0.25568,-0.0861 0.49463,-0.13496 0.75,-0.21875 0.62541,-0.20472 1.22228,-0.49884 1.84375,-0.6875 1.74361,-0.52933 3.42591,-0.91275 5.09375,-1.28125 0.19533,-0.0439 0.39995,-0.0836 0.59375,-0.125 0.34625,-0.0725 0.72165,-0.21736 1.0625,-0.28125 2.15796,-0.4045 4.17841,-0.63535 6.03125,-0.625 0.20138,10e-4 0.39341,0.0556 0.59375,0.0625 1.43941,0.0435 2.8594,0.25077 4.25,0.5625 0.14343,0.0324 0.29451,0.0276 0.4375,0.0625 0.28511,0.0696 0.56032,0.20231 0.84375,0.28125 0.81073,0.22471 1.60785,0.51922 2.40625,0.8125 0.61106,0.22476 1.2387,0.36689 1.84375,0.625 0.72113,0.30763 1.41086,0.77877 2.125,1.125 0.70428,0.34107 1.42551,0.56853 2.125,0.9375 l 0,-105.90625 z m 270,94.34375 0,20.59375 c 0.88374,0.49671 1.76091,1.0241 2.65625,1.46875 0.0207,0.0103 0.0417,0.021 0.0625,0.0312 -0.24262,-5.14895 -0.76614,-10.20353 -1.46875,-15.21875 -0.10639,-0.75223 -0.22741,-1.501 -0.34375,-2.25 -0.24102,-1.56305 -0.62181,-3.07673 -0.90625,-4.625 z"
       id="path3163"
       inkscape:connector-curvature="0" />
    <path
       style="fill:#37abc8;fill-opacity:1;stroke:none"
       d="m 500,364.03125 0,1.21875 c 0.28444,1.54827 0.66523,3.06195 0.90625,4.625 -0.30228,-1.94599 -0.53844,-3.92003 -0.90625,-5.84375 z"
       id="path3161"
       inkscape:connector-curvature="0" />
    <path
       style="fill:#37abc8;fill-opacity:1;stroke:none"
       d="m 462.625,287.125 c 2.59742,2.99923 4.996,6.16079 7.375,9.34375 l 0,-0.28125 c -2.33797,-3.11604 -4.82679,-6.12248 -7.375,-9.0625 z"
       id="path3157"
       inkscape:connector-curvature="0" />
    <path
       style="fill:#37abc8;fill-opacity:1;stroke:none"
       d="m 440,265.46875 0,0.0625 c 0.15215,0.12007 0.31704,0.22316 0.46875,0.34375 -0.16215,-0.12871 -0.3061,-0.27814 -0.46875,-0.40625 z"
       id="path3153"
       inkscape:connector-curvature="0" />
    <path
       style="fill:#37abc8;fill-opacity:1;stroke:none"
       d="m 406.21875,245.0625 c 1.27034,0.57865 2.52847,1.17149 3.78125,1.78125 l 0,-0.15625 c -1.23012,-0.59718 -2.53443,-1.05767 -3.78125,-1.625 z"
       id="path3149"
       inkscape:connector-curvature="0" />
    <path
       style="fill:#37abc8;fill-opacity:1;stroke:none"
       d="m 380,235.59375 0,0.15625 c 0.87177,0.22885 1.75897,0.41353 2.625,0.65625 -0.88574,-0.24796 -1.73317,-0.5791 -2.625,-0.8125 z"
       id="path3145"
       inkscape:connector-curvature="0" />
    <path
       style="fill:#37abc8;fill-opacity:1;stroke:none"
       d="m 340.4375,230.3125 c 3.21847,0.0448 6.39166,0.24206 9.5625,0.46875 l 0,-0.125 c -3.15478,-0.22317 -6.35764,-0.29525 -9.5625,-0.34375 z"
       id="path3141"
       inkscape:connector-curvature="0" />
    <path
       style="fill:#37abc8;fill-opacity:1;stroke:none"
       d="m 304.75,233.65625 c 4.60274,-0.94603 9.29241,-1.66254 14.03125,-2.21875 -4.36142,0.5111 -8.71909,1.09257 -12.96875,1.9375 -0.36213,0.072 -0.70123,0.20688 -1.0625,0.28125 z"
       id="path3137"
       inkscape:connector-curvature="0" />
    <path
       style="fill:#37abc8;fill-opacity:1;stroke:none"
       d="m 290,237.375 0,0.0312 c 4.82846,-1.47647 9.74773,-2.72186 14.75,-3.75 -4.84844,0.9981 -9.6307,2.14846 -14.3125,3.5625 -0.14909,0.045 -0.28859,0.11081 -0.4375,0.15625 z"
       id="path3135"
       inkscape:connector-curvature="0" />
    <path
       style="fill:#37abc8;fill-opacity:1;stroke:none"
       d="m 250.53125,255.53125 c -0.74589,0.47001 -1.5435,0.86216 -2.28125,1.34375 -0.75143,0.49052 -1.44465,1.0601 -2.1875,1.5625 1.47204,-0.9956 2.96321,-1.95746 4.46875,-2.90625 z"
       id="path3131"
       inkscape:connector-curvature="0" />
    <path
       style="fill:#37abc8;fill-opacity:1;stroke:none"
       d="m 227.71875,272.875 c 0.7453,-0.67514 1.52364,-1.30718 2.28125,-1.96875 l 0,-0.15625 c -0.78256,0.68289 -1.51179,1.42762 -2.28125,2.125 z"
       id="path3125"
       inkscape:connector-curvature="0" />
    <path
       style="fill:#37abc8;fill-opacity:1;stroke:none"
       d="m 200,305.3125 0,0.21875 c 0.58616,-0.90401 1.14676,-1.82707 1.75,-2.71875 -0.57091,0.84394 -1.19441,1.64505 -1.75,2.5 z"
       id="path3121"
       inkscape:connector-curvature="0" />
    <text
       xml:space="preserve"
       style="font-size:40px;font-style:normal;font-weight:normal;line-height:125%;letter-spacing:0px;word-spacing:0px;fill:#0077aa;fill-opacity:1;stroke:none;font-family:Quissential;-inkscape-font-specification:Quissential"
       x="256.39099"
       y="496.29074"
       id="text3013"
       sodipodi:linespacing="125%"><tspan
         sodipodi:role="line"
         id="tspan3015"
         x="256.39099"
         y="496.29074"
         style="font-size:160px;font-style:normal;font-variant:normal;font-weight:500;font-stretch:normal;fill:#0077aa;fill-opacity:1;font-family:Raleway;-inkscape-font-specification:Raleway" /></text>
  </g>
</svg>
