<?xml version="1.0" encoding="UTF-8" standalone="no"?>
<!-- Created with Inkscape (http://www.inkscape.org/) -->

<svg
   xmlns:dc="http://purl.org/dc/elements/1.1/"
   xmlns:cc="http://creativecommons.org/ns#"
   xmlns:rdf="http://www.w3.org/1999/02/22-rdf-syntax-ns#"
   xmlns:svg="http://www.w3.org/2000/svg"
   xmlns="http://www.w3.org/2000/svg"
   xmlns:sodipodi="http://sodipodi.sourceforge.net/DTD/sodipodi-0.dtd"
   xmlns:inkscape="http://www.inkscape.org/namespaces/inkscape"
   width="800"
   height="800"
   id="svg2"
   version="1.1"
   inkscape:version="0.48.4 r9939"
   sodipodi:docname="logo_text.svg"
   inkscape:export-filename="/home/jeroen/Documents/Social Innovation/DB/logo_icon.png"
   inkscape:export-xdpi="57.599998"
   inkscape:export-ydpi="57.599998">
  <defs
     id="defs4" />
  <sodipodi:namedview
     id="base"
     pagecolor="#ffffff"
     bordercolor="#666666"
     borderopacity="1.0"
     inkscape:pageopacity="0.0"
     inkscape:pageshadow="2"
     inkscape:zoom="0.7"
     inkscape:cx="231.10427"
     inkscape:cy="387.38692"
     inkscape:document-units="px"
     inkscape:current-layer="layer1"
     showgrid="false"
     inkscape:window-width="1600"
     inkscape:window-height="848"
     inkscape:window-x="-1"
     inkscape:window-y="-1"
     inkscape:window-maximized="1"
     fit-margin-top="0"
     fit-margin-left="0"
     fit-margin-right="0"
     fit-margin-bottom="0" />
  <metadata
     id="metadata7">
    <rdf:RDF>
      <cc:Work
         rdf:about="">
        <dc:format>image/svg+xml</dc:format>
        <dc:type
           rdf:resource="http://purl.org/dc/dcmitype/StillImage" />
        <dc:title></dc:title>
      </cc:Work>
    </rdf:RDF>
  </metadata>
  <g
     inkscape:label="Layer 1"
     inkscape:groupmode="layer"
     id="layer1"
     transform="translate(-173.53125,412.6164)">
    <rect
       style="fill:#ecf0f1;fill-opacity:1;stroke:none"
       id="rect3977"
       width="800"
       height="800"
       x="173.53125"
       y="-412.61639"
       ry="68.690376" />
    <path
       style="fill:#37abc8;fill-opacity:1;stroke:none"
       d="m 173.9375,383.25 c -0.0991,1.37627 -0.34096,2.70836 -0.40625,4.09375 0,0 0.0618,-0.0309 0.0625,-0.0312 0.0649,-1.36653 0.2459,-2.70487 0.34375,-4.0625 z"
       id="path3253"
       inkscape:connector-curvature="0" />
    <path
       style="fill:#37abc8;fill-opacity:1;stroke:none"
       d="m 175.78125,367.71875 c -0.19611,1.16767 -0.51598,2.29291 -0.6875,3.46875 -0.13798,0.94586 -0.15934,1.92401 -0.28125,2.875 0.27266,-2.12763 0.61608,-4.24227 0.96875,-6.34375 z"
       id="path3251"
       inkscape:connector-curvature="0" />
    <path
       style="fill:#37abc8;fill-opacity:1;stroke:none"
       d="m 179.5,350.96875 c -0.42247,1.52152 -0.964,2.99239 -1.34375,4.53125 -0.38406,1.55635 -0.59784,3.17662 -0.9375,4.75 0.67599,-3.13218 1.43065,-6.218 2.28125,-9.28125 z"
       id="path3249"
       inkscape:connector-curvature="0" />
    <path
       style="fill:#37abc8;fill-opacity:1;stroke:none"
       d="m 184.28125,336.375 c -0.51432,1.34794 -1.1452,2.63536 -1.625,4 -0.31206,0.88754 -0.51523,1.82434 -0.8125,2.71875 0.75274,-2.26457 1.59068,-4.49896 2.4375,-6.71875 z"
       id="path3247"
       inkscape:connector-curvature="0" />
    <path
       style="fill:#37abc8;fill-opacity:1;stroke:none"
       d="m 189.375,324.28125 c -0.26298,0.55227 -0.58674,1.06937 -0.84375,1.625 -0.64503,1.39448 -1.14301,2.86603 -1.75,4.28125 0.84889,-1.97952 1.67068,-3.96754 2.59375,-5.90625 z"
       id="path3245"
       inkscape:connector-curvature="0" />
    <path
       style="fill:#37abc8;fill-opacity:1;stroke:none"
       d="m 197.875,308.8125 c -0.69551,1.1304 -1.48741,2.1955 -2.15625,3.34375 -0.30163,0.51784 -0.54761,1.07235 -0.84375,1.59375 0.95214,-1.67648 1.99157,-3.29831 3,-4.9375 z"
       id="path3243"
       inkscape:connector-curvature="0" />
    <path
       style="fill:#37abc8;fill-opacity:1;stroke:none"
       d="m 200,375.625 0,-0.0625 c -3.26724,1.10037 -6.53681,2.37376 -9.625,3.6875 3.09323,-1.31786 6.35219,-2.52429 9.625,-3.625 z"
       id="path3241"
       inkscape:connector-curvature="0" />
    <path
       style="fill:#37abc8;fill-opacity:1;stroke:none"
       d="m 207.6875,373.375 c -1.66784,0.3685 -3.35014,0.75192 -5.09375,1.28125 -0.62147,0.18866 -1.21834,0.48278 -1.84375,0.6875 2.35733,-0.7735 4.69432,-1.46425 6.9375,-1.96875 z"
       id="path3239"
       inkscape:connector-curvature="0" />
    <path
       style="fill:#37abc8;fill-opacity:1;stroke:none"
       d="m 492.53125,381.1875 c 1.60753,1.09091 3.21613,2.18683 4.84375,3.1875 0.54838,0.33715 1.10442,0.61585 1.65625,0.9375 -2.1871,-1.27811 -4.35281,-2.6653 -6.5,-4.125 z"
       id="path3175"
       inkscape:connector-curvature="0" />
    <path
       style="fill:#37abc8;fill-opacity:1;stroke:none"
       d="m 482.90625,374.6875 c 3.08206,2.03318 6.14983,4.15781 9.21875,6.25 0.13211,0.0901 0.27406,0.16029 0.40625,0.25 -3.20411,-2.1782 -6.40837,-4.37719 -9.625,-6.5 z"
       id="path3173"
       inkscape:connector-curvature="0" />
    <path
       style="fill:#37abc8;fill-opacity:1;stroke:none"
       d="m 502.65625,387.3125 c -0.89534,-0.44465 -1.77251,-0.97204 -2.65625,-1.46875 l 0,0.0625 c 0.881,0.49636 1.76394,0.9621 2.65625,1.40625 z"
       id="path3167"
       inkscape:connector-curvature="0" />
    <path
       style="fill:#37abc8;fill-opacity:1;stroke:none"
       d="m 501.25,372.125 c 0.70261,5.01522 1.22613,10.0698 1.46875,15.21875 0.0208,0.0103 0.0417,0.021 0.0625,0.0312 -0.24329,-5.16335 -0.82037,-10.2239 -1.53125,-15.25 z"
       id="path3165"
       inkscape:connector-curvature="0" />
    <g
       id="g3969"
       transform="matrix(0.69071913,0,0,0.71896638,1.385718,141.03272)">
      <path
         inkscape:export-ydpi="248.32001"
         inkscape:export-xdpi="248.32001"
         inkscape:export-filename="/home/jeroen/Documents/Social Innovation/DB/g3944.png"
         sodipodi:nodetypes="scaaaaaaacs"
         inkscape:connector-curvature="0"
         id="path2985"
         d="m 828.33324,-441.88087 c -256.9079,0 -465.9457,202.3706 -477.9127,456.317301 0,0 78.513,-43.7943 121.5522,-43.5539 41.7401,0.2332 75.6673,44.1286 117.4041,43.5539 44.4194,-0.6117 79.2061,-50.3238 123.6261,-49.7759 41.8679,0.5165 73.482,51.1572 115.3303,49.7759 43.9473,-1.4507 73.4338,-59.8392 117.4042,-60.1458 45.205,-0.3153 76.35616,61.1147 121.55196,60.1458 43.0642,-0.9233 70.1921,-61.2996 113.2561,-62.2198 46.7417,-0.9988 83.8002,41.4798 125.7002,62.2198 C 1294.28,-239.51127 1085.2418,-441.88087 828.33324,-441.88087 z"
         style="fill:#333333;fill-opacity:1;stroke:none" />
      <path
         inkscape:export-ydpi="248.32001"
         inkscape:export-xdpi="248.32001"
         inkscape:export-filename="/home/jeroen/Documents/Social Innovation/DB/g3944.png"
         inkscape:connector-curvature="0"
         id="path3163"
         d="m 827.41924,-441.83477 c -1.7663,0 -3.5006,0.1603 -5.2626,0.1815 -11.2477,0.1185 -22.3445,0.7518 -33.3913,1.6333 -4.5698,0.3775 -9.171,0.6856 -13.7014,1.1796 -0.1489,0.017 -0.3047,-0.017 -0.4536,0 l 0,432.362601 c 3.6836,2.4891 7.352,4.888 11.0699,7.16819997 1.8024,1.09980003 3.6256,2.07120003 5.4443,3.08510003 2.5464,1.4289 5.1238,2.7861 7.7126,3.9924 2.8299,1.3075 5.7228,2.2149 8.6201,3.1758 1.703,0.5716 3.35,1.3861 5.0812,1.8148 4.7817,1.1657 9.6564,1.7997 14.6994,1.6332 5.4935,-0.1815 10.781,-1.2583 15.879,-2.9943 4.1618,-1.4172 8.1013,-3.5351 12.068,-5.7164 1.1345,-0.6204 2.3264,-1.0535 3.448,-1.724 1.0601,-0.6365 2.0353,-1.5019 3.0852,-2.1777 l 0,-441.980801 c -9.2069,-0.6582 -18.4205,-1.231 -27.7656,-1.361 -2.1901,-0.033 -4.3381,-0.2721 -6.5332,-0.2721 z m 121.4063,16.0605 0,380.279501 c 3.6485,0.2683 7.2214,1.0134 10.7071,1.9962 0.3871,0.1092 0.7942,0.1551 1.1795,0.2721 0.085,0.026 0.1865,-0.026 0.2722,0 0.8137,0.2546 1.553,0.8006 2.3591,1.0888 3.6208,1.2797 7.1279,2.8584 10.6163,4.7184 0.7768,0.4165 1.5878,0.6484 2.3592,1.0888 4.9918,2.8498 9.8723,6.1419 14.6994,9.7089 0.6655,0.4918 1.3326,1.0423 1.9961,1.5425 7.44796,5.5973 14.80886,11.548 22.23066,17.2401 6.6557,5.1046 13.3806,9.8872 20.3251,13.7013 0.121,0.066 0.2416,0.1158 0.3629,0.1815 l 0,-399.606501 c -3.6375,-1.7705 -7.2906,-3.4919 -10.9791,-5.172 -8.4859,-3.8613 -17.0281,-7.6076 -25.76936,-10.9792 -5.6456,-2.1788 -11.4023,-4.1112 -17.1493,-6.0794 -8.4409,-2.8889 -16.9388,-5.6544 -25.5879,-8.0756 -2.5146,-0.7048 -5.0907,-1.241 -7.622,-1.9055 z m -261.3229,4.8091 c -15.2154,4.6526 -30.1084,9.9865 -44.6427,16.0605 -14.409,6.0216 -28.4583,12.7818 -42.102,20.1436 -0.1184,0.064 -0.2445,0.1174 -0.363,0.1815 l 0,397.247301 c 1.3466,-0.281 2.7516,-0.2784 4.0832,-0.6351 5.289,-1.4168 10.506,-3.3475 15.6068,-5.7165 10.2018,-4.7379 20.1332,-11.022 30.0339,-17.24 4.9505,-3.109 9.893,-6.1769 14.881,-9.0738 0.2021,-0.1173 0.4329,-0.1556 0.6352,-0.272 4.7889,-2.7634 9.5328,-5.4185 14.4271,-7.622 1.7505,-0.788 3.5838,-1.2187 5.3536,-1.9054 0.7049,-0.2759 1.3785,-0.7402 2.0869,-0.9981 l 0,-390.169901 z m 435.53846,81.6635 0,322.298401 c 4.29,-3.7465 8.6243,-7.4599 12.9753,-10.9792 4.4491,-3.5988 8.9747,-6.8976 13.6106,-9.7996 4.6361,-2.9021 9.3892,-5.4275 14.3365,-7.1683 4.9471,-1.7408 10.0423,-2.6978 15.4252,-2.8128 0.093,0 0.18,0 0.2729,0 5.4339,-0.1161 10.6888,0.4089 15.8792,1.361 0.3249,0.061 0.6737,0.026 0.9981,0.091 1.8562,0.3688 3.6144,1.1465 5.4441,1.6332 2.7183,0.7153 5.4988,1.2248 8.1663,2.1777 l 0,-206.971501 c -6.9076,-9.242 -13.8722,-18.4218 -21.4139,-27.1304 -8.7032,-10.0496 -17.9032,-19.655 -27.4026,-28.9451 -2.325,-2.2717 -4.7068,-4.4904 -7.0776,-6.7146 -9.6216,-9.0352 -19.5088,-17.82 -29.8524,-26.0415 -0.4406,-0.3502 -0.9191,-0.6495 -1.3611,-0.9982 z m -609.75386,15.6067 c -2.1997,1.921 -4.4597,3.7562 -6.6238,5.7165 -5.3711,4.8679 -10.7337,9.7759 -15.879,14.8809 -4.505,4.4683 -8.8313,9.1484 -13.1569,13.792 -7.8192,8.3981 -15.2961,17.0971 -22.5028,26.0416 -3.9942,4.9558 -7.9977,9.856 -11.7958,14.9716 -4.1824,5.6339 -8.1311,11.4203 -12.068,17.2401 -1.7516,2.5891 -3.3794,5.2693 -5.0813,7.8941 l 0,203.342001 c 0.7424,-0.25 1.4362,-0.3919 2.1777,-0.6351 1.8159,-0.5945 3.549,-1.4485 5.3535,-1.9963 5.0627,-1.5369 9.9474,-2.6502 14.7901,-3.7202 0.5672,-0.1274 1.1613,-0.2427 1.724,-0.3629 1.0054,-0.2105 2.0954,-0.6312 3.0851,-0.8167 6.2658,-1.1745 12.1324,-1.8448 17.5123,-1.8147 0.5847,0 1.1423,0.1614 1.724,0.1815 4.1794,0.1262 8.3025,0.7281 12.3402,1.6332 0.4165,0.094 0.8551,0.08 1.2703,0.1815 0.8279,0.2021 1.627,0.5874 2.4499,0.8166 2.3541,0.6525 4.6686,1.5076 6.9868,2.3592 1.7743,0.6526 3.5967,1.0653 5.3535,1.8148 2.0939,0.8932 4.0966,2.2612 6.1701,3.2665 2.045,0.9903 4.1391,1.6508 6.1701,2.7221 l 0,-307.508301 z m 783.96926,273.935501 0,59.7958 c 2.5659,1.4423 5.1129,2.9736 7.7125,4.2647 0.061,0.03 0.1222,0.061 0.18,0.091 -0.7044,-14.95040003 -2.2244,-29.6268 -4.2645,-44.189 -0.3089,-2.1841 -0.6606,-4.3583 -0.9983,-6.5331 -0.6997,-4.5384 -1.8054,-8.9335 -2.6312,-13.4291 z"
         style="fill:#0077aa;fill-opacity:1;stroke:none" />
    </g>
    <path
       style="fill:#37abc8;fill-opacity:1;stroke:none"
       d="m 500,364.03125 0,1.21875 c 0.28444,1.54827 0.66523,3.06195 0.90625,4.625 -0.30228,-1.94599 -0.53844,-3.92003 -0.90625,-5.84375 z"
       id="path3161"
       inkscape:connector-curvature="0" />
    <path
       style="fill:#37abc8;fill-opacity:1;stroke:none"
       d="m 200,305.3125 0,0.21875 c 0.58616,-0.90401 1.14676,-1.82707 1.75,-2.71875 -0.57091,0.84394 -1.19441,1.64505 -1.75,2.5 z"
       id="path3121"
       inkscape:connector-curvature="0" />
    <text
       xml:space="preserve"
       style="font-size:40px;font-style:normal;font-weight:normal;line-height:125%;letter-spacing:0px;word-spacing:0px;fill:#0077aa;fill-opacity:1;stroke:none;font-family:Quissential;-inkscape-font-specification:Quissential"
       x="256.39099"
       y="496.29074"
       id="text3013"
       sodipodi:linespacing="125%"><tspan
         sodipodi:role="line"
         id="tspan3015"
         x="256.39099"
         y="496.29074"
         style="font-size:160px;font-style:normal;font-variant:normal;font-weight:500;font-stretch:normal;fill:#0077aa;fill-opacity:1;font-family:Raleway;-inkscape-font-specification:Raleway" /></text>
    <text
       xml:space="preserve"
       style="font-size:80px;font-style:normal;font-variant:normal;font-weight:normal;font-stretch:normal;line-height:125%;letter-spacing:0px;word-spacing:0px;fill:#000000;fill-opacity:1;stroke:none;font-family:Raleway;-inkscape-font-specification:Raleway"
       x="603.8562"
       y="-73.24691"
       id="text3163"
       sodipodi:linespacing="125%"><tspan
         sodipodi:role="line"
         id="tspan3165"
         x="603.8562"
         y="-73.24691"
         style="font-weight:bold;-inkscape-font-specification:Raleway Bold" /></text>
  </g>
</svg>
