<?xml version="1.0" encoding="UTF-8" standalone="no"?>
<!-- Created with Inkscape (http://www.inkscape.org/) -->

<svg
   xmlns:dc="http://purl.org/dc/elements/1.1/"
   xmlns:cc="http://creativecommons.org/ns#"
   xmlns:rdf="http://www.w3.org/1999/02/22-rdf-syntax-ns#"
   xmlns:svg="http://www.w3.org/2000/svg"
   xmlns="http://www.w3.org/2000/svg"
   xmlns:sodipodi="http://sodipodi.sourceforge.net/DTD/sodipodi-0.dtd"
   xmlns:inkscape="http://www.inkscape.org/namespaces/inkscape"
   width="313.90994"
   height="242.70024"
   viewBox="0 0 83.055337 64.214441"
   version="1.1"
   id="svg6136"
   inkscape:version="0.92+devel unknown"
   sodipodi:docname="optimus2.svg">
  <defs
     id="defs6130" />
  <sodipodi:namedview
     id="base"
     pagecolor="#ffffff"
     bordercolor="#666666"
     borderopacity="1.0"
     inkscape:pageopacity="0.0"
     inkscape:pageshadow="2"
     inkscape:zoom="2"
     inkscape:cx="91.116794"
     inkscape:cy="160.01741"
     inkscape:document-units="mm"
     inkscape:current-layer="layer1"
     inkscape:document-rotation="0"
     showgrid="false"
     units="px"
     fit-margin-top="5"
     fit-margin-right="5"
     fit-margin-bottom="5"
     fit-margin-left="5"
     inkscape:window-width="1920"
     inkscape:window-height="986"
     inkscape:window-x="0"
     inkscape:window-y="0"
     inkscape:window-maximized="1"
     inkscape:snap-bbox="true"
     inkscape:bbox-paths="true"
     inkscape:bbox-nodes="true"
     inkscape:snap-bbox-edge-midpoints="true"
     inkscape:snap-bbox-midpoints="true"
     inkscape:object-paths="true"
     inkscape:snap-intersection-paths="true"
     inkscape:snap-smooth-nodes="true"
     inkscape:snap-midpoints="true"
     inkscape:snap-object-midpoints="true"
     inkscape:snap-center="true" />
  <metadata
     id="metadata6133">
    <rdf:RDF>
      <cc:Work
         rdf:about="">
        <dc:format>image/svg+xml</dc:format>
        <dc:type
           rdf:resource="http://purl.org/dc/dcmitype/StillImage" />
        <dc:title />
      </cc:Work>
    </rdf:RDF>
  </metadata>
  <g
     inkscape:label="Layer 1"
     inkscape:groupmode="layer"
     id="layer1"
     transform="translate(-75.126996,-83.807546)">
    <text
       xml:space="preserve"
       style="font-style:normal;font-variant:normal;font-weight:normal;font-stretch:normal;font-size:18.24416733px;font-family:Montserrat;-inkscape-font-specification:Montserrat;fill:#4d4d4d;stroke-width:0.45610419;fill-opacity:1;"
       x="76.030296"
       y="143.1597"
       id="text4513"><tspan
         sodipodi:role="line"
         id="tspan4511"
         x="76.030296"
         y="143.1597"
         style="font-style:normal;font-variant:normal;font-weight:bold;font-stretch:normal;font-family:Montserrat;-inkscape-font-specification:'Montserrat Bold';fill:#4d4d4d;stroke-width:0.45610419;fill-opacity:1;">Optimus</tspan></text>
    <path
       style="fill:#00a5e3;fill-opacity:1;stroke:none;stroke-width:0.65840071;stroke-linejoin:round;stroke-miterlimit:17.89999962;stroke-opacity:1"
       d="m 116.65411,85.130517 a 19.756939,19.756939 0 0 0 -9.86151,2.657755 l 3.34954,5.797784 a 13.05984,13.05984 0 0 1 0.589,-0.337325 13.05984,13.05984 0 0 1 1.19119,-0.533656 13.05984,13.05984 0 0 1 1.23862,-0.411119 13.05984,13.05984 0 0 1 1.27419,-0.285938 13.05984,13.05984 0 0 1 1.29528,-0.158118 13.05984,13.05984 0 0 1 0.92369,-0.03294 13.05984,13.05984 0 0 1 1.3045,0.06589 13.05984,13.05984 0 0 1 1.29,0.195014 13.05984,13.05984 0 0 1 1.26498,0.322834 13.05984,13.05984 0 0 1 1.22676,0.448009 13.05984,13.05984 0 0 1 1.17537,0.567915 13.05984,13.05984 0 0 1 1.11343,0.682558 13.05984,13.05984 0 0 1 1.03833,0.789295 13.05984,13.05984 0 0 1 0.95532,0.889427 13.05984,13.05984 0 0 1 0.86176,0.981671 13.05984,13.05984 0 0 1 0.75898,1.06205 13.05984,13.05984 0 0 1 0.64962,1.131889 13.05984,13.05984 0 0 1 0.53366,1.191178 13.05984,13.05984 0 0 1 0.41111,1.23862 13.05984,13.05984 0 0 1 0.28594,1.2742 13.05984,13.05984 0 0 1 0.15813,1.2966 13.05984,13.05984 0 0 1 0.0329,0.92369 13.05984,13.05984 0 0 1 -0.0659,1.30318 13.05984,13.05984 0 0 1 -0.19501,1.29132 13.05984,13.05984 0 0 1 -0.32284,1.26498 13.05984,13.05984 0 0 1 -0.44801,1.22543 13.05984,13.05984 0 0 1 -0.56792,1.17537 13.05984,13.05984 0 0 1 -0.68124,1.11344 13.05984,13.05984 0 0 1 -0.7906,1.03965 13.05984,13.05984 0 0 1 -0.88944,0.95531 13.05984,13.05984 0 0 1 -0.98167,0.86045 13.05984,13.05984 0 0 1 -1.06205,0.7603 13.05984,13.05984 0 0 1 -1.13188,0.64962 13.05984,13.05984 0 0 1 -1.19118,0.53234 13.05984,13.05984 0 0 1 -1.23862,0.41243 13.05984,13.05984 0 0 1 -1.2742,0.28594 13.05984,13.05984 0 0 1 -1.29527,0.1568 13.05984,13.05984 0 0 1 -0.92501,0.0329 13.05984,13.05984 0 0 1 -1.30318,-0.0659 13.05984,13.05984 0 0 1 -1.29133,-0.19502 13.05984,13.05984 0 0 1 -1.26497,-0.32283 13.05984,13.05984 0 0 1 -1.22544,-0.44669 13.05984,13.05984 0 0 1 -1.17537,-0.56792 13.05984,13.05984 0 0 1 -1.11344,-0.68256 13.05984,13.05984 0 0 1 -1.03965,-0.79061 13.05984,13.05984 0 0 1 -0.954,-0.88943 13.05984,13.05984 0 0 1 -0.86176,-0.98035 13.05984,13.05984 0 0 1 -0.7603,-1.06205 13.05984,13.05984 0 0 1 -0.64961,-1.1332 13.05984,13.05984 0 0 1 -0.53235,-1.19118 13.05984,13.05984 0 0 1 -0.41243,-1.23862 13.05984,13.05984 0 0 1 -0.28593,-1.27419 13.05984,13.05984 0 0 1 -0.15681,-1.29528 13.05984,13.05984 0 0 1 -0.0329,-0.92369 13.05984,13.05984 0 0 1 0.0659,-1.30451 13.05984,13.05984 0 0 1 0.19502,-1.29001 13.05984,13.05984 0 0 1 0.32283,-1.26497 13.05984,13.05984 0 0 1 0.44801,-1.22676 13.05984,13.05984 0 0 1 0.5666,-1.175363 13.05984,13.05984 0 0 1 0.68256,-1.113438 13.05984,13.05984 0 0 1 0.25958,-0.341279 l -5.69237,-3.535335 a 19.756939,19.756939 0 0 0 -3.54455,11.251665 19.756939,19.756939 0 0 0 19.75595,19.75595 19.756939,19.756939 0 0 0 19.75727,-19.75595 19.756939,19.756939 0 0 0 -19.75727,-19.757277 z"
       id="path6702"
       inkscape:connector-curvature="0" />
    <circle
       style="fill:none;fill-opacity:1;stroke:#4d4d4d;stroke-width:5.29174566;stroke-miterlimit:4;stroke-dasharray:none;stroke-opacity:1"
       id="path4322"
       cx="116.65478"
       cy="104.88708"
       r="13.060183" />
    <path
       style="fill:#0089bc;fill-opacity:1;stroke:none;stroke-width:2.48844361;stroke-linejoin:round;stroke-miterlimit:17.89999962;stroke-opacity:1"
       d="M 209.72266 132.4375 L 191.83789 114.55273 A 49.360025 49.360025 0 0 1 191.3457 115.08203 A 49.360025 49.360025 0 0 1 187.63477 118.33398 A 49.360025 49.360025 0 0 1 183.62109 121.20898 A 49.360025 49.360025 0 0 1 179.34375 123.66406 A 49.360025 49.360025 0 0 1 174.8418 125.67578 A 49.360025 49.360025 0 0 1 170.16016 127.23438 A 49.360025 49.360025 0 0 1 165.34375 128.31445 A 49.360025 49.360025 0 0 1 160.44922 128.9082 A 49.360025 49.360025 0 0 1 156.95312 129.03125 A 49.360025 49.360025 0 0 1 152.02734 128.7832 A 49.360025 49.360025 0 0 1 147.14648 128.04492 A 49.360025 49.360025 0 0 1 142.36523 126.82617 A 49.360025 49.360025 0 0 1 137.73438 125.13672 A 49.360025 49.360025 0 0 1 133.29102 122.99023 A 49.360025 49.360025 0 0 1 129.08398 120.41211 A 49.360025 49.360025 0 0 1 125.1543 117.42383 A 49.360025 49.360025 0 0 1 121.54883 114.06055 A 49.360025 49.360025 0 0 1 118.29102 110.35547 A 49.360025 49.360025 0 0 1 115.41797 106.3418 A 49.360025 49.360025 0 0 1 112.96289 102.05859 A 49.360025 49.360025 0 0 1 110.95117 97.556641 A 49.360025 49.360025 0 0 1 109.39258 92.875 A 49.360025 49.360025 0 0 1 108.31055 88.060547 A 49.360025 49.360025 0 0 1 107.71875 83.164062 A 49.360025 49.360025 0 0 1 107.59375 79.673828 A 49.360025 49.360025 0 0 1 107.84375 74.742188 A 49.360025 49.360025 0 0 1 108.58008 69.867188 A 49.360025 49.360025 0 0 1 109.80078 65.085938 A 49.360025 49.360025 0 0 1 111.49414 60.449219 A 49.360025 49.360025 0 0 1 113.63477 56.007812 A 49.360025 49.360025 0 0 1 116.21484 51.798828 A 49.360025 49.360025 0 0 1 117.19531 50.509766 L 95.681641 37.146484 A 74.671895 74.671895 0 0 0 82.285156 79.673828 A 74.671895 74.671895 0 0 0 156.95312 154.3418 A 74.671895 74.671895 0 0 0 209.72266 132.4375 z "
       id="path4372"
       transform="matrix(0.26458333,0,0,0.26458333,75.126996,83.807546)" />
    <path
       style="fill:#0098d0;fill-opacity:1;stroke:none;stroke-width:2.48844361;stroke-linejoin:round;stroke-miterlimit:17.89999962;stroke-opacity:1"
       d="M 209.72266 26.904297 L 191.83594 44.791016 A 49.360025 49.360025 0 0 1 192.36133 45.279297 A 49.360025 49.360025 0 0 1 195.61914 48.990234 A 49.360025 49.360025 0 0 1 198.48828 53.003906 A 49.360025 49.360025 0 0 1 200.94336 57.283203 A 49.360025 49.360025 0 0 1 202.96094 61.785156 A 49.360025 49.360025 0 0 1 204.51367 66.466797 A 49.360025 49.360025 0 0 1 205.59375 71.28125 A 49.360025 49.360025 0 0 1 206.19141 76.181641 A 49.360025 49.360025 0 0 1 206.31641 79.673828 A 49.360025 49.360025 0 0 1 206.06836 84.599609 A 49.360025 49.360025 0 0 1 205.33008 89.478516 A 49.360025 49.360025 0 0 1 204.10938 94.259766 A 49.360025 49.360025 0 0 1 202.41602 98.892578 A 49.360025 49.360025 0 0 1 200.26953 103.33398 A 49.360025 49.360025 0 0 1 197.69531 107.54297 A 49.360025 49.360025 0 0 1 194.70703 111.47266 A 49.360025 49.360025 0 0 1 191.83789 114.55273 L 209.72266 132.4375 A 74.671895 74.671895 0 0 0 231.62695 79.673828 A 74.671895 74.671895 0 0 0 209.72266 26.904297 z "
       id="path4370"
       transform="matrix(0.26458333,0,0,0.26458333,75.126996,83.807546)" />
    <path
       style="fill:#00a5e3;fill-opacity:1;stroke:none;stroke-width:2.48844361;stroke-linejoin:round;stroke-miterlimit:17.89999962;stroke-opacity:1"
       d="M 156.95312 5 A 74.671895 74.671895 0 0 0 119.68164 15.044922 L 132.33984 36.958984 A 49.360025 49.360025 0 0 1 134.56641 35.683594 A 49.360025 49.360025 0 0 1 139.06836 33.666016 A 49.360025 49.360025 0 0 1 143.75 32.113281 A 49.360025 49.360025 0 0 1 148.56641 31.03125 A 49.360025 49.360025 0 0 1 153.46094 30.433594 A 49.360025 49.360025 0 0 1 156.95312 30.310547 A 49.360025 49.360025 0 0 1 161.88281 30.558594 A 49.360025 49.360025 0 0 1 166.75977 31.294922 A 49.360025 49.360025 0 0 1 171.53906 32.515625 A 49.360025 49.360025 0 0 1 176.17578 34.208984 A 49.360025 49.360025 0 0 1 180.61914 36.355469 A 49.360025 49.360025 0 0 1 184.82617 38.935547 A 49.360025 49.360025 0 0 1 188.75195 41.917969 A 49.360025 49.360025 0 0 1 191.83594 44.791016 L 209.72266 26.904297 A 74.671895 74.671895 0 0 0 156.95312 5 z "
       id="path4367"
       transform="matrix(0.26458333,0,0,0.26458333,75.126996,83.807546)" />
    <circle
       style="fill:#4d4d4d;fill-opacity:1;stroke:none;stroke-width:9.29468536;stroke-miterlimit:4;stroke-dasharray:none;stroke-opacity:1"
       id="path4414"
       cx="116.65478"
       cy="104.88708"
       r="7.2418575" />
  </g>
</svg>
