<?xml version="1.0" encoding="UTF-8" standalone="no"?>
<!-- Created with Inkscape (http://www.inkscape.org/) -->

<svg
   xmlns:dc="http://purl.org/dc/elements/1.1/"
   xmlns:cc="http://creativecommons.org/ns#"
   xmlns:rdf="http://www.w3.org/1999/02/22-rdf-syntax-ns#"
   xmlns:svg="http://www.w3.org/2000/svg"
   xmlns="http://www.w3.org/2000/svg"
   xmlns:sodipodi="http://sodipodi.sourceforge.net/DTD/sodipodi-0.dtd"
   xmlns:inkscape="http://www.inkscape.org/namespaces/inkscape"
   width="313.90994"
   height="242.70024"
   viewBox="0 0 83.055337 64.214441"
   version="1.1"
   id="svg6136"
   inkscape:version="0.92+devel unknown"
   sodipodi:docname="optimus.svg">
  <defs
     id="defs6130" />
  <sodipodi:namedview
     id="base"
     pagecolor="#ffffff"
     bordercolor="#666666"
     borderopacity="1.0"
     inkscape:pageopacity="0.0"
     inkscape:pageshadow="2"
     inkscape:zoom="0.8117387"
     inkscape:cx="-0.40333418"
     inkscape:cy="48.615161"
     inkscape:document-units="mm"
     inkscape:current-layer="layer1"
     inkscape:document-rotation="0"
     showgrid="false"
     units="px"
     fit-margin-top="5"
     fit-margin-right="5"
     fit-margin-bottom="5"
     fit-margin-left="5"
     inkscape:window-width="1920"
     inkscape:window-height="986"
     inkscape:window-x="0"
     inkscape:window-y="0"
     inkscape:window-maximized="1" />
  <metadata
     id="metadata6133">
    <rdf:RDF>
      <cc:Work
         rdf:about="">
        <dc:format>image/svg+xml</dc:format>
        <dc:type
           rdf:resource="http://purl.org/dc/dcmitype/StillImage" />
        <dc:title></dc:title>
      </cc:Work>
    </rdf:RDF>
  </metadata>
  <g
     inkscape:label="Layer 1"
     inkscape:groupmode="layer"
     id="layer1"
     transform="translate(-75.126996,-83.807546)">
    <text
       xml:space="preserve"
       style="font-style:normal;font-variant:normal;font-weight:normal;font-stretch:normal;font-size:18.24416733px;font-family:Montserrat;-inkscape-font-specification:Montserrat;fill:#4d4d4d;stroke-width:0.45610419"
       x="76.030296"
       y="143.1597"
       id="text4513"><tspan
         sodipodi:role="line"
         id="tspan4511"
         x="76.030296"
         y="143.1597"
         style="font-style:normal;font-variant:normal;font-weight:bold;font-stretch:normal;font-family:Montserrat;-inkscape-font-specification:'Montserrat Bold';fill:#4d4d4d;stroke-width:0.45610419">Optimus</tspan></text>
    <path
       style="fill:#007ba7;fill-opacity:1;stroke:none;stroke-width:0.65840071;stroke-linejoin:round;stroke-miterlimit:17.89999962;stroke-opacity:1"
       d="m 116.65411,85.130517 a 19.756939,19.756939 0 0 0 -9.86151,2.657755 l 3.34954,5.797784 a 13.05984,13.05984 0 0 1 0.589,-0.337325 13.05984,13.05984 0 0 1 1.19119,-0.533656 13.05984,13.05984 0 0 1 1.23862,-0.411119 13.05984,13.05984 0 0 1 1.27419,-0.285938 13.05984,13.05984 0 0 1 1.29528,-0.158118 13.05984,13.05984 0 0 1 0.92369,-0.03294 13.05984,13.05984 0 0 1 1.3045,0.06589 13.05984,13.05984 0 0 1 1.29,0.195014 13.05984,13.05984 0 0 1 1.26498,0.322834 13.05984,13.05984 0 0 1 1.22676,0.448009 13.05984,13.05984 0 0 1 1.17537,0.567915 13.05984,13.05984 0 0 1 1.11343,0.682558 13.05984,13.05984 0 0 1 1.03833,0.789295 13.05984,13.05984 0 0 1 0.95532,0.889427 13.05984,13.05984 0 0 1 0.86176,0.981671 13.05984,13.05984 0 0 1 0.75898,1.06205 13.05984,13.05984 0 0 1 0.64962,1.131889 13.05984,13.05984 0 0 1 0.53366,1.191178 13.05984,13.05984 0 0 1 0.41111,1.23862 13.05984,13.05984 0 0 1 0.28594,1.2742 13.05984,13.05984 0 0 1 0.15813,1.2966 13.05984,13.05984 0 0 1 0.0329,0.92369 13.05984,13.05984 0 0 1 -0.0659,1.30318 13.05984,13.05984 0 0 1 -0.19501,1.29132 13.05984,13.05984 0 0 1 -0.32284,1.26498 13.05984,13.05984 0 0 1 -0.44801,1.22543 13.05984,13.05984 0 0 1 -0.56792,1.17537 13.05984,13.05984 0 0 1 -0.68124,1.11344 13.05984,13.05984 0 0 1 -0.7906,1.03965 13.05984,13.05984 0 0 1 -0.88944,0.95531 13.05984,13.05984 0 0 1 -0.98167,0.86045 13.05984,13.05984 0 0 1 -1.06205,0.7603 13.05984,13.05984 0 0 1 -1.13188,0.64962 13.05984,13.05984 0 0 1 -1.19118,0.53234 13.05984,13.05984 0 0 1 -1.23862,0.41243 13.05984,13.05984 0 0 1 -1.2742,0.28594 13.05984,13.05984 0 0 1 -1.29527,0.1568 13.05984,13.05984 0 0 1 -0.92501,0.0329 13.05984,13.05984 0 0 1 -1.30318,-0.0659 13.05984,13.05984 0 0 1 -1.29133,-0.19502 13.05984,13.05984 0 0 1 -1.26497,-0.32283 13.05984,13.05984 0 0 1 -1.22544,-0.44669 13.05984,13.05984 0 0 1 -1.17537,-0.56792 13.05984,13.05984 0 0 1 -1.11344,-0.68256 13.05984,13.05984 0 0 1 -1.03965,-0.79061 13.05984,13.05984 0 0 1 -0.954,-0.88943 13.05984,13.05984 0 0 1 -0.86176,-0.98035 13.05984,13.05984 0 0 1 -0.7603,-1.06205 13.05984,13.05984 0 0 1 -0.64961,-1.1332 13.05984,13.05984 0 0 1 -0.53235,-1.19118 13.05984,13.05984 0 0 1 -0.41243,-1.23862 13.05984,13.05984 0 0 1 -0.28593,-1.27419 13.05984,13.05984 0 0 1 -0.15681,-1.29528 13.05984,13.05984 0 0 1 -0.0329,-0.92369 13.05984,13.05984 0 0 1 0.0659,-1.30451 13.05984,13.05984 0 0 1 0.19502,-1.29001 13.05984,13.05984 0 0 1 0.32283,-1.26497 13.05984,13.05984 0 0 1 0.44801,-1.22676 13.05984,13.05984 0 0 1 0.5666,-1.175363 13.05984,13.05984 0 0 1 0.68256,-1.113438 13.05984,13.05984 0 0 1 0.25958,-0.341279 l -5.69237,-3.535335 a 19.756939,19.756939 0 0 0 -3.54455,11.251665 19.756939,19.756939 0 0 0 19.75595,19.75595 19.756939,19.756939 0 0 0 19.75727,-19.75595 19.756939,19.756939 0 0 0 -19.75727,-19.757277 z"
       id="path6702"
       inkscape:connector-curvature="0" />
  </g>
</svg>
