<svg id="Layer_1" height="512" viewBox="0 0 512 512" width="512" xmlns="http://www.w3.org/2000/svg" data-name="Layer 1"><path d="m79.37 89.9a49.053 49.053 0 0 0 .16 98.1l.47 212h401v-311z" fill="#e0c59d"/><path d="m351.29 252.02a38.667 38.667 0 0 0 -7.49-43.65 38.069 38.069 0 0 0 -20.27-10.53 59.838 59.838 0 0 1 -31.81-16.34l-101.05-101.19a57.853 57.853 0 0 1 -16.22-31.37 38.178 38.178 0 0 0 -12-22.01 38.657 38.657 0 0 0 -42.23-6.32l24.45 24.48-18.35 18.37-24.46-24.5a38.61 38.61 0 0 0 17.94 50.8 37.754 37.754 0 0 0 9.92 3.27 59.66 59.66 0 0 1 31.71 16.44l101.05 101.2a57.6 57.6 0 0 1 16.43 31.16 38.225 38.225 0 0 0 54.02 28.53l-23.61-23.64 18.34-18.37z" fill="#777796"/><path d="m431.37 248.91a23.609 23.609 0 0 0 -27.86 18.35l-.48 2.31 46.13 9.52.48-2.31a23.532 23.532 0 0 0 -18.27-27.87z" fill="#eadf53"/><path d="m426.1 274.33-36.73 176.72 23.07 4.76 36.72-176.72z" fill="#e75163"/><path d="m403.03 269.57-36.72 176.72 23.06 4.76 36.73-176.72z" fill="#fb6771"/><path d="m366.31 446.29 13.48 43.98 32.65-34.46z" fill="#c79a83"/><path d="m138 400.42v-19.94l23.14-3.84c1.69-6.02 4.67-11.73 7.68-17.06l-13.23-18.64 24.35-24.26 18.69 13.31a76.656 76.656 0 0 1 17.1-6.87l3.86-22.12h34.43l3.82 22.12a75.813 75.813 0 0 1 17.06 6.67l18.62-13.21 24.19 24.31-13.53 18.66c3.01 5.34 4.79 11.06 6.48 17.08l21.34 3.85v34.38l-21.34 3.87c-1.69 6.02-2.86 11.75-5.87 17.09l13.23 18.68-24.35 24.37-18.69-13.1a78.331 78.331 0 0 1 -17.1 7.29l-3.86 22.94h-34.43l-3.88-22.94a79.128 79.128 0 0 1 -17.12-7.5l-18.72 13.2-24.43-24.31 13.09-18.66a77.917 77.917 0 0 1 -7.39-17.07l-23.14-3.86z" fill="#5fa8ed"/><path d="m236.77 343.53a54.14 54.14 0 1 1 -54.22 54.14 54.177 54.177 0 0 1 54.22-54.14zm27.65 54.14a27.65 27.65 0 1 0 -27.65 27.61 27.63 27.63 0 0 0 27.65-27.61z" fill="#d4e1f4"/><path d="m105.63 400.42v47.13h-29.37a45.753 45.753 0 0 1 -45.7-45.8v-262.84a49.018 49.018 0 0 0 48.97 49.07h26.1z" fill="#b59f7c"/><path d="m60.56 184.161a49.081 49.081 0 0 1 -30-45.251v262.84a45.813 45.813 0 0 0 30.113 43.063z" fill="#968163"/><g fill="#f4f8fc"><path d="m68.894 345.389a6 6 0 0 1 -6-6v-105.572a6 6 0 1 1 12 0v105.572a6 6 0 0 1 -6 6z"/><path d="m68.894 222.167a6 6 0 0 1 -6-6v-4.614a6 6 0 1 1 12 0v4.614a6 6 0 0 1 -6 6z"/></g></svg>