<?xml version="1.0" encoding="UTF-8" standalone="no"?>
<!-- Created with Inkscape (http://www.inkscape.org/) -->

<svg
   xmlns:dc="http://purl.org/dc/elements/1.1/"
   xmlns:cc="http://creativecommons.org/ns#"
   xmlns:rdf="http://www.w3.org/1999/02/22-rdf-syntax-ns#"
   xmlns:svg="http://www.w3.org/2000/svg"
   xmlns="http://www.w3.org/2000/svg"
   xmlns:sodipodi="http://sodipodi.sourceforge.net/DTD/sodipodi-0.dtd"
   xmlns:inkscape="http://www.inkscape.org/namespaces/inkscape"
   width="1600"
   height="900"
   viewBox="0 0 1599.9999 899.99999"
   id="svg2"
   version="1.1"
   inkscape:version="0.91 r13725"
   sodipodi:docname="background.svg"
   inkscape:export-filename="/home/jeroen/Documents/2017/assets/background.png"
   inkscape:export-xdpi="90"
   inkscape:export-ydpi="90">
  <defs
     id="defs4" />
  <sodipodi:namedview
     id="base"
     pagecolor="#ffffff"
     bordercolor="#666666"
     borderopacity="1.0"
     inkscape:pageopacity="0.0"
     inkscape:pageshadow="2"
     inkscape:zoom="2.8"
     inkscape:cx="884.13771"
     inkscape:cy="820.38035"
     inkscape:document-units="px"
     inkscape:current-layer="layer1"
     showgrid="false"
     units="px"
     inkscape:snap-bbox="true"
     inkscape:bbox-paths="true"
     inkscape:bbox-nodes="true"
     inkscape:snap-bbox-edge-midpoints="true"
     inkscape:snap-bbox-midpoints="true"
     inkscape:object-paths="true"
     inkscape:snap-intersection-paths="true"
     inkscape:object-nodes="true"
     inkscape:snap-smooth-nodes="true"
     inkscape:snap-midpoints="true"
     inkscape:window-width="1600"
     inkscape:window-height="846"
     inkscape:window-x="0"
     inkscape:window-y="0"
     inkscape:window-maximized="1"
     inkscape:snap-global="true"
     showguides="false" />
  <metadata
     id="metadata7">
    <rdf:RDF>
      <cc:Work
         rdf:about="">
        <dc:format>image/svg+xml</dc:format>
        <dc:type
           rdf:resource="http://purl.org/dc/dcmitype/StillImage" />
        <dc:title></dc:title>
      </cc:Work>
    </rdf:RDF>
  </metadata>
  <g
     inkscape:label="Layer 1"
     inkscape:groupmode="layer"
     id="layer1"
     transform="translate(0,-152.36202)">
    <rect
       y="691.23199"
       x="-6.1035156e-05"
       height="361.13004"
       width="1600.0817"
       id="rect4413"
       style="opacity:1;fill:#e6e6e6;fill-opacity:1;stroke:none;stroke-width:1.76999998;stroke-linecap:square;stroke-linejoin:miter;stroke-miterlimit:4;stroke-dasharray:none;stroke-dashoffset:0;stroke-opacity:1" />
    <rect
       style="opacity:1;fill:#75acff;fill-opacity:1;stroke:none;stroke-width:1.76999998;stroke-linecap:square;stroke-linejoin:miter;stroke-miterlimit:4;stroke-dasharray:none;stroke-dashoffset:0;stroke-opacity:1"
       id="rect4411"
       width="1600.082"
       height="539.30957"
       x="-6.1035156e-05"
       y="151.92244" />
    <circle
       r="145.46196"
       cy="482.63602"
       cx="307.0864"
       id="circle4407"
       style="opacity:0.2;fill:#fef66d;fill-opacity:1;stroke:none;stroke-width:1.76999998;stroke-linecap:square;stroke-linejoin:miter;stroke-miterlimit:4;stroke-dasharray:none;stroke-dashoffset:0;stroke-opacity:1" />
    <path
       style="opacity:0.2;fill:#fef66d;fill-opacity:1;stroke:none;stroke-width:1.76999998;stroke-linecap:square;stroke-linejoin:miter;stroke-miterlimit:4;stroke-dasharray:none;stroke-dashoffset:0;stroke-opacity:1"
       id="circle4409"
       sodipodi:type="arc"
       sodipodi:cx="307.0864"
       sodipodi:cy="482.63602"
       sodipodi:rx="186.17624"
       sodipodi:ry="186.17624"
       sodipodi:start="0"
       sodipodi:end="6.0053454"
       d="M 493.26263,482.63602 A 186.17624,186.17624 0 0 1 320.0078,668.36332 186.17624,186.17624 0 0 1 122.70375,508.4165 186.17624,186.17624 0 0 1 268.57116,300.48726 186.17624,186.17624 0 0 1 486.1228,431.57178"
       sodipodi:open="true" />
    <circle
       style="opacity:1;fill:#fef66d;fill-opacity:1;stroke:none;stroke-width:1.76999998;stroke-linecap:square;stroke-linejoin:miter;stroke-miterlimit:4;stroke-dasharray:none;stroke-dashoffset:0;stroke-opacity:1"
       id="path4405"
       cx="307.0864"
       cy="482.63602"
       r="105.05586" />
    <g
       id="g4219"
       transform="matrix(1.3984011,0,0,1.3984011,-1041.9159,-110.8331)">
      <path
         sodipodi:nodetypes="cccc"
         inkscape:connector-curvature="0"
         id="path4221"
         d="m 1150.0586,413.94561 -75.5089,84.85281 153.0328,1.76777 z"
         style="fill:#ffffff;fill-opacity:1;fill-rule:evenodd;stroke:none;stroke-width:1px;stroke-linecap:butt;stroke-linejoin:miter;stroke-opacity:1" />
      <path
         inkscape:connector-curvature="0"
         id="path4223"
         d="m 1150.0586,413.94561 11.8693,42.67895 -20.9607,1.01015 -33.5876,28.03173 -32.8299,13.13198 124.4967,1.41238 -14.6426,-25.15096 -27.0216,12.62691 20.4556,-25.25382 -27.7792,-48.48732 z"
         style="opacity:0.1;fill:#000000;fill-rule:evenodd;stroke:none;stroke-width:1px;stroke-linecap:butt;stroke-linejoin:miter;stroke-opacity:1" />
      <path
         sodipodi:nodetypes="ccccc"
         inkscape:connector-curvature="0"
         id="path4225"
         d="m 1074.5497,498.79842 -67.4277,75.25637 286.1257,0 -65.6652,-73.4886 z"
         style="fill:#6b5353;fill-opacity:1;fill-rule:evenodd;stroke:none;stroke-width:1px;stroke-linecap:butt;stroke-linejoin:miter;stroke-opacity:1" />
      <path
         inkscape:connector-curvature="0"
         id="path4227"
         d="m 1081.7856,518.25488 -27.3214,55.79991 -25.7143,0 z"
         style="fill:#ffffff;fill-opacity:1;fill-rule:evenodd;stroke:none;stroke-width:1px;stroke-linecap:butt;stroke-linejoin:miter;stroke-opacity:1" />
      <path
         sodipodi:nodetypes="ccccccc"
         inkscape:connector-curvature="0"
         id="path4229"
         d="m 1150.0586,413.94561 27.7792,48.48732 -20.4556,25.25382 27.0216,-12.62691 58.2514,98.99495 50.5925,0 z"
         style="opacity:0.2;fill:#000000;fill-opacity:1;fill-rule:evenodd;stroke:none;stroke-width:1px;stroke-linecap:butt;stroke-linejoin:miter;stroke-opacity:1" />
    </g>
    <g
       transform="matrix(1.4843026,0,0,1.4843026,-1267.0007,-160.14527)"
       id="g4183">
      <path
         style="fill:#ffffff;fill-opacity:1;fill-rule:evenodd;stroke:none;stroke-width:1px;stroke-linecap:butt;stroke-linejoin:miter;stroke-opacity:1"
         d="m 1150.0586,413.94561 -75.5089,84.85281 153.0328,1.76777 z"
         id="path4185"
         inkscape:connector-curvature="0"
         sodipodi:nodetypes="cccc" />
      <path
         style="opacity:0.1;fill:#000000;fill-rule:evenodd;stroke:none;stroke-width:1px;stroke-linecap:butt;stroke-linejoin:miter;stroke-opacity:1"
         d="m 1150.0586,413.94561 11.8693,42.67895 -20.9607,1.01015 -33.5876,28.03173 -32.8299,13.13198 124.4967,1.41238 -14.6426,-25.15096 -27.0216,12.62691 20.4556,-25.25382 -27.7792,-48.48732 z"
         id="path4187"
         inkscape:connector-curvature="0" />
      <path
         style="fill:#6b5353;fill-opacity:1;fill-rule:evenodd;stroke:none;stroke-width:1px;stroke-linecap:butt;stroke-linejoin:miter;stroke-opacity:1"
         d="m 1074.5497,498.79842 -67.4277,75.25637 286.1257,0 -65.6652,-73.4886 z"
         id="path4189"
         inkscape:connector-curvature="0"
         sodipodi:nodetypes="ccccc" />
      <path
         style="fill:#ffffff;fill-opacity:1;fill-rule:evenodd;stroke:none;stroke-width:1px;stroke-linecap:butt;stroke-linejoin:miter;stroke-opacity:1"
         d="m 1081.7856,518.25488 -27.3214,55.79991 -25.7143,0 z"
         id="path4191"
         inkscape:connector-curvature="0" />
      <path
         style="opacity:0.2;fill:#000000;fill-opacity:1;fill-rule:evenodd;stroke:none;stroke-width:1px;stroke-linecap:butt;stroke-linejoin:miter;stroke-opacity:1"
         d="m 1150.0586,413.94561 27.7792,48.48732 -20.4556,25.25382 27.0216,-12.62691 58.2514,98.99495 50.5925,0 z"
         id="path4193"
         inkscape:connector-curvature="0"
         sodipodi:nodetypes="ccccccc" />
    </g>
    <g
       transform="matrix(1.3984011,0,0,1.3984011,-923.34449,-110.8331)"
       id="g4207">
      <path
         style="fill:#ffffff;fill-opacity:1;fill-rule:evenodd;stroke:none;stroke-width:1px;stroke-linecap:butt;stroke-linejoin:miter;stroke-opacity:1"
         d="m 1150.0586,413.94561 -75.5089,84.85281 153.0328,1.76777 z"
         id="path4209"
         inkscape:connector-curvature="0"
         sodipodi:nodetypes="cccc" />
      <path
         style="opacity:0.1;fill:#000000;fill-rule:evenodd;stroke:none;stroke-width:1px;stroke-linecap:butt;stroke-linejoin:miter;stroke-opacity:1"
         d="m 1150.0586,413.94561 11.8693,42.67895 -20.9607,1.01015 -33.5876,28.03173 -32.8299,13.13198 124.4967,1.41238 -14.6426,-25.15096 -27.0216,12.62691 20.4556,-25.25382 -27.7792,-48.48732 z"
         id="path4211"
         inkscape:connector-curvature="0" />
      <path
         style="fill:#6b5353;fill-opacity:1;fill-rule:evenodd;stroke:none;stroke-width:1px;stroke-linecap:butt;stroke-linejoin:miter;stroke-opacity:1"
         d="m 1074.5497,498.79842 -67.4277,75.25637 286.1257,0 -65.6652,-73.4886 z"
         id="path4213"
         inkscape:connector-curvature="0"
         sodipodi:nodetypes="ccccc" />
      <path
         style="fill:#ffffff;fill-opacity:1;fill-rule:evenodd;stroke:none;stroke-width:1px;stroke-linecap:butt;stroke-linejoin:miter;stroke-opacity:1"
         d="m 1081.7856,518.25488 -27.3214,55.79991 -25.7143,0 z"
         id="path4215"
         inkscape:connector-curvature="0" />
      <path
         style="opacity:0.2;fill:#000000;fill-opacity:1;fill-rule:evenodd;stroke:none;stroke-width:1px;stroke-linecap:butt;stroke-linejoin:miter;stroke-opacity:1"
         d="m 1150.0586,413.94561 27.7792,48.48732 -20.4556,25.25382 27.0216,-12.62691 58.2514,98.99495 50.5925,0 z"
         id="path4217"
         inkscape:connector-curvature="0"
         sodipodi:nodetypes="ccccccc" />
    </g>
    <g
       id="g4176"
       transform="translate(-897.01546,117.87096)">
      <path
         sodipodi:nodetypes="cccc"
         inkscape:connector-curvature="0"
         id="path4151"
         d="m 1150.0586,413.94561 -75.5089,84.85281 153.0328,1.76777 z"
         style="fill:#ffffff;fill-opacity:1;fill-rule:evenodd;stroke:none;stroke-width:1px;stroke-linecap:butt;stroke-linejoin:miter;stroke-opacity:1" />
      <path
         inkscape:connector-curvature="0"
         id="path4149"
         d="m 1150.0586,413.94561 11.8693,42.67895 -20.9607,1.01015 -33.5876,28.03173 -32.8299,13.13198 124.4967,1.41238 -14.6426,-25.15096 -27.0216,12.62691 20.4556,-25.25382 -27.7792,-48.48732 z"
         style="opacity:0.1;fill:#000000;fill-rule:evenodd;stroke:none;stroke-width:1px;stroke-linecap:butt;stroke-linejoin:miter;stroke-opacity:1" />
      <path
         sodipodi:nodetypes="ccccc"
         inkscape:connector-curvature="0"
         id="path4153"
         d="m 1074.5497,498.79842 -67.4277,75.25637 286.1257,0 -65.6652,-73.4886 z"
         style="fill:#6b5353;fill-opacity:1;fill-rule:evenodd;stroke:none;stroke-width:1px;stroke-linecap:butt;stroke-linejoin:miter;stroke-opacity:1" />
      <path
         inkscape:connector-curvature="0"
         id="path4155"
         d="m 1081.7856,518.25488 -27.3214,55.79991 -25.7143,0 z"
         style="fill:#ffffff;fill-opacity:1;fill-rule:evenodd;stroke:none;stroke-width:1px;stroke-linecap:butt;stroke-linejoin:miter;stroke-opacity:1" />
      <path
         sodipodi:nodetypes="ccccccc"
         inkscape:connector-curvature="0"
         id="path4147"
         d="m 1150.0586,413.94561 27.7792,48.48732 -20.4556,25.25382 27.0216,-12.62691 58.2514,98.99495 50.5925,0 z"
         style="opacity:0.2;fill:#000000;fill-opacity:1;fill-rule:evenodd;stroke:none;stroke-width:1px;stroke-linecap:butt;stroke-linejoin:miter;stroke-opacity:1" />
    </g>
    <g
       id="g4195"
       transform="matrix(1.0738684,0,0,1.0738684,-687.92907,75.466454)">
      <path
         sodipodi:nodetypes="cccc"
         inkscape:connector-curvature="0"
         id="path4197"
         d="m 1150.0586,413.94561 -75.5089,84.85281 153.0328,1.76777 z"
         style="fill:#ffffff;fill-opacity:1;fill-rule:evenodd;stroke:none;stroke-width:1px;stroke-linecap:butt;stroke-linejoin:miter;stroke-opacity:1" />
      <path
         inkscape:connector-curvature="0"
         id="path4199"
         d="m 1150.0586,413.94561 11.8693,42.67895 -20.9607,1.01015 -33.5876,28.03173 -32.8299,13.13198 124.4967,1.41238 -14.6426,-25.15096 -27.0216,12.62691 20.4556,-25.25382 -27.7792,-48.48732 z"
         style="opacity:0.1;fill:#000000;fill-rule:evenodd;stroke:none;stroke-width:1px;stroke-linecap:butt;stroke-linejoin:miter;stroke-opacity:1" />
      <path
         sodipodi:nodetypes="ccccc"
         inkscape:connector-curvature="0"
         id="path4201"
         d="m 1074.5497,498.79842 -67.4277,75.25637 286.1257,0 -65.6652,-73.4886 z"
         style="fill:#6b5353;fill-opacity:1;fill-rule:evenodd;stroke:none;stroke-width:1px;stroke-linecap:butt;stroke-linejoin:miter;stroke-opacity:1" />
      <path
         inkscape:connector-curvature="0"
         id="path4203"
         d="m 1081.7856,518.25488 -27.3214,55.79991 -25.7143,0 z"
         style="fill:#ffffff;fill-opacity:1;fill-rule:evenodd;stroke:none;stroke-width:1px;stroke-linecap:butt;stroke-linejoin:miter;stroke-opacity:1" />
      <path
         sodipodi:nodetypes="ccccccc"
         inkscape:connector-curvature="0"
         id="path4205"
         d="m 1150.0586,413.94561 27.7792,48.48732 -20.4556,25.25382 27.0216,-12.62691 58.2514,98.99495 50.5925,0 z"
         style="opacity:0.2;fill:#000000;fill-opacity:1;fill-rule:evenodd;stroke:none;stroke-width:1px;stroke-linecap:butt;stroke-linejoin:miter;stroke-opacity:1" />
    </g>
    <path
       style="opacity:0.2;fill:#000000;fill-opacity:1;fill-rule:evenodd;stroke:none;stroke-width:1px;stroke-linecap:butt;stroke-linejoin:miter;stroke-opacity:1"
       d="m 568.32273,889.65194 -180.0201,-104.78825 -25.3201,-14.6754 -23.4805,54.94945 -121.2841,-70.59659 -108.0265,-62.61457 149.8691,0 133.6133,0 372.9746,0 118.5723,0 -36.3869,85.50273 -43.0646,100.78099 -94.9546,-55.27119 -23.6157,55.27119 -91.282,-53.13431 -27.5942,64.57595 z"
       id="path4271"
       inkscape:connector-curvature="0"
       inkscape:transform-center-x="2.9446576"
       inkscape:transform-center-y="98.994948" />
    <g
       id="g4263"
       transform="matrix(0.42734662,0,0,0.42734662,-397.96687,338.52423)">
      <path
         inkscape:connector-curvature="0"
         id="path4231"
         d="m 1476.5904,851.34166 20.203,-25.25381 -8.3337,-0.25254 19.4454,-23.73858 -8.0812,0 21.7183,-26.76905 20.4556,26.51651 -8.5863,0 19.4454,23.48605 -6.8185,-0.25254 18.6878,26.76904 z"
         style="fill:#008081;fill-opacity:1;fill-rule:evenodd;stroke:none;stroke-width:1px;stroke-linecap:butt;stroke-linejoin:miter;stroke-opacity:1" />
      <path
         inkscape:connector-curvature="0"
         id="path4238"
         d="m 1521.108,851.72267 43.6817,0.25 -18.6875,-26.76954 6.8183,0.25391 -19.4453,-23.48633 8.5859,0 -20.455,-26.51758 -0.2989,0.36914 -0.1992,75.9004 z"
         style="opacity:0.2;fill:#000000;fill-rule:evenodd;stroke:none;stroke-width:1px;stroke-linecap:butt;stroke-linejoin:miter;stroke-opacity:1" />
      <path
         inkscape:connector-curvature="0"
         id="path4240"
         d="m 1514.1554,851.5942 0,15.02602 13.8265,0 0,-14.96288 z"
         style="fill:#79421f;fill-opacity:1;fill-rule:evenodd;stroke:none;stroke-width:1px;stroke-linecap:butt;stroke-linejoin:miter;stroke-opacity:1" />
      <path
         inkscape:connector-curvature="0"
         id="path4242"
         d="m 1521.1002,851.72047 0,15.02602 6.9448,0 0,-15.08915 z"
         style="opacity:0.2;fill:#000000;fill-rule:evenodd;stroke:none;stroke-width:1px;stroke-linecap:butt;stroke-linejoin:miter;stroke-opacity:1" />
    </g>
    <g
       transform="matrix(0.42734662,0,0,0.42734662,-192.90587,405.1943)"
       id="g4355">
      <path
         style="fill:#008081;fill-opacity:1;fill-rule:evenodd;stroke:none;stroke-width:1px;stroke-linecap:butt;stroke-linejoin:miter;stroke-opacity:1"
         d="m 1476.5904,851.34166 20.203,-25.25381 -8.3337,-0.25254 19.4454,-23.73858 -8.0812,0 21.7183,-26.76905 20.4556,26.51651 -8.5863,0 19.4454,23.48605 -6.8185,-0.25254 18.6878,26.76904 z"
         id="path4357"
         inkscape:connector-curvature="0" />
      <path
         style="opacity:0.2;fill:#000000;fill-rule:evenodd;stroke:none;stroke-width:1px;stroke-linecap:butt;stroke-linejoin:miter;stroke-opacity:1"
         d="m 1521.108,851.72267 43.6817,0.25 -18.6875,-26.76954 6.8183,0.25391 -19.4453,-23.48633 8.5859,0 -20.455,-26.51758 -0.2989,0.36914 -0.1992,75.9004 z"
         id="path4359"
         inkscape:connector-curvature="0" />
      <path
         style="fill:#79421f;fill-opacity:1;fill-rule:evenodd;stroke:none;stroke-width:1px;stroke-linecap:butt;stroke-linejoin:miter;stroke-opacity:1"
         d="m 1514.1554,851.5942 0,15.02602 13.8265,0 0,-14.96288 z"
         id="path4361"
         inkscape:connector-curvature="0" />
      <path
         style="opacity:0.2;fill:#000000;fill-rule:evenodd;stroke:none;stroke-width:1px;stroke-linecap:butt;stroke-linejoin:miter;stroke-opacity:1"
         d="m 1521.1002,851.72047 0,15.02602 6.9448,0 0,-15.08915 z"
         id="path4363"
         inkscape:connector-curvature="0" />
    </g>
    <g
       id="g4365"
       transform="matrix(0.42734662,0,0,0.42734662,-28.250973,362.76789)">
      <path
         inkscape:connector-curvature="0"
         id="path4367"
         d="m 1476.5904,851.34166 20.203,-25.25381 -8.3337,-0.25254 19.4454,-23.73858 -8.0812,0 21.7183,-26.76905 20.4556,26.51651 -8.5863,0 19.4454,23.48605 -6.8185,-0.25254 18.6878,26.76904 z"
         style="fill:#008081;fill-opacity:1;fill-rule:evenodd;stroke:none;stroke-width:1px;stroke-linecap:butt;stroke-linejoin:miter;stroke-opacity:1" />
      <path
         inkscape:connector-curvature="0"
         id="path4369"
         d="m 1521.108,851.72267 43.6817,0.25 -18.6875,-26.76954 6.8183,0.25391 -19.4453,-23.48633 8.5859,0 -20.455,-26.51758 -0.2989,0.36914 -0.1992,75.9004 z"
         style="opacity:0.2;fill:#000000;fill-rule:evenodd;stroke:none;stroke-width:1px;stroke-linecap:butt;stroke-linejoin:miter;stroke-opacity:1" />
      <path
         inkscape:connector-curvature="0"
         id="path4371"
         d="m 1514.1554,851.5942 0,15.02602 13.8265,0 0,-14.96288 z"
         style="fill:#79421f;fill-opacity:1;fill-rule:evenodd;stroke:none;stroke-width:1px;stroke-linecap:butt;stroke-linejoin:miter;stroke-opacity:1" />
      <path
         inkscape:connector-curvature="0"
         id="path4373"
         d="m 1521.1002,851.72047 0,15.02602 6.9448,0 0,-15.08915 z"
         style="opacity:0.2;fill:#000000;fill-rule:evenodd;stroke:none;stroke-width:1px;stroke-linecap:butt;stroke-linejoin:miter;stroke-opacity:1" />
    </g>
    <g
       transform="matrix(0.42734662,0,0,0.42734662,82.865827,412.26536)"
       id="g4375">
      <path
         style="fill:#008081;fill-opacity:1;fill-rule:evenodd;stroke:none;stroke-width:1px;stroke-linecap:butt;stroke-linejoin:miter;stroke-opacity:1"
         d="m 1476.5904,851.34166 20.203,-25.25381 -8.3337,-0.25254 19.4454,-23.73858 -8.0812,0 21.7183,-26.76905 20.4556,26.51651 -8.5863,0 19.4454,23.48605 -6.8185,-0.25254 18.6878,26.76904 z"
         id="path4377"
         inkscape:connector-curvature="0" />
      <path
         style="opacity:0.2;fill:#000000;fill-rule:evenodd;stroke:none;stroke-width:1px;stroke-linecap:butt;stroke-linejoin:miter;stroke-opacity:1"
         d="m 1521.108,851.72267 43.6817,0.25 -18.6875,-26.76954 6.8183,0.25391 -19.4453,-23.48633 8.5859,0 -20.455,-26.51758 -0.2989,0.36914 -0.1992,75.9004 z"
         id="path4379"
         inkscape:connector-curvature="0" />
      <path
         style="fill:#79421f;fill-opacity:1;fill-rule:evenodd;stroke:none;stroke-width:1px;stroke-linecap:butt;stroke-linejoin:miter;stroke-opacity:1"
         d="m 1514.1554,851.5942 0,15.02602 13.8265,0 0,-14.96288 z"
         id="path4381"
         inkscape:connector-curvature="0" />
      <path
         style="opacity:0.2;fill:#000000;fill-rule:evenodd;stroke:none;stroke-width:1px;stroke-linecap:butt;stroke-linejoin:miter;stroke-opacity:1"
         d="m 1521.1002,851.72047 0,15.02602 6.9448,0 0,-15.08915 z"
         id="path4383"
         inkscape:connector-curvature="0" />
    </g>
    <g
       id="g4385"
       transform="matrix(0.42734662,0,0,0.42734662,-48.453973,435.49887)">
      <path
         inkscape:connector-curvature="0"
         id="path4387"
         d="m 1476.5904,851.34166 20.203,-25.25381 -8.3337,-0.25254 19.4454,-23.73858 -8.0812,0 21.7183,-26.76905 20.4556,26.51651 -8.5863,0 19.4454,23.48605 -6.8185,-0.25254 18.6878,26.76904 z"
         style="fill:#008081;fill-opacity:1;fill-rule:evenodd;stroke:none;stroke-width:1px;stroke-linecap:butt;stroke-linejoin:miter;stroke-opacity:1" />
      <path
         inkscape:connector-curvature="0"
         id="path4389"
         d="m 1521.108,851.72267 43.6817,0.25 -18.6875,-26.76954 6.8183,0.25391 -19.4453,-23.48633 8.5859,0 -20.455,-26.51758 -0.2989,0.36914 -0.1992,75.9004 z"
         style="opacity:0.2;fill:#000000;fill-rule:evenodd;stroke:none;stroke-width:1px;stroke-linecap:butt;stroke-linejoin:miter;stroke-opacity:1" />
      <path
         inkscape:connector-curvature="0"
         id="path4391"
         d="m 1514.1554,851.5942 0,15.02602 13.8265,0 0,-14.96288 z"
         style="fill:#79421f;fill-opacity:1;fill-rule:evenodd;stroke:none;stroke-width:1px;stroke-linecap:butt;stroke-linejoin:miter;stroke-opacity:1" />
      <path
         inkscape:connector-curvature="0"
         id="path4393"
         d="m 1521.1002,851.72047 0,15.02602 6.9448,0 0,-15.08915 z"
         style="opacity:0.2;fill:#000000;fill-rule:evenodd;stroke:none;stroke-width:1px;stroke-linecap:butt;stroke-linejoin:miter;stroke-opacity:1" />
    </g>
    <g
       transform="matrix(0.42734662,0,0,0.42734662,100.03843,349.6359)"
       id="g4395">
      <path
         style="fill:#008081;fill-opacity:1;fill-rule:evenodd;stroke:none;stroke-width:1px;stroke-linecap:butt;stroke-linejoin:miter;stroke-opacity:1"
         d="m 1476.5904,851.34166 20.203,-25.25381 -8.3337,-0.25254 19.4454,-23.73858 -8.0812,0 21.7183,-26.76905 20.4556,26.51651 -8.5863,0 19.4454,23.48605 -6.8185,-0.25254 18.6878,26.76904 z"
         id="path4397"
         inkscape:connector-curvature="0" />
      <path
         style="opacity:0.2;fill:#000000;fill-rule:evenodd;stroke:none;stroke-width:1px;stroke-linecap:butt;stroke-linejoin:miter;stroke-opacity:1"
         d="m 1521.108,851.72267 43.6817,0.25 -18.6875,-26.76954 6.8183,0.25391 -19.4453,-23.48633 8.5859,0 -20.455,-26.51758 -0.2989,0.36914 -0.1992,75.9004 z"
         id="path4399"
         inkscape:connector-curvature="0" />
      <path
         style="fill:#79421f;fill-opacity:1;fill-rule:evenodd;stroke:none;stroke-width:1px;stroke-linecap:butt;stroke-linejoin:miter;stroke-opacity:1"
         d="m 1514.1554,851.5942 0,15.02602 13.8265,0 0,-14.96288 z"
         id="path4401"
         inkscape:connector-curvature="0" />
      <path
         style="opacity:0.2;fill:#000000;fill-rule:evenodd;stroke:none;stroke-width:1px;stroke-linecap:butt;stroke-linejoin:miter;stroke-opacity:1"
         d="m 1521.1002,851.72047 0,15.02602 6.9448,0 0,-15.08915 z"
         id="path4403"
         inkscape:connector-curvature="0" />
    </g>
    <g
       id="g4415"
       transform="matrix(1.2229267,0,0,1.2229267,-1651.2341,-137.89981)">
      <path
         inkscape:connector-curvature="0"
         id="path4417"
         d="m 1476.5904,851.34166 20.203,-25.25381 -8.3337,-0.25254 19.4454,-23.73858 -8.0812,0 21.7183,-26.76905 20.4556,26.51651 -8.5863,0 19.4454,23.48605 -6.8185,-0.25254 18.6878,26.76904 z"
         style="fill:#008081;fill-opacity:1;fill-rule:evenodd;stroke:none;stroke-width:1px;stroke-linecap:butt;stroke-linejoin:miter;stroke-opacity:1" />
      <path
         inkscape:connector-curvature="0"
         id="path4419"
         d="m 1521.108,851.72267 43.6817,0.25 -18.6875,-26.76954 6.8183,0.25391 -19.4453,-23.48633 8.5859,0 -20.455,-26.51758 -0.2989,0.36914 -0.1992,75.9004 z"
         style="opacity:0.2;fill:#000000;fill-rule:evenodd;stroke:none;stroke-width:1px;stroke-linecap:butt;stroke-linejoin:miter;stroke-opacity:1" />
      <path
         inkscape:connector-curvature="0"
         id="path4421"
         d="m 1514.1554,851.5942 0,15.02602 13.8265,0 0,-14.96288 z"
         style="fill:#79421f;fill-opacity:1;fill-rule:evenodd;stroke:none;stroke-width:1px;stroke-linecap:butt;stroke-linejoin:miter;stroke-opacity:1" />
      <path
         inkscape:connector-curvature="0"
         id="path4423"
         d="m 1521.1002,851.72047 0,15.02602 6.9448,0 0,-15.08915 z"
         style="opacity:0.2;fill:#000000;fill-rule:evenodd;stroke:none;stroke-width:1px;stroke-linecap:butt;stroke-linejoin:miter;stroke-opacity:1" />
    </g>
    <path
       style="opacity:0.2;fill:#000000;fill-opacity:1;fill-rule:evenodd;stroke:none;stroke-width:1px;stroke-linecap:butt;stroke-linejoin:miter;stroke-opacity:1"
       d="m 208.93893,921.75153 -8.4402,0.10639 6.1409,12.58867 -45.836,0.21282 35.0284,21.15843 -10.0882,0.21152 33.4815,19.8893 -9.8809,0 37.4996,22.42881 14.1778,-22.21729 -0.041,0 0.067,-0.10639 -10.4492,0 14.1052,-19.57139 -0.054,10e-4 0.078,-0.10764 -8.2054,0.21153 11.857,-22.32243 -0.029,0 0.056,-0.10513 -44.8501,0.17523 -6.1238,-12.55363 -8.4941,0 z"
       id="path4427"
       inkscape:connector-curvature="0"
       inkscape:transform-center-y="36.250339"
       inkscape:transform-center-x="-5.168261"
       sodipodi:nodetypes="cccccccccccccccccccccccc" />
    <path
       style="fill:#ffffff;fill-rule:evenodd;stroke:none;stroke-width:1px;stroke-linecap:butt;stroke-linejoin:miter;stroke-opacity:1"
       d="m 3441.5896,1377.126 128.2894,0.5051 c 19.2306,-7.7805 30.4272,-19.8458 9.5964,-48.9924 1.067,-19.5248 -4.592,-31.651 -30.3045,-21.7183 1.5971,-4.9463 -21.6628,-24.0769 -44.9518,-5.5558 -30.81,-23.0947 -70.0668,-8.3501 -69.7005,24.2437 -27.8312,19.8042 -12.083,53.4892 7.071,51.5177 z"
       id="path4440"
       inkscape:connector-curvature="0"
       sodipodi:nodetypes="ccccccc" />
    <path
       style="fill:#000000;fill-rule:evenodd;stroke:none;stroke-width:0.74009097px;stroke-linecap:butt;stroke-linejoin:miter;stroke-opacity:1;opacity:0.2"
       d="M 3420.4648 1207.2578 C 3420.8174 1208.5576 3421.2511 1209.8187 3421.7695 1211.0254 C 3422.2998 1212.2595 3422.9133 1213.438 3423.5977 1214.5508 C 3424.282 1215.6636 3425.0385 1216.7105 3425.8574 1217.6777 C 3426.6763 1218.645 3427.5565 1219.5325 3428.4902 1220.3301 C 3429.424 1221.1276 3430.4104 1221.8358 3431.4395 1222.4395 C 3432.4685 1223.0431 3433.5399 1223.5422 3434.6445 1223.9277 C 3435.7492 1224.3133 3436.8881 1224.5853 3438.0488 1224.7285 C 3439.2095 1224.8718 3440.3927 1224.8869 3441.5898 1224.7637 L 3569.8789 1225.2695 C 3572.2827 1224.297 3574.5621 1223.2565 3576.668 1222.125 C 3578.7739 1220.9935 3580.7057 1219.77 3582.4199 1218.4297 C 3584.1342 1217.0894 3585.6305 1215.6324 3586.8594 1214.0332 C 3587.4738 1213.2336 3588.0206 1212.3991 3588.4961 1211.5254 C 3588.9391 1210.7114 3589.3065 1209.8562 3589.6191 1208.9727 C 3588.0486 1206.0331 3584.8374 1202.6165 3579.5879 1198.6055 C 3580.6565 1187.9272 3574.9898 1181.2944 3549.2383 1186.7266 C 3550.8379 1184.0214 3527.5431 1173.5602 3504.2188 1183.6895 C 3473.3621 1171.0589 3434.0452 1179.1216 3434.4121 1196.9473 C 3426.5923 1199.9859 3422.3027 1203.6224 3420.4648 1207.2578 z "
       id="path4442"
       transform="translate(-6.1035156e-5,152.36202)" />
    <g
       id="g4453"
       transform="translate(-191.92898,-209.10158)">
      <path
         style="fill:#ffffff;fill-rule:evenodd;stroke:none;stroke-width:1px;stroke-linecap:butt;stroke-linejoin:miter;stroke-opacity:1"
         d="m 1129.0575,606.65324 128.2894,0.5051 c 19.2306,-7.7805 30.4272,-19.8458 9.5964,-48.9924 1.067,-19.5248 -4.592,-31.651 -30.3045,-21.7183 1.5971,-4.9463 -21.6628,-24.0769 -44.9518,-5.5558 -30.81,-23.0947 -70.0668,-8.3501 -69.7005,24.2437 -27.8312,19.8042 -12.083,53.4892 7.071,51.5177 z"
         id="path4449"
         inkscape:connector-curvature="0"
         sodipodi:nodetypes="ccccccc" />
      <path
         inkscape:connector-curvature="0"
         style="opacity:0.2;fill:#000000;fill-rule:evenodd;stroke:none;stroke-width:0.74009097px;stroke-linecap:butt;stroke-linejoin:miter;stroke-opacity:1"
         d="m 1107.9326,589.14704 c 0.3526,1.2998 0.7863,2.5609 1.3047,3.7676 0.5303,1.2341 1.1438,2.4126 1.8282,3.5254 0.6843,1.1128 1.4408,2.1597 2.2597,3.1269 0.8189,0.9673 1.6991,1.8548 2.6328,2.6524 0.9338,0.7975 1.9202,1.5057 2.9493,2.1094 1.029,0.6036 2.1004,1.1027 3.205,1.4882 1.1047,0.3856 2.2436,0.6576 3.4043,0.8008 1.1607,0.1433 2.3439,0.1584 3.541,0.035 l 128.2891,0.5058 c 2.4038,-0.9725 4.6832,-2.013 6.7891,-3.1445 2.1059,-1.1315 4.0377,-2.355 5.7519,-3.6953 1.7143,-1.3403 3.2106,-2.7973 4.4395,-4.3965 0.6144,-0.7996 1.1612,-1.6341 1.6367,-2.5078 0.443,-0.814 0.8104,-1.6692 1.123,-2.5527 -1.5705,-2.9396 -4.7817,-6.3562 -10.0312,-10.3672 1.0686,-10.6783 -4.5981,-17.3111 -30.3496,-11.8789 1.5996,-2.7052 -21.6952,-13.1664 -45.0195,-3.0371 -30.8567,-12.6306 -70.1736,-4.5679 -69.8067,13.2578 -7.8198,3.0386 -12.1094,6.6751 -13.9473,10.3105 z"
         id="path4451" />
    </g>
    <g
       transform="translate(85.86297,-127.27922)"
       id="g4457">
      <path
         sodipodi:nodetypes="ccccccc"
         inkscape:connector-curvature="0"
         id="path4459"
         d="m 1129.0575,606.65324 128.2894,0.5051 c 19.2306,-7.7805 30.4272,-19.8458 9.5964,-48.9924 1.067,-19.5248 -4.592,-31.651 -30.3045,-21.7183 1.5971,-4.9463 -21.6628,-24.0769 -44.9518,-5.5558 -30.81,-23.0947 -70.0668,-8.3501 -69.7005,24.2437 -27.8312,19.8042 -12.083,53.4892 7.071,51.5177 z"
         style="fill:#ffffff;fill-rule:evenodd;stroke:none;stroke-width:1px;stroke-linecap:butt;stroke-linejoin:miter;stroke-opacity:1" />
      <path
         id="path4461"
         d="m 1107.9326,589.14704 c 0.3526,1.2998 0.7863,2.5609 1.3047,3.7676 0.5303,1.2341 1.1438,2.4126 1.8282,3.5254 0.6843,1.1128 1.4408,2.1597 2.2597,3.1269 0.8189,0.9673 1.6991,1.8548 2.6328,2.6524 0.9338,0.7975 1.9202,1.5057 2.9493,2.1094 1.029,0.6036 2.1004,1.1027 3.205,1.4882 1.1047,0.3856 2.2436,0.6576 3.4043,0.8008 1.1607,0.1433 2.3439,0.1584 3.541,0.035 l 128.2891,0.5058 c 2.4038,-0.9725 4.6832,-2.013 6.7891,-3.1445 2.1059,-1.1315 4.0377,-2.355 5.7519,-3.6953 1.7143,-1.3403 3.2106,-2.7973 4.4395,-4.3965 0.6144,-0.7996 1.1612,-1.6341 1.6367,-2.5078 0.443,-0.814 0.8104,-1.6692 1.123,-2.5527 -1.5705,-2.9396 -4.7817,-6.3562 -10.0312,-10.3672 1.0686,-10.6783 -4.5981,-17.3111 -30.3496,-11.8789 1.5996,-2.7052 -21.6952,-13.1664 -45.0195,-3.0371 -30.8567,-12.6306 -70.1736,-4.5679 -69.8067,13.2578 -7.8198,3.0386 -12.1094,6.6751 -13.9473,10.3105 z"
         style="opacity:0.2;fill:#000000;fill-rule:evenodd;stroke:none;stroke-width:0.74009097px;stroke-linecap:butt;stroke-linejoin:miter;stroke-opacity:1"
         inkscape:connector-curvature="0" />
    </g>
    <g
       id="g4463"
       transform="translate(261.62951,-241.42646)">
      <path
         style="fill:#ffffff;fill-rule:evenodd;stroke:none;stroke-width:1px;stroke-linecap:butt;stroke-linejoin:miter;stroke-opacity:1"
         d="m 1129.0575,606.65324 128.2894,0.5051 c 19.2306,-7.7805 30.4272,-19.8458 9.5964,-48.9924 1.067,-19.5248 -4.592,-31.651 -30.3045,-21.7183 1.5971,-4.9463 -21.6628,-24.0769 -44.9518,-5.5558 -30.81,-23.0947 -70.0668,-8.3501 -69.7005,24.2437 -27.8312,19.8042 -12.083,53.4892 7.071,51.5177 z"
         id="path4465"
         inkscape:connector-curvature="0"
         sodipodi:nodetypes="ccccccc" />
      <path
         inkscape:connector-curvature="0"
         style="opacity:0.2;fill:#000000;fill-rule:evenodd;stroke:none;stroke-width:0.74009097px;stroke-linecap:butt;stroke-linejoin:miter;stroke-opacity:1"
         d="m 1107.9326,589.14704 c 0.3526,1.2998 0.7863,2.5609 1.3047,3.7676 0.5303,1.2341 1.1438,2.4126 1.8282,3.5254 0.6843,1.1128 1.4408,2.1597 2.2597,3.1269 0.8189,0.9673 1.6991,1.8548 2.6328,2.6524 0.9338,0.7975 1.9202,1.5057 2.9493,2.1094 1.029,0.6036 2.1004,1.1027 3.205,1.4882 1.1047,0.3856 2.2436,0.6576 3.4043,0.8008 1.1607,0.1433 2.3439,0.1584 3.541,0.035 l 128.2891,0.5058 c 2.4038,-0.9725 4.6832,-2.013 6.7891,-3.1445 2.1059,-1.1315 4.0377,-2.355 5.7519,-3.6953 1.7143,-1.3403 3.2106,-2.7973 4.4395,-4.3965 0.6144,-0.7996 1.1612,-1.6341 1.6367,-2.5078 0.443,-0.814 0.8104,-1.6692 1.123,-2.5527 -1.5705,-2.9396 -4.7817,-6.3562 -10.0312,-10.3672 1.0686,-10.6783 -4.5981,-17.3111 -30.3496,-11.8789 1.5996,-2.7052 -21.6952,-13.1664 -45.0195,-3.0371 -30.8567,-12.6306 -70.1736,-4.5679 -69.8067,13.2578 -7.8198,3.0386 -12.1094,6.6751 -13.9473,10.3105 z"
         id="path4467" />
    </g>
  </g>
</svg>
