<?xml version="1.0" encoding="UTF-8" standalone="no"?>
<!-- Created with Inkscape (http://www.inkscape.org/) -->

<svg
   xmlns:dc="http://purl.org/dc/elements/1.1/"
   xmlns:cc="http://creativecommons.org/ns#"
   xmlns:rdf="http://www.w3.org/1999/02/22-rdf-syntax-ns#"
   xmlns:svg="http://www.w3.org/2000/svg"
   xmlns="http://www.w3.org/2000/svg"
   xmlns:sodipodi="http://sodipodi.sourceforge.net/DTD/sodipodi-0.dtd"
   xmlns:inkscape="http://www.inkscape.org/namespaces/inkscape"
   width="910.54498"
   height="486.92001"
   viewBox="0 0 910.54499 486.92002"
   id="svg4149"
   version="1.1"
   inkscape:version="0.91 r13725"
   sodipodi:docname="logo.svg">
  <defs
     id="defs4151" />
  <sodipodi:namedview
     id="base"
     pagecolor="#787878"
     bordercolor="#666666"
     borderopacity="1.0"
     inkscape:pageopacity="0"
     inkscape:pageshadow="2"
     inkscape:zoom="0.7"
     inkscape:cx="294.02007"
     inkscape:cy="141.66238"
     inkscape:document-units="px"
     inkscape:current-layer="layer1"
     showgrid="false"
     fit-margin-top="5"
     fit-margin-left="5"
     fit-margin-right="5"
     fit-margin-bottom="5"
     units="px"
     inkscape:window-width="1600"
     inkscape:window-height="831"
     inkscape:window-x="0"
     inkscape:window-y="0"
     inkscape:window-maximized="1" />
  <metadata
     id="metadata4154">
    <rdf:RDF>
      <cc:Work
         rdf:about="">
        <dc:format>image/svg+xml</dc:format>
        <dc:type
           rdf:resource="http://purl.org/dc/dcmitype/StillImage" />
        <dc:title></dc:title>
      </cc:Work>
    </rdf:RDF>
  </metadata>
  <g
     inkscape:label="Layer 1"
     inkscape:groupmode="layer"
     id="layer1"
     transform="translate(-144.72813,-423.20136)">
    <path
       style="opacity:1;fill:#ffffff;fill-opacity:1;fill-rule:nonzero;stroke:none;stroke-width:500;stroke-linecap:square;stroke-linejoin:miter;stroke-miterlimit:4;stroke-dasharray:none;stroke-dashoffset:0;stroke-opacity:1"
       d="m 712.17313,477.02136 -19.168,48.83 -445.614,0 0,68.95 -48.831,0 0,261.48 364.745,0 19.141,-48.76 370.15297,0 0,-68.95 48.818,0 0,-261.55 z m 289.24397,261.55 c -571.12598,114.36668 -285.56299,57.18334 0,0 z m -735.00097,-193.63 145.55,0 0,164.72 c 0,25.69 -7.462,45.7 -22.389,60.05 -14.93,14.38 -35.513,21.55 -61.753,21.55 -33.136,0 -61.015,-12.94 -83.635,-38.85 l 28.5,-41.38 c 8.37,8.83 17.078,15.56 26.126,20.18 9.161,4.66 17.47299,6.96 24.936,6.96 8.37,0 14.762,-2.55 19.172,-7.65 4.525,-5.07 6.788,-12.47 6.788,-22.22 l 0,-113.32 -83.295,0 z m 165.061,0.34 65.989,0 62.262,178.98 62.086,-178.98 63.617,0 -95.509,243.28 -63.956,0 z m 277.703,0 61.92,0 0,100.09 100.76897,0 0,-100.09 61.746,0 0,243.28 -61.746,0 0,-94.5 -100.76897,0 0,94.5 -61.92,0 z"
       id="rect4392-6-7-3"
       inkscape:connector-curvature="0"
       sodipodi:nodetypes="cccccccccccccccccscscccscscccccccccccccccccccccccc" />
    <path
       inkscape:connector-curvature="0"
       id="path4586"
       d="m 149.72813,428.20136 0,117.78 48.832,0 0,-68.96 445.626,0 19.171,-48.82 -389.964,0 z"
       style="opacity:1;fill:#ffffff;fill-opacity:1;fill-rule:evenodd;stroke:none;stroke-width:1px;stroke-linecap:butt;stroke-linejoin:miter;stroke-opacity:1"
       sodipodi:nodetypes="cccccccc" />
    <path
       sodipodi:nodetypes="cccccccc"
       style="opacity:1;fill:#ffffff;fill-opacity:1;fill-rule:evenodd;stroke:none;stroke-width:1px;stroke-linecap:butt;stroke-linejoin:miter;stroke-opacity:1"
       d="m 1050.2731,905.12136 0,-117.78 -48.832,0 0,68.96 -370.16698,0 -19.171,48.82 314.50298,0 z"
       id="path4588"
       inkscape:connector-curvature="0" />
  </g>
</svg>
