<svg width="1600" height="807" xmlns="http://www.w3.org/2000/svg"><g><path d="M-28.967602662742138,-22.48962820507586L-70.81902667880058,40.744489934295416L31.040705339983106,81.81274255737662Z" fill="#f5fcf2" stroke="#f5fcf2"></path><path d="M-28.967602662742138,-22.48962820507586L31.040705339983106,81.81274255737662L84.35676083900034,-68.84279326535761Z" fill="#f4fbf2" stroke="#f4fbf2"></path><path d="M84.35676083900034,-68.84279326535761L31.040705339983106,81.81274255737662L256.4396474696696,22.29381423443556Z" fill="#ebf8e8" stroke="#ebf8e8"></path><path d="M84.35676083900034,-68.84279326535761L256.4396474696696,22.29381423443556L173.03411403670907,-92.52414501272142Z" fill="#e9f6e6" stroke="#e9f6e6"></path><path d="M173.03411403670907,-92.52414501272142L256.4396474696696,22.29381423443556L422.4691943451762,-35.61217996291816Z" fill="#e0f3dc" stroke="#e0f3dc"></path><path d="M173.03411403670907,-92.52414501272142L422.4691943451762,-35.61217996291816L528.5520209278911,-90.55315906181931Z" fill="#d7efd4" stroke="#d7efd4"></path><path d="M173.03411403670907,-92.52414501272142L528.5520209278911,-90.55315906181931L619.6843258291483,-94.83583588153124Z" fill="#d0ecce" stroke="#d0ecce"></path><path d="M173.03411403670907,-92.52414501272142L619.6843258291483,-94.83583588153124L1558.1458244193345,-127.41508416831493Z" fill="#abdab3" stroke="#abdab3"></path><path d="M422.4691943451762,-35.61217996291816L256.4396474696696,22.29381423443556L407.1457553934306,47.36111322417855Z" fill="#d7f0d4" stroke="#d7f0d4"></path><path d="M422.4691943451762,-35.61217996291816L407.1457553934306,47.36111322417855L569.1651153657585,111.78192498162389Z" fill="#c9eac6" stroke="#c9eac6"></path><path d="M422.4691943451762,-35.61217996291816L569.1651153657585,111.78192498162389L528.5520209278911,-90.55315906181931Z" fill="#c8e8c7" stroke="#c8e8c7"></path><path d="M528.5520209278911,-90.55315906181931L569.1651153657585,111.78192498162389L619.6843258291483,-94.83583588153124Z" fill="#c1e5c1" stroke="#c1e5c1"></path><path d="M619.6843258291483,-94.83583588153124L569.1651153657585,111.78192498162389L672.2096642665565,110.67825419828296Z" fill="#b7e3b7" stroke="#b7e3b7"></path><path d="M619.6843258291483,-94.83583588153124L672.2096642665565,110.67825419828296L826.8832265306264,57.38841611891985Z" fill="#b0deb4" stroke="#b0deb4"></path><path d="M619.6843258291483,-94.83583588153124L826.8832265306264,57.38841611891985L852.9917496163398,-18.1734277959913Z" fill="#addbb4" stroke="#addbb4"></path><path d="M619.6843258291483,-94.83583588153124L852.9917496163398,-18.1734277959913L1001.8666485138237,-53.997863586992025Z" fill="#a6d8b1" stroke="#a6d8b1"></path><path d="M619.6843258291483,-94.83583588153124L1001.8666485138237,-53.997863586992025L1128.9126363303512,-104.28483475930989Z" fill="#9dd3ac" stroke="#9dd3ac"></path><path d="M619.6843258291483,-94.83583588153124L1128.9126363303512,-104.28483475930989L1558.1458244193345,-127.41508416831493Z" fill="#8dc5a1" stroke="#8dc5a1"></path><path d="M852.9917496163398,-18.1734277959913L826.8832265306264,57.38841611891985L991.4581821765751,95.07242674939334Z" fill="#9bd5a7" stroke="#9bd5a7"></path><path d="M852.9917496163398,-18.1734277959913L991.4581821765751,95.07242674939334L1001.8666485138237,-53.997863586992025Z" fill="#98d2a9" stroke="#98d2a9"></path><path d="M1001.8666485138237,-53.997863586992025L991.4581821765751,95.07242674939334L1082.3666494712234,81.17710350081325Z" fill="#8fcca0" stroke="#8fcca0"></path><path d="M1001.8666485138237,-53.997863586992025L1082.3666494712234,81.17710350081325L1128.9126363303512,-104.28483475930989Z" fill="#90c8a3" stroke="#90c8a3"></path><path d="M1128.9126363303512,-104.28483475930989L1082.3666494712234,81.17710350081325L1216.5852057002485,55.36826513707638Z" fill="#89c29d" stroke="#89c29d"></path><path d="M1128.9126363303512,-104.28483475930989L1216.5852057002485,55.36826513707638L1231.777883162722,-56.339594861492515Z" fill="#86be9b" stroke="#86be9b"></path><path d="M1128.9126363303512,-104.28483475930989L1231.777883162722,-56.339594861492515L1368.942264430225,-76.13616839982569Z" fill="#83b998" stroke="#83b998"></path><path d="M1128.9126363303512,-104.28483475930989L1368.942264430225,-76.13616839982569L1558.1458244193345,-127.41508416831493Z" fill="#80b091" stroke="#80b091"></path><path d="M1231.777883162722,-56.339594861492515L1216.5852057002485,55.36826513707638L1368.942264430225,-76.13616839982569Z" fill="#80b796" stroke="#80b796"></path><path d="M1368.942264430225,-76.13616839982569L1216.5852057002485,55.36826513707638L1479.5209531579167,83.88058257289231Z" fill="#7eb08f" stroke="#7eb08f"></path><path d="M1368.942264430225,-76.13616839982569L1479.5209531579167,83.88058257289231L1558.1458244193345,-127.41508416831493Z" fill="#80a68a" stroke="#80a68a"></path><path d="M1558.1458244193345,-127.41508416831493L1479.5209531579167,83.88058257289231L1608.9550140313804,121.88873958773911Z" fill="#7da081" stroke="#7da081"></path><path d="M1558.1458244193345,-127.41508416831493L1608.9550140313804,121.88873958773911L1732.2836879454553,90.69801754318178Z" fill="#7d987c" stroke="#7d987c"></path><path d="M1558.1458244193345,-127.41508416831493L1732.2836879454553,90.69801754318178L1783.637922015041,-66.27990092150867Z" fill="#809480" stroke="#809480"></path><path d="M1783.637922015041,-66.27990092150867L1732.2836879454553,90.69801754318178L1738.2474151812494,227.50171246938407Z" fill="#778e75" stroke="#778e75"></path><path d="M1783.637922015041,-66.27990092150867L1738.2474151812494,227.50171246938407L1739.1176339797676,344.2030686791986Z" fill="#6d8e69" stroke="#6d8e69"></path><path d="M1783.637922015041,-66.27990092150867L1739.1176339797676,344.2030686791986L1778.1693225447088,714.4165002554655Z" fill="#438246" stroke="#438246"></path><path d="M-70.81902667880058,40.744489934295416L-133.41262514702976,241.48220194503665L38.661861615255475,181.7431652918458Z" fill="#ebfde5" stroke="#ebfde5"></path><path d="M-70.81902667880058,40.744489934295416L38.661861615255475,181.7431652918458L31.040705339983106,81.81274255737662Z" fill="#ecfce7" stroke="#ecfce7"></path><path d="M31.040705339983106,81.81274255737662L38.661861615255475,181.7431652918458L239.43442426621914,225.8791360538453Z" fill="#ddf9d6" stroke="#ddf9d6"></path><path d="M31.040705339983106,81.81274255737662L239.43442426621914,225.8791360538453L256.4396474696696,22.29381423443556Z" fill="#ddf6d7" stroke="#ddf6d7"></path><path d="M256.4396474696696,22.29381423443556L239.43442426621914,225.8791360538453L407.1457553934306,47.36111322417855Z" fill="#d4f2ce" stroke="#d4f2ce"></path><path d="M407.1457553934306,47.36111322417855L239.43442426621914,225.8791360538453L376.0085599310696,284.34870569966733Z" fill="#c3efbd" stroke="#c3efbd"></path><path d="M407.1457553934306,47.36111322417855L376.0085599310696,284.34870569966733L569.1651153657585,111.78192498162389Z" fill="#bfebba" stroke="#bfebba"></path><path d="M569.1651153657585,111.78192498162389L376.0085599310696,284.34870569966733L570.6545069161803,248.09125668369234Z" fill="#aae5a7" stroke="#aae5a7"></path><path d="M569.1651153657585,111.78192498162389L570.6545069161803,248.09125668369234L672.2096642665565,110.67825419828296Z" fill="#aee4aa" stroke="#aee4aa"></path><path d="M672.2096642665565,110.67825419828296L570.6545069161803,248.09125668369234L700.7127474993467,277.5124568492174Z" fill="#9bde9a" stroke="#9bde9a"></path><path d="M672.2096642665565,110.67825419828296L700.7127474993467,277.5124568492174L862.1505570039153,263.2273752428591Z" fill="#90d994" stroke="#90d994"></path><path d="M672.2096642665565,110.67825419828296L862.1505570039153,263.2273752428591L826.8832265306264,57.38841611891985Z" fill="#9cdaa0" stroke="#9cdaa0"></path><path d="M826.8832265306264,57.38841611891985L862.1505570039153,263.2273752428591L1002.7561702765524,181.82343914173543Z" fill="#8dd497" stroke="#8dd497"></path><path d="M826.8832265306264,57.38841611891985L1002.7561702765524,181.82343914173543L991.4581821765751,95.07242674939334Z" fill="#8fd29c" stroke="#8fd29c"></path><path d="M991.4581821765751,95.07242674939334L1002.7561702765524,181.82343914173543L1082.3666494712234,81.17710350081325Z" fill="#87cc96" stroke="#87cc96"></path><path d="M1082.3666494712234,81.17710350081325L1002.7561702765524,181.82343914173543L1156.0371607448906,237.40582142025232Z" fill="#7dc78c" stroke="#7dc78c"></path><path d="M1082.3666494712234,81.17710350081325L1156.0371607448906,237.40582142025232L1216.5852057002485,55.36826513707638Z" fill="#7dc18e" stroke="#7dc18e"></path><path d="M1216.5852057002485,55.36826513707638L1156.0371607448906,237.40582142025232L1304.1749542113394,185.24051148444414Z" fill="#73bb85" stroke="#73bb85"></path><path d="M1216.5852057002485,55.36826513707638L1304.1749542113394,185.24051148444414L1479.5209531579167,83.88058257289231Z" fill="#75b284" stroke="#75b284"></path><path d="M1479.5209531579167,83.88058257289231L1304.1749542113394,185.24051148444414L1404.1294091753662,193.0727689806372Z" fill="#70ac7b" stroke="#70ac7b"></path><path d="M1479.5209531579167,83.88058257289231L1404.1294091753662,193.0727689806372L1603.727499973029,168.91781863756478Z" fill="#71a475" stroke="#71a475"></path><path d="M1479.5209531579167,83.88058257289231L1603.727499973029,168.91781863756478L1608.9550140313804,121.88873958773911Z" fill="#739e73" stroke="#739e73"></path><path d="M1608.9550140313804,121.88873958773911L1603.727499973029,168.91781863756478L1732.2836879454553,90.69801754318178Z" fill="#73976f" stroke="#73976f"></path><path d="M1732.2836879454553,90.69801754318178L1603.727499973029,168.91781863756478L1738.2474151812494,227.50171246938407Z" fill="#6f946b" stroke="#6f946b"></path><path d="M-133.41262514702976,241.48220194503665L-100.57271076366305,937.1062755491585L-42.376643819734454,642.4420830700547Z" fill="#85c89c" stroke="#85c89c"></path><path d="M-133.41262514702976,241.48220194503665L-42.376643819734454,642.4420830700547L-69.77189088240266,397.4797956738621Z" fill="#a8e7b5" stroke="#a8e7b5"></path><path d="M-133.41262514702976,241.48220194503665L-69.77189088240266,397.4797956738621L38.661861615255475,181.7431652918458Z" fill="#cdf6cb" stroke="#cdf6cb"></path><path d="M38.661861615255475,181.7431652918458L-69.77189088240266,397.4797956738621L74.18102164752781,408.42771171592176Z" fill="#b9f0b9" stroke="#b9f0b9"></path><path d="M38.661861615255475,181.7431652918458L74.18102164752781,408.42771171592176L239.43442426621914,225.8791360538453Z" fill="#bff1bd" stroke="#bff1bd"></path><path d="M239.43442426621914,225.8791360538453L74.18102164752781,408.42771171592176L233.03269802592695,391.61939430981874Z" fill="#a8e9a9" stroke="#a8e9a9"></path><path d="M239.43442426621914,225.8791360538453L233.03269802592695,391.61939430981874L346.60367178730667,362.8687976952642Z" fill="#a5e8a4" stroke="#a5e8a4"></path><path d="M239.43442426621914,225.8791360538453L346.60367178730667,362.8687976952642L376.0085599310696,284.34870569966733Z" fill="#abe9a7" stroke="#abe9a7"></path><path d="M376.0085599310696,284.34870569966733L346.60367178730667,362.8687976952642L475.38960445672274,333.93246243707836Z" fill="#99e398" stroke="#99e398"></path><path d="M376.0085599310696,284.34870569966733L475.38960445672274,333.93246243707836L570.6545069161803,248.09125668369234Z" fill="#9ae299" stroke="#9ae299"></path><path d="M570.6545069161803,248.09125668369234L475.38960445672274,333.93246243707836L709.0745547227561,336.2461981549859Z" fill="#8adb8a" stroke="#8adb8a"></path><path d="M570.6545069161803,248.09125668369234L709.0745547227561,336.2461981549859L700.7127474993467,277.5124568492174Z" fill="#86d989" stroke="#86d989"></path><path d="M700.7127474993467,277.5124568492174L709.0745547227561,336.2461981549859L862.1505570039153,263.2273752428591Z" fill="#7bd383" stroke="#7bd383"></path><path d="M862.1505570039153,263.2273752428591L709.0745547227561,336.2461981549859L814.4107875600457,414.8640688788146Z" fill="#6bcd78" stroke="#6bcd78"></path><path d="M862.1505570039153,263.2273752428591L814.4107875600457,414.8640688788146L1021.6675847768784,415.4077808652073Z" fill="#5ac56e" stroke="#5ac56e"></path><path d="M862.1505570039153,263.2273752428591L1021.6675847768784,415.4077808652073L1002.7561702765524,181.82343914173543Z" fill="#67c979" stroke="#67c979"></path><path d="M1002.7561702765524,181.82343914173543L1021.6675847768784,415.4077808652073L1156.0371607448906,237.40582142025232Z" fill="#62c174" stroke="#62c174"></path><path d="M1156.0371607448906,237.40582142025232L1021.6675847768784,415.4077808652073L1164.9140288773924,379.2769405245781Z" fill="#4cb765" stroke="#4cb765"></path><path d="M1156.0371607448906,237.40582142025232L1164.9140288773924,379.2769405245781L1304.1749542113394,185.24051148444414Z" fill="#59b56e" stroke="#59b56e"></path><path d="M1304.1749542113394,185.24051148444414L1164.9140288773924,379.2769405245781L1309.3013172224164,417.78977908194065Z" fill="#46ad5e" stroke="#46ad5e"></path><path d="M1304.1749542113394,185.24051148444414L1309.3013172224164,417.78977908194065L1397.987629333511,345.0646831188351Z" fill="#47a75b" stroke="#47a75b"></path><path d="M1304.1749542113394,185.24051148444414L1397.987629333511,345.0646831188351L1404.1294091753662,193.0727689806372Z" fill="#5baa69" stroke="#5baa69"></path><path d="M1404.1294091753662,193.0727689806372L1397.987629333511,345.0646831188351L1525.258922483772,319.9309562612325Z" fill="#4fa15b" stroke="#4fa15b"></path><path d="M1404.1294091753662,193.0727689806372L1525.258922483772,319.9309562612325L1603.727499973029,168.91781863756478Z" fill="#5e9e64" stroke="#5e9e64"></path><path d="M1603.727499973029,168.91781863756478L1525.258922483772,319.9309562612325L1738.2474151812494,227.50171246938407Z" fill="#5b945a" stroke="#5b945a"></path><path d="M1738.2474151812494,227.50171246938407L1525.258922483772,319.9309562612325L1739.1176339797676,344.2030686791986Z" fill="#4c8d4c" stroke="#4c8d4c"></path><path d="M-69.77189088240266,397.4797956738621L-42.376643819734454,642.4420830700547L-32.39841582253575,547.0318029820919Z" fill="#90d6a4" stroke="#90d6a4"></path><path d="M-69.77189088240266,397.4797956738621L-32.39841582253575,547.0318029820919L80.63926775939763,487.70924971438944Z" fill="#96dea8" stroke="#96dea8"></path><path d="M-69.77189088240266,397.4797956738621L80.63926775939763,487.70924971438944L74.18102164752781,408.42771171592176Z" fill="#9ee3ab" stroke="#9ee3ab"></path><path d="M74.18102164752781,408.42771171592176L80.63926775939763,487.70924971438944L180.11325063183904,487.32380893081427Z" fill="#90dda0" stroke="#90dda0"></path><path d="M74.18102164752781,408.42771171592176L180.11325063183904,487.32380893081427L233.03269802592695,391.61939430981874Z" fill="#94dfa0" stroke="#94dfa0"></path><path d="M233.03269802592695,391.61939430981874L180.11325063183904,487.32380893081427L336.20403218083084,564.8492829501629Z" fill="#80d692" stroke="#80d692"></path><path d="M233.03269802592695,391.61939430981874L336.20403218083084,564.8492829501629L346.60367178730667,362.8687976952642Z" fill="#86d992" stroke="#86d992"></path><path d="M346.60367178730667,362.8687976952642L336.20403218083084,564.8492829501629L536.1317331902683,549.2646703775972Z" fill="#6fcd83" stroke="#6fcd83"></path><path d="M346.60367178730667,362.8687976952642L536.1317331902683,549.2646703775972L475.38960445672274,333.93246243707836Z" fill="#7dd588" stroke="#7dd588"></path><path d="M475.38960445672274,333.93246243707836L536.1317331902683,549.2646703775972L709.0745547227561,336.2461981549859Z" fill="#72d07e" stroke="#72d07e"></path><path d="M709.0745547227561,336.2461981549859L536.1317331902683,549.2646703775972L658.2180216349661,584.5633448380977Z" fill="#57c36d" stroke="#57c36d"></path><path d="M709.0745547227561,336.2461981549859L658.2180216349661,584.5633448380977L814.4107875600457,414.8640688788146Z" fill="#58c46e" stroke="#58c46e"></path><path d="M814.4107875600457,414.8640688788146L658.2180216349661,584.5633448380977L820.3808650374413,501.6277269087732Z" fill="#47ba64" stroke="#47ba64"></path><path d="M814.4107875600457,414.8640688788146L820.3808650374413,501.6277269087732L968.065222101286,513.0420865584165Z" fill="#41b962" stroke="#41b962"></path><path d="M814.4107875600457,414.8640688788146L968.065222101286,513.0420865584165L1021.6675847768784,415.4077808652073Z" fill="#41b962" stroke="#41b962"></path><path d="M1021.6675847768784,415.4077808652073L968.065222101286,513.0420865584165L1139.96655841358,517.6766606513411Z" fill="#30ac58" stroke="#30ac58"></path><path d="M1021.6675847768784,415.4077808652073L1139.96655841358,517.6766606513411L1164.9140288773924,379.2769405245781Z" fill="#36ac59" stroke="#36ac59"></path><path d="M1164.9140288773924,379.2769405245781L1139.96655841358,517.6766606513411L1260.453243367374,509.0264439303428Z" fill="#28a150" stroke="#28a150"></path><path d="M1164.9140288773924,379.2769405245781L1260.453243367374,509.0264439303428L1309.3013172224164,417.78977908194065Z" fill="#2ca150" stroke="#2ca150"></path><path d="M1309.3013172224164,417.78977908194065L1260.453243367374,509.0264439303428L1382.5582360010594,554.3064364325255Z" fill="#1c9344" stroke="#1c9344"></path><path d="M1309.3013172224164,417.78977908194065L1382.5582360010594,554.3064364325255L1397.987629333511,345.0646831188351Z" fill="#289649" stroke="#289649"></path><path d="M1397.987629333511,345.0646831188351L1382.5582360010594,554.3064364325255L1528.986385082826,568.6920846160501Z" fill="#1c8a3d" stroke="#1c8a3d"></path><path d="M1397.987629333511,345.0646831188351L1528.986385082826,568.6920846160501L1525.258922483772,319.9309562612325Z" fill="#2f9045" stroke="#2f9045"></path><path d="M1525.258922483772,319.9309562612325L1528.986385082826,568.6920846160501L1739.1176339797676,344.2030686791986Z" fill="#2f863e" stroke="#2f863e"></path><path d="M1739.1176339797676,344.2030686791986L1528.986385082826,568.6920846160501L1730.8126023598015,552.3406525980681Z" fill="#1c7632" stroke="#1c7632"></path><path d="M1739.1176339797676,344.2030686791986L1730.8126023598015,552.3406525980681L1778.1693225447088,714.4165002554655Z" fill="#14662a" stroke="#14662a"></path><path d="M-32.39841582253575,547.0318029820919L-42.376643819734454,642.4420830700547L128.79527932964265,630.5673172418028Z" fill="#7cc493" stroke="#7cc493"></path><path d="M-32.39841582253575,547.0318029820919L128.79527932964265,630.5673172418028L80.63926775939763,487.70924971438944Z" fill="#83cd97" stroke="#83cd97"></path><path d="M80.63926775939763,487.70924971438944L128.79527932964265,630.5673172418028L180.11325063183904,487.32380893081427Z" fill="#80cf94" stroke="#80cf94"></path><path d="M180.11325063183904,487.32380893081427L128.79527932964265,630.5673172418028L230.51724306307733,690.8927625697106Z" fill="#70c086" stroke="#70c086"></path><path d="M180.11325063183904,487.32380893081427L230.51724306307733,690.8927625697106L336.20403218083084,564.8492829501629Z" fill="#6ec283" stroke="#6ec283"></path><path d="M336.20403218083084,564.8492829501629L230.51724306307733,690.8927625697106L382.7329542953521,632.9357092548162Z" fill="#61b677" stroke="#61b677"></path><path d="M336.20403218083084,564.8492829501629L382.7329542953521,632.9357092548162L493.4424598887563,616.5093982592225Z" fill="#5cb772" stroke="#5cb772"></path><path d="M336.20403218083084,564.8492829501629L493.4424598887563,616.5093982592225L536.1317331902683,549.2646703775972Z" fill="#5bba71" stroke="#5bba71"></path><path d="M536.1317331902683,549.2646703775972L493.4424598887563,616.5093982592225L658.2180216349661,584.5633448380977Z" fill="#4eb466" stroke="#4eb466"></path><path d="M658.2180216349661,584.5633448380977L493.4424598887563,616.5093982592225L624.4175024796277,781.5592634584755Z" fill="#3fa357" stroke="#3fa357"></path><path d="M658.2180216349661,584.5633448380977L624.4175024796277,781.5592634584755L713.0344767216593,729.4499053247273Z" fill="#38974c" stroke="#38974c"></path><path d="M658.2180216349661,584.5633448380977L713.0344767216593,729.4499053247273L865.0621053110808,633.3598788455129Z" fill="#2f9d4f" stroke="#2f9d4f"></path><path d="M658.2180216349661,584.5633448380977L865.0621053110808,633.3598788455129L820.3808650374413,501.6277269087732Z" fill="#38aa59" stroke="#38aa59"></path><path d="M820.3808650374413,501.6277269087732L865.0621053110808,633.3598788455129L968.065222101286,513.0420865584165Z" fill="#32aa57" stroke="#32aa57"></path><path d="M968.065222101286,513.0420865584165L865.0621053110808,633.3598788455129L1001.4546829182655,700.3020740579814Z" fill="#209a4a" stroke="#209a4a"></path><path d="M968.065222101286,513.0420865584165L1001.4546829182655,700.3020740579814L1123.6645012814552,633.8154997956008Z" fill="#199344" stroke="#199344"></path><path d="M968.065222101286,513.0420865584165L1123.6645012814552,633.8154997956008L1139.96655841358,517.6766606513411Z" fill="#209b4a" stroke="#209b4a"></path><path d="M1139.96655841358,517.6766606513411L1123.6645012814552,633.8154997956008L1221.167804421857,629.6950369980186Z" fill="#138c3f" stroke="#138c3f"></path><path d="M1139.96655841358,517.6766606513411L1221.167804421857,629.6950369980186L1260.453243367374,509.0264439303428Z" fill="#179043" stroke="#179043"></path><path d="M1260.453243367374,509.0264439303428L1221.167804421857,629.6950369980186L1382.5582360010594,554.3064364325255Z" fill="#0f873c" stroke="#0f873c"></path><path d="M1382.5582360010594,554.3064364325255L1221.167804421857,629.6950369980186L1434.0898394957185,688.8899407256395Z" fill="#04762f" stroke="#04762f"></path><path d="M1382.5582360010594,554.3064364325255L1434.0898394957185,688.8899407256395L1528.986385082826,568.6920846160501Z" fill="#08722c" stroke="#08722c"></path><path d="M1528.986385082826,568.6920846160501L1434.0898394957185,688.8899407256395L1579.734828332439,666.7613743152469Z" fill="#016522" stroke="#016522"></path><path d="M1528.986385082826,568.6920846160501L1579.734828332439,666.7613743152469L1730.8126023598015,552.3406525980681Z" fill="#096623" stroke="#096623"></path><path d="M1730.8126023598015,552.3406525980681L1579.734828332439,666.7613743152469L1778.1693225447088,714.4165002554655Z" fill="#00551a" stroke="#00551a"></path><path d="M-42.376643819734454,642.4420830700547L-100.57271076366305,937.1062755491585L-47.976205637678504,838.6084466893226Z" fill="#7c9f7c" stroke="#7c9f7c"></path><path d="M-42.376643819734454,642.4420830700547L-47.976205637678504,838.6084466893226L128.79527932964265,630.5673172418028Z" fill="#76b185" stroke="#76b185"></path><path d="M128.79527932964265,630.5673172418028L-47.976205637678504,838.6084466893226L125.52894294261932,862.8290752507746Z" fill="#71a175" stroke="#71a175"></path><path d="M128.79527932964265,630.5673172418028L125.52894294261932,862.8290752507746L230.51724306307733,690.8927625697106Z" fill="#6aa875" stroke="#6aa875"></path><path d="M230.51724306307733,690.8927625697106L125.52894294261932,862.8290752507746L282.45423121377826,810.9987767692655Z" fill="#669a68" stroke="#669a68"></path><path d="M230.51724306307733,690.8927625697106L282.45423121377826,810.9987767692655L387.8293688222766,770.6155484821647Z" fill="#5f9e65" stroke="#5f9e65"></path><path d="M230.51724306307733,690.8927625697106L387.8293688222766,770.6155484821647L382.7329542953521,632.9357092548162Z" fill="#5ca86a" stroke="#5ca86a"></path><path d="M382.7329542953521,632.9357092548162L387.8293688222766,770.6155484821647L493.4424598887563,616.5093982592225Z" fill="#52a966" stroke="#52a966"></path><path d="M493.4424598887563,616.5093982592225L387.8293688222766,770.6155484821647L470.17846550792456,828.2293376326561Z" fill="#4f9a59" stroke="#4f9a59"></path><path d="M493.4424598887563,616.5093982592225L470.17846550792456,828.2293376326561L624.4175024796277,781.5592634584755Z" fill="#469651" stroke="#469651"></path><path d="M713.0344767216593,729.4499053247273L624.4175024796277,781.5592634584755L816.1181686911732,880.6764625199139Z" fill="#32813b" stroke="#32813b"></path><path d="M713.0344767216593,729.4499053247273L816.1181686911732,880.6764625199139L865.0621053110808,633.3598788455129Z" fill="#2a873e" stroke="#2a873e"></path><path d="M865.0621053110808,633.3598788455129L816.1181686911732,880.6764625199139L979.4194907136261,833.4870959445834Z" fill="#207c34" stroke="#207c34"></path><path d="M865.0621053110808,633.3598788455129L979.4194907136261,833.4870959445834L1001.4546829182655,700.3020740579814Z" fill="#1a8439" stroke="#1a8439"></path><path d="M1001.4546829182655,700.3020740579814L979.4194907136261,833.4870959445834L1184.788762042299,862.8662229515612Z" fill="#116c27" stroke="#116c27"></path><path d="M1001.4546829182655,700.3020740579814L1184.788762042299,862.8662229515612L1123.6645012814552,633.8154997956008Z" fill="#0e762e" stroke="#0e762e"></path><path d="M1123.6645012814552,633.8154997956008L1184.788762042299,862.8662229515612L1221.167804421857,629.6950369980186Z" fill="#08742d" stroke="#08742d"></path><path d="M1221.167804421857,629.6950369980186L1184.788762042299,862.8662229515612L1317.6725878659636,817.6145686861128Z" fill="#036320" stroke="#036320"></path><path d="M1221.167804421857,629.6950369980186L1317.6725878659636,817.6145686861128L1434.0898394957185,688.8899407256395Z" fill="#006723" stroke="#006723"></path><path d="M1434.0898394957185,688.8899407256395L1317.6725878659636,817.6145686861128L1480.5773798190057,823.0585597269237Z" fill="#005315" stroke="#005315"></path><path d="M1434.0898394957185,688.8899407256395L1480.5773798190057,823.0585597269237L1579.734828332439,666.7613743152469Z" fill="#005517" stroke="#005517"></path><path d="M1579.734828332439,666.7613743152469L1480.5773798190057,823.0585597269237L1627.3719106055796,831.5663817711174Z" fill="#00460c" stroke="#00460c"></path><path d="M1579.734828332439,666.7613743152469L1627.3719106055796,831.5663817711174L1739.8132274765521,772.2971586417407Z" fill="#00430a" stroke="#00430a"></path><path d="M1579.734828332439,666.7613743152469L1739.8132274765521,772.2971586417407L1778.1693225447088,714.4165002554655Z" fill="#004610" stroke="#004610"></path><path d="M1778.1693225447088,714.4165002554655L1739.8132274765521,772.2971586417407L1771.0031689982861,991.3775598909706Z" fill="#002b00" stroke="#002b00"></path><path d="M-47.976205637678504,838.6084466893226L-100.57271076366305,937.1062755491585L19.985192427411675,916.187643064186Z" fill="#7a8d78" stroke="#7a8d78"></path><path d="M-47.976205637678504,838.6084466893226L19.985192427411675,916.187643064186L125.52894294261932,862.8290752507746Z" fill="#748f72" stroke="#748f72"></path><path d="M125.52894294261932,862.8290752507746L19.985192427411675,916.187643064186L247.7336305193603,927.1056123543531Z" fill="#6c866a" stroke="#6c866a"></path><path d="M125.52894294261932,862.8290752507746L247.7336305193603,927.1056123543531L282.45423121377826,810.9987767692655Z" fill="#658a62" stroke="#658a62"></path><path d="M282.45423121377826,810.9987767692655L247.7336305193603,927.1056123543531L374.60725176148117,984.721004460007Z" fill="#5f805b" stroke="#5f805b"></path><path d="M282.45423121377826,810.9987767692655L374.60725176148117,984.721004460007L387.8293688222766,770.6155484821647Z" fill="#5a8857" stroke="#5a8857"></path><path d="M387.8293688222766,770.6155484821647L374.60725176148117,984.721004460007L470.17846550792456,828.2293376326561Z" fill="#538451" stroke="#538451"></path><path d="M470.17846550792456,828.2293376326561L374.60725176148117,984.721004460007L541.2605727463961,989.1363421920687Z" fill="#4e734c" stroke="#4e734c"></path><path d="M470.17846550792456,828.2293376326561L541.2605727463961,989.1363421920687L624.4175024796277,781.5592634584755Z" fill="#457c44" stroke="#457c44"></path><path d="M624.4175024796277,781.5592634584755L541.2605727463961,989.1363421920687L638.6798269394785,1025.6796906050295Z" fill="#3e6c3f" stroke="#3e6c3f"></path><path d="M624.4175024796277,781.5592634584755L638.6798269394785,1025.6796906050295L816.1181686911732,880.6764625199139Z" fill="#356f38" stroke="#356f38"></path><path d="M816.1181686911732,880.6764625199139L638.6798269394785,1025.6796906050295L832.5342112965882,1015.6195265427232Z" fill="#2d5c35" stroke="#2d5c35"></path><path d="M816.1181686911732,880.6764625199139L832.5342112965882,1015.6195265427232L1011.7717270553112,923.9269379898906Z" fill="#205c2e" stroke="#205c2e"></path><path d="M816.1181686911732,880.6764625199139L1011.7717270553112,923.9269379898906L979.4194907136261,833.4870959445834Z" fill="#1b652c" stroke="#1b652c"></path><path d="M979.4194907136261,833.4870959445834L1011.7717270553112,923.9269379898906L1184.788762042299,862.8662229515612Z" fill="#115d24" stroke="#115d24"></path><path d="M1184.788762042299,862.8662229515612L1011.7717270553112,923.9269379898906L1123.9374976884574,977.8895842283964Z" fill="#0e5021" stroke="#0e5021"></path><path d="M1184.788762042299,862.8662229515612L1123.9374976884574,977.8895842283964L1289.5170244574547,934.395091412589Z" fill="#06471b" stroke="#06471b"></path><path d="M1184.788762042299,862.8662229515612L1289.5170244574547,934.395091412589L1317.6725878659636,817.6145686861128Z" fill="#014c17" stroke="#014c17"></path><path d="M1317.6725878659636,817.6145686861128L1289.5170244574547,934.395091412589L1480.5773798190057,823.0585597269237Z" fill="#004711" stroke="#004711"></path><path d="M1480.5773798190057,823.0585597269237L1289.5170244574547,934.395091412589L1422.0480006281286,1011.2629542499781Z" fill="#00370f" stroke="#00370f"></path><path d="M1480.5773798190057,823.0585597269237L1422.0480006281286,1011.2629542499781L1570.2151027321815,1020.373683962971Z" fill="#002909" stroke="#002909"></path><path d="M1480.5773798190057,823.0585597269237L1570.2151027321815,1020.373683962971L1627.3719106055796,831.5663817711174Z" fill="#002f05" stroke="#002f05"></path><path d="M1627.3719106055796,831.5663817711174L1570.2151027321815,1020.373683962971L1771.0031689982861,991.3775598909706Z" fill="#001c00" stroke="#001c00"></path><path d="M1627.3719106055796,831.5663817711174L1771.0031689982861,991.3775598909706L1739.8132274765521,772.2971586417407Z" fill="#002800" stroke="#002800"></path><path d="M-100.57271076366305,937.1062755491585L638.6798269394785,1025.6796906050295L374.60725176148117,984.721004460007Z" fill="#5f735b" stroke="#5f735b"></path><path d="M-100.57271076366305,937.1062755491585L374.60725176148117,984.721004460007L19.985192427411675,916.187643064186Z" fill="#6f7f6c" stroke="#6f7f6c"></path><path d="M19.985192427411675,916.187643064186L374.60725176148117,984.721004460007L247.7336305193603,927.1056123543531Z" fill="#667c63" stroke="#667c63"></path><path d="M374.60725176148117,984.721004460007L638.6798269394785,1025.6796906050295L541.2605727463961,989.1363421920687Z" fill="#486847" stroke="#486847"></path><path d="M638.6798269394785,1025.6796906050295L1570.2151027321815,1020.373683962971L832.5342112965882,1015.6195265427232Z" fill="#154d27" stroke="#154d27"></path><path d="M832.5342112965882,1015.6195265427232L1570.2151027321815,1020.373683962971L1422.0480006281286,1011.2629542499781Z" fill="#013717" stroke="#013717"></path><path d="M832.5342112965882,1015.6195265427232L1422.0480006281286,1011.2629542499781L1123.9374976884574,977.8895842283964Z" fill="#0c4420" stroke="#0c4420"></path><path d="M832.5342112965882,1015.6195265427232L1123.9374976884574,977.8895842283964L1011.7717270553112,923.9269379898906Z" fill="#164f28" stroke="#164f28"></path><path d="M1123.9374976884574,977.8895842283964L1422.0480006281286,1011.2629542499781L1289.5170244574547,934.395091412589Z" fill="#003716" stroke="#003716"></path></g></svg>