<svg width="1600" height="807" xmlns="http://www.w3.org/2000/svg"><g><path d="M-85.99539468996227,-82.51216647215188L-87.76447456330061,258.61098278313875L-54.68875874765217,64.81641551479697Z" fill="#ffffff" stroke="#ffffff"></path><path d="M-85.99539468996227,-82.51216647215188L-54.68875874765217,64.81641551479697L86.95297054946423,-74.37040337361395Z" fill="#fcffff" stroke="#fcffff"></path><path d="M-85.99539468996227,-82.51216647215188L86.95297054946423,-74.37040337361395L332.69889931194484,-132.09925213828683Z" fill="#f4f9fb" stroke="#f4f9fb"></path><path d="M86.95297054946423,-74.37040337361395L-54.68875874765217,64.81641551479697L119.19986687600613,32.36736078746617Z" fill="#f8fbfd" stroke="#f8fbfd"></path><path d="M86.95297054946423,-74.37040337361395L119.19986687600613,32.36736078746617L201.45157095976174,-52.5223415158689Z" fill="#f2f8fb" stroke="#f2f8fb"></path><path d="M86.95297054946423,-74.37040337361395L201.45157095976174,-52.5223415158689L332.69889931194484,-132.09925213828683Z" fill="#edf4f9" stroke="#edf4f9"></path><path d="M201.45157095976174,-52.5223415158689L119.19986687600613,32.36736078746617L237.90506492368877,64.44508692249656Z" fill="#eff5f9" stroke="#eff5f9"></path><path d="M201.45157095976174,-52.5223415158689L237.90506492368877,64.44508692249656L344.9866137932986,31.11655524931848Z" fill="#e8f0f6" stroke="#e8f0f6"></path><path d="M201.45157095976174,-52.5223415158689L344.9866137932986,31.11655524931848L332.69889931194484,-132.09925213828683Z" fill="#e5eef5" stroke="#e5eef5"></path><path d="M332.69889931194484,-132.09925213828683L344.9866137932986,31.11655524931848L548.7728600297123,-77.78286784887314Z" fill="#dae6f1" stroke="#dae6f1"></path><path d="M332.69889931194484,-132.09925213828683L548.7728600297123,-77.78286784887314L1001.9379851035774,-72.79810412786901Z" fill="#cad4e7" stroke="#cad4e7"></path><path d="M332.69889931194484,-132.09925213828683L1001.9379851035774,-72.79810412786901L1275.6216628476977,-115.04287099465728Z" fill="#c6b8d9" stroke="#c6b8d9"></path><path d="M548.7728600297123,-77.78286784887314L344.9866137932986,31.11655524931848L584.8085551243275,106.31248550489545Z" fill="#d3e0ee" stroke="#d3e0ee"></path><path d="M548.7728600297123,-77.78286784887314L584.8085551243275,106.31248550489545L694.9507967568934,74.76527899503708Z" fill="#cbd6e8" stroke="#cbd6e8"></path><path d="M548.7728600297123,-77.78286784887314L694.9507967568934,74.76527899503708L720.8868006896228,-19.956913087517023Z" fill="#c9d1e6" stroke="#c9d1e6"></path><path d="M548.7728600297123,-77.78286784887314L720.8868006896228,-19.956913087517023L787.9231138341129,-31.42611256800592Z" fill="#c7cde4" stroke="#c7cde4"></path><path d="M548.7728600297123,-77.78286784887314L787.9231138341129,-31.42611256800592L1001.9379851035774,-72.79810412786901Z" fill="#c6c2df" stroke="#c6c2df"></path><path d="M720.8868006896228,-19.956913087517023L694.9507967568934,74.76527899503708L787.9231138341129,-31.42611256800592Z" fill="#c6c8e1" stroke="#c6c8e1"></path><path d="M787.9231138341129,-31.42611256800592L694.9507967568934,74.76527899503708L851.0991343203932,100.82868067547679Z" fill="#c6c3df" stroke="#c6c3df"></path><path d="M787.9231138341129,-31.42611256800592L851.0991343203932,100.82868067547679L976.2594583444297,45.169398095458746Z" fill="#c6b7d9" stroke="#c6b7d9"></path><path d="M787.9231138341129,-31.42611256800592L976.2594583444297,45.169398095458746L1001.9379851035774,-72.79810412786901Z" fill="#c5b1d6" stroke="#c5b1d6"></path><path d="M1001.9379851035774,-72.79810412786901L976.2594583444297,45.169398095458746L1070.2964333910495,66.44238975830376Z" fill="#c4a6d1" stroke="#c4a6d1"></path><path d="M1001.9379851035774,-72.79810412786901L1070.2964333910495,66.44238975830376L1166.7922065686435,-72.58364092558622Z" fill="#c39ecd" stroke="#c39ecd"></path><path d="M1001.9379851035774,-72.79810412786901L1166.7922065686435,-72.58364092558622L1275.6216628476977,-115.04287099465728Z" fill="#c295c7" stroke="#c295c7"></path><path d="M1166.7922065686435,-72.58364092558622L1070.2964333910495,66.44238975830376L1249.7536945156753,38.55049638077617Z" fill="#c293c5" stroke="#c293c5"></path><path d="M1166.7922065686435,-72.58364092558622L1249.7536945156753,38.55049638077617L1275.6216628476977,-115.04287099465728Z" fill="#c189bf" stroke="#c189bf"></path><path d="M1275.6216628476977,-115.04287099465728L1249.7536945156753,38.55049638077617L1370.0441323779523,-23.726815776899457Z" fill="#b885b6" stroke="#b885b6"></path><path d="M1275.6216628476977,-115.04287099465728L1370.0441323779523,-23.726815776899457L1618.009592788294,-42.21755194477737Z" fill="#a680a5" stroke="#a680a5"></path><path d="M1275.6216628476977,-115.04287099465728L1618.009592788294,-42.21755194477737L1727.7331919688731,-48.506599282845855Z" fill="#958095" stroke="#958095"></path><path d="M1370.0441323779523,-23.726815776899457L1249.7536945156753,38.55049638077617L1369.1187279950827,30.548953441902995Z" fill="#b484b2" stroke="#b484b2"></path><path d="M1370.0441323779523,-23.726815776899457L1369.1187279950827,30.548953441902995L1575.3496582154185,76.51966639794409Z" fill="#a480a3" stroke="#a480a3"></path><path d="M1370.0441323779523,-23.726815776899457L1575.3496582154185,76.51966639794409L1618.009592788294,-42.21755194477737Z" fill="#988098" stroke="#988098"></path><path d="M1618.009592788294,-42.21755194477737L1575.3496582154185,76.51966639794409L1727.7331919688731,-48.506599282845855Z" fill="#868087" stroke="#868087"></path><path d="M1727.7331919688731,-48.506599282845855L1575.3496582154185,76.51966639794409L1759.2242046352476,118.28912406228483Z" fill="#808081" stroke="#808081"></path><path d="M-54.68875874765217,64.81641551479697L-87.76447456330061,258.61098278313875L99.0462370030582,192.87979200482368Z" fill="#f0fdff" stroke="#f0fdff"></path><path d="M-54.68875874765217,64.81641551479697L99.0462370030582,192.87979200482368L119.19986687600613,32.36736078746617Z" fill="#f7fbfd" stroke="#f7fbfd"></path><path d="M119.19986687600613,32.36736078746617L99.0462370030582,192.87979200482368L237.90506492368877,64.44508692249656Z" fill="#f0f7fa" stroke="#f0f7fa"></path><path d="M237.90506492368877,64.44508692249656L99.0462370030582,192.87979200482368L233.0713759548962,239.43860778585076Z" fill="#e3f3f9" stroke="#e3f3f9"></path><path d="M237.90506492368877,64.44508692249656L233.0713759548962,239.43860778585076L337.1089354902506,248.05943336337805Z" fill="#d9edf6" stroke="#d9edf6"></path><path d="M237.90506492368877,64.44508692249656L337.1089354902506,248.05943336337805L344.9866137932986,31.11655524931848Z" fill="#e0ecf5" stroke="#e0ecf5"></path><path d="M344.9866137932986,31.11655524931848L337.1089354902506,248.05943336337805L584.8085551243275,106.31248550489545Z" fill="#d3e4f0" stroke="#d3e4f0"></path><path d="M584.8085551243275,106.31248550489545L337.1089354902506,248.05943336337805L558.6175002157688,239.41081903874874Z" fill="#c1dcee" stroke="#c1dcee"></path><path d="M584.8085551243275,106.31248550489545L558.6175002157688,239.41081903874874L622.3496091552079,176.16300908848643Z" fill="#bfd6ea" stroke="#bfd6ea"></path><path d="M584.8085551243275,106.31248550489545L622.3496091552079,176.16300908848643L694.9507967568934,74.76527899503708Z" fill="#c5d2e7" stroke="#c5d2e7"></path><path d="M694.9507967568934,74.76527899503708L622.3496091552079,176.16300908848643L852.274854099378,237.8664974682033Z" fill="#bbc8e2" stroke="#bbc8e2"></path><path d="M694.9507967568934,74.76527899503708L852.274854099378,237.8664974682033L851.0991343203932,100.82868067547679Z" fill="#bfbfde" stroke="#bfbfde"></path><path d="M851.0991343203932,100.82868067547679L852.274854099378,237.8664974682033L1001.3002709113061,214.95542812161148Z" fill="#b7b1d8" stroke="#b7b1d8"></path><path d="M851.0991343203932,100.82868067547679L1001.3002709113061,214.95542812161148L976.2594583444297,45.169398095458746Z" fill="#c1aed5" stroke="#c1aed5"></path><path d="M976.2594583444297,45.169398095458746L1001.3002709113061,214.95542812161148L1070.2964333910495,66.44238975830376Z" fill="#c1a6d1" stroke="#c1a6d1"></path><path d="M1070.2964333910495,66.44238975830376L1001.3002709113061,214.95542812161148L1073.7449142336845,224.99733553268015Z" fill="#b8a1cf" stroke="#b8a1cf"></path><path d="M1070.2964333910495,66.44238975830376L1073.7449142336845,224.99733553268015L1249.7536945156753,38.55049638077617Z" fill="#bf97c8" stroke="#bf97c8"></path><path d="M1249.7536945156753,38.55049638077617L1073.7449142336845,224.99733553268015L1330.5210532061756,267.891004756093Z" fill="#b489c0" stroke="#b489c0"></path><path d="M1249.7536945156753,38.55049638077617L1330.5210532061756,267.891004756093L1369.1187279950827,30.548953441902995Z" fill="#b284b4" stroke="#b284b4"></path><path d="M1369.1187279950827,30.548953441902995L1330.5210532061756,267.891004756093L1477.600311068818,192.96737808734179Z" fill="#a080a9" stroke="#a080a9"></path><path d="M1369.1187279950827,30.548953441902995L1477.600311068818,192.96737808734179L1575.3496582154185,76.51966639794409Z" fill="#9d809e" stroke="#9d809e"></path><path d="M1575.3496582154185,76.51966639794409L1477.600311068818,192.96737808734179L1603.6001968570054,226.7680317722261Z" fill="#887e93" stroke="#887e93"></path><path d="M1575.3496582154185,76.51966639794409L1603.6001968570054,226.7680317722261L1759.2242046352476,118.28912406228483Z" fill="#7e7f86" stroke="#7e7f86"></path><path d="M1759.2242046352476,118.28912406228483L1603.6001968570054,226.7680317722261L1757.5056752096862,203.94622103311121Z" fill="#717e80" stroke="#717e80"></path><path d="M1759.2242046352476,118.28912406228483L1757.5056752096862,203.94622103311121L1757.066728072241,517.5812954641879Z" fill="#5d6e7f" stroke="#5d6e7f"></path><path d="M-87.76447456330061,258.61098278313875L-87.21054517664015,771.2490674480796L-65.58480955660343,470.98272764123976Z" fill="#d2b1e2" stroke="#d2b1e2"></path><path d="M-87.76447456330061,258.61098278313875L-65.58480955660343,470.98272764123976L-72.6644338387996,325.90894111432135Z" fill="#d4dbf6" stroke="#d4dbf6"></path><path d="M-87.76447456330061,258.61098278313875L-72.6644338387996,325.90894111432135L26.823680475354195,361.91537213511765Z" fill="#d7e4fa" stroke="#d7e4fa"></path><path d="M-87.76447456330061,258.61098278313875L26.823680475354195,361.91537213511765L99.0462370030582,192.87979200482368Z" fill="#d8edfe" stroke="#d8edfe"></path><path d="M99.0462370030582,192.87979200482368L26.823680475354195,361.91537213511765L171.2671689223498,344.3090049549937Z" fill="#d0e2f8" stroke="#d0e2f8"></path><path d="M99.0462370030582,192.87979200482368L171.2671689223498,344.3090049549937L233.0713759548962,239.43860778585076Z" fill="#d1e8fa" stroke="#d1e8fa"></path><path d="M233.0713759548962,239.43860778585076L171.2671689223498,344.3090049549937L337.1089354902506,248.05943336337805Z" fill="#c7dff6" stroke="#c7dff6"></path><path d="M337.1089354902506,248.05943336337805L171.2671689223498,344.3090049549937L419.2972971685231,419.96875517070293Z" fill="#bacced" stroke="#bacced"></path><path d="M337.1089354902506,248.05943336337805L419.2972971685231,419.96875517070293L476.82115458883345,321.2246783170849Z" fill="#b2c7ea" stroke="#b2c7ea"></path><path d="M337.1089354902506,248.05943336337805L476.82115458883345,321.2246783170849L558.6175002157688,239.41081903874874Z" fill="#b4d3ef" stroke="#b4d3ef"></path><path d="M558.6175002157688,239.41081903874874L476.82115458883345,321.2246783170849L704.9700871389359,317.9343088623136Z" fill="#a8c3e8" stroke="#a8c3e8"></path><path d="M558.6175002157688,239.41081903874874L704.9700871389359,317.9343088623136L622.3496091552079,176.16300908848643Z" fill="#aec8e7" stroke="#aec8e7"></path><path d="M622.3496091552079,176.16300908848643L704.9700871389359,317.9343088623136L852.274854099378,237.8664974682033Z" fill="#aabde2" stroke="#aabde2"></path><path d="M852.274854099378,237.8664974682033L704.9700871389359,317.9343088623136L871.1841324996203,315.242160782218Z" fill="#a2aada" stroke="#a2aada"></path><path d="M852.274854099378,237.8664974682033L871.1841324996203,315.242160782218L1001.3002709113061,214.95542812161148Z" fill="#a7a5d7" stroke="#a7a5d7"></path><path d="M1001.3002709113061,214.95542812161148L871.1841324996203,315.242160782218L921.1768057476729,371.8120486289263Z" fill="#a099d2" stroke="#a099d2"></path><path d="M1001.3002709113061,214.95542812161148L921.1768057476729,371.8120486289263L1073.7449142336845,224.99733553268015Z" fill="#a398d2" stroke="#a398d2"></path><path d="M1073.7449142336845,224.99733553268015L921.1768057476729,371.8120486289263L1161.3845569454134,418.4338922146708Z" fill="#9a81c8" stroke="#9a81c8"></path><path d="M1073.7449142336845,224.99733553268015L1161.3845569454134,418.4338922146708L1266.0869107581675,366.09755552373827Z" fill="#9872be" stroke="#9872be"></path><path d="M1073.7449142336845,224.99733553268015L1266.0869107581675,366.09755552373827L1330.5210532061756,267.891004756093Z" fill="#9d76be" stroke="#9d76be"></path><path d="M1330.5210532061756,267.891004756093L1266.0869107581675,366.09755552373827L1482.2565048839897,334.41260877996683Z" fill="#8765a8" stroke="#8765a8"></path><path d="M1330.5210532061756,267.891004756093L1482.2565048839897,334.41260877996683L1477.600311068818,192.96737808734179Z" fill="#8571a4" stroke="#8571a4"></path><path d="M1477.600311068818,192.96737808734179L1482.2565048839897,334.41260877996683L1603.6001968570054,226.7680317722261Z" fill="#7a7398" stroke="#7a7398"></path><path d="M1603.6001968570054,226.7680317722261L1482.2565048839897,334.41260877996683L1667.6152749639004,365.1110780797899Z" fill="#69668b" stroke="#69668b"></path><path d="M1603.6001968570054,226.7680317722261L1667.6152749639004,365.1110780797899L1757.5056752096862,203.94622103311121Z" fill="#617182" stroke="#617182"></path><path d="M1757.5056752096862,203.94622103311121L1667.6152749639004,365.1110780797899L1757.066728072241,517.5812954641879Z" fill="#545976" stroke="#545976"></path><path d="M-72.6644338387996,325.90894111432135L-65.58480955660343,470.98272764123976L26.823680475354195,361.91537213511765Z" fill="#d2d1f2" stroke="#d2d1f2"></path><path d="M26.823680475354195,361.91537213511765L-65.58480955660343,470.98272764123976L24.45878335274756,481.692566704005Z" fill="#d0c1ea" stroke="#d0c1ea"></path><path d="M26.823680475354195,361.91537213511765L24.45878335274756,481.692566704005L171.2671689223498,344.3090049549937Z" fill="#cac9ee" stroke="#cac9ee"></path><path d="M171.2671689223498,344.3090049549937L24.45878335274756,481.692566704005L258.6265814770013,568.2015981338918Z" fill="#c5b2e2" stroke="#c5b2e2"></path><path d="M171.2671689223498,344.3090049549937L258.6265814770013,568.2015981338918L419.2972971685231,419.96875517070293Z" fill="#baafe0" stroke="#baafe0"></path><path d="M419.2972971685231,419.96875517070293L258.6265814770013,568.2015981338918L316.04352752678096,571.8687282130122Z" fill="#b397d4" stroke="#b397d4"></path><path d="M419.2972971685231,419.96875517070293L316.04352752678096,571.8687282130122L498.32906113006175,513.0087765678763Z" fill="#ad97d4" stroke="#ad97d4"></path><path d="M419.2972971685231,419.96875517070293L498.32906113006175,513.0087765678763L476.82115458883345,321.2246783170849Z" fill="#a9abdd" stroke="#a9abdd"></path><path d="M476.82115458883345,321.2246783170849L498.32906113006175,513.0087765678763L704.9700871389359,317.9343088623136Z" fill="#a1adde" stroke="#a1adde"></path><path d="M704.9700871389359,317.9343088623136L498.32906113006175,513.0087765678763L682.2044609393924,525.5502860806882Z" fill="#9e93d1" stroke="#9e93d1"></path><path d="M704.9700871389359,317.9343088623136L682.2044609393924,525.5502860806882L801.3959955330938,503.6894148308784Z" fill="#9a89cc" stroke="#9a89cc"></path><path d="M704.9700871389359,317.9343088623136L801.3959955330938,503.6894148308784L871.1841324996203,315.242160782218Z" fill="#9a95d1" stroke="#9a95d1"></path><path d="M871.1841324996203,315.242160782218L801.3959955330938,503.6894148308784L921.1768057476729,371.8120486289263Z" fill="#9a87cb" stroke="#9a87cb"></path><path d="M921.1768057476729,371.8120486289263L801.3959955330938,503.6894148308784L957.4498516693711,472.5922316685319Z" fill="#9a74c2" stroke="#9a74c2"></path><path d="M921.1768057476729,371.8120486289263L957.4498516693711,472.5922316685319L1161.3845569454134,418.4338922146708Z" fill="#986fbf" stroke="#986fbf"></path><path d="M1161.3845569454134,418.4338922146708L957.4498516693711,472.5922316685319L1077.280591148883,562.2487847786397Z" fill="#9756b3" stroke="#9756b3"></path><path d="M1161.3845569454134,418.4338922146708L1077.280591148883,562.2487847786397L1258.5998854693025,501.085689375177Z" fill="#9446a9" stroke="#9446a9"></path><path d="M1161.3845569454134,418.4338922146708L1258.5998854693025,501.085689375177L1266.0869107581675,366.09755552373827Z" fill="#954fac" stroke="#954fac"></path><path d="M1266.0869107581675,366.09755552373827L1258.5998854693025,501.085689375177L1470.956097850576,525.5877683311701Z" fill="#873f9a" stroke="#873f9a"></path><path d="M1266.0869107581675,366.09755552373827L1470.956097850576,525.5877683311701L1482.2565048839897,334.41260877996683Z" fill="#7d4c97" stroke="#7d4c97"></path><path d="M1482.2565048839897,334.41260877996683L1470.956097850576,525.5877683311701L1525.0941920746118,425.66304956562817Z" fill="#704589" stroke="#704589"></path><path d="M1482.2565048839897,334.41260877996683L1525.0941920746118,425.66304956562817L1667.6152749639004,365.1110780797899Z" fill="#665586" stroke="#665586"></path><path d="M1525.0941920746118,425.66304956562817L1470.956097850576,525.5877683311701L1631.3792279362679,540.261860601604Z" fill="#673278" stroke="#673278"></path><path d="M1525.0941920746118,425.66304956562817L1631.3792279362679,540.261860601604L1667.6152749639004,365.1110780797899Z" fill="#5f4176" stroke="#5f4176"></path><path d="M1667.6152749639004,365.1110780797899L1631.3792279362679,540.261860601604L1757.066728072241,517.5812954641879Z" fill="#533967" stroke="#533967"></path><path d="M-65.58480955660343,470.98272764123976L-87.21054517664015,771.2490674480796L-24.640352614223957,628.7495623156428Z" fill="#cd92cb" stroke="#cd92cb"></path><path d="M-65.58480955660343,470.98272764123976L-24.640352614223957,628.7495623156428L24.45878335274756,481.692566704005Z" fill="#cfa9de" stroke="#cfa9de"></path><path d="M24.45878335274756,481.692566704005L-24.640352614223957,628.7495623156428L128.36828199215233,630.8335935976356Z" fill="#c899d2" stroke="#c899d2"></path><path d="M24.45878335274756,481.692566704005L128.36828199215233,630.8335935976356L258.6265814770013,568.2015981338918Z" fill="#c39ad4" stroke="#c39ad4"></path><path d="M258.6265814770013,568.2015981338918L128.36828199215233,630.8335935976356L195.39278925396502,729.6120068337768Z" fill="#b684bf" stroke="#b684bf"></path><path d="M258.6265814770013,568.2015981338918L195.39278925396502,729.6120068337768L374.0405695606023,694.5128266979009Z" fill="#a87ab4" stroke="#a87ab4"></path><path d="M258.6265814770013,568.2015981338918L374.0405695606023,694.5128266979009L316.04352752678096,571.8687282130122Z" fill="#b182c2" stroke="#b182c2"></path><path d="M316.04352752678096,571.8687282130122L374.0405695606023,694.5128266979009L498.32906113006175,513.0087765678763Z" fill="#aa81c3" stroke="#aa81c3"></path><path d="M498.32906113006175,513.0087765678763L374.0405695606023,694.5128266979009L559.0987878385931,728.104099072516Z" fill="#9b70b3" stroke="#9b70b3"></path><path d="M498.32906113006175,513.0087765678763L559.0987878385931,728.104099072516L682.2044609393924,525.5502860806882Z" fill="#9b74bd" stroke="#9b74bd"></path><path d="M682.2044609393924,525.5502860806882L559.0987878385931,728.104099072516L721.7019298207015,634.8175860755146Z" fill="#9662b0" stroke="#9662b0"></path><path d="M682.2044609393924,525.5502860806882L721.7019298207015,634.8175860755146L801.3959955330938,503.6894148308784Z" fill="#976bbc" stroke="#976bbc"></path><path d="M801.3959955330938,503.6894148308784L721.7019298207015,634.8175860755146L880.0187109969556,658.9601686131209Z" fill="#9558ae" stroke="#9558ae"></path><path d="M801.3959955330938,503.6894148308784L880.0187109969556,658.9601686131209L947.435820652172,637.5454576872289Z" fill="#944fa9" stroke="#944fa9"></path><path d="M801.3959955330938,503.6894148308784L947.435820652172,637.5454576872289L957.4498516693711,472.5922316685319Z" fill="#975bb6" stroke="#975bb6"></path><path d="M957.4498516693711,472.5922316685319L947.435820652172,637.5454576872289L1077.280591148883,562.2487847786397Z" fill="#954bac" stroke="#954bac"></path><path d="M1077.280591148883,562.2487847786397L947.435820652172,637.5454576872289L1179.5562930218875,628.086837111041Z" fill="#92379d" stroke="#92379d"></path><path d="M1077.280591148883,562.2487847786397L1179.5562930218875,628.086837111041L1258.5998854693025,501.085689375177Z" fill="#92329d" stroke="#92329d"></path><path d="M1258.5998854693025,501.085689375177L1179.5562930218875,628.086837111041L1217.4300943594426,618.5613694321364Z" fill="#902795" stroke="#902795"></path><path d="M1258.5998854693025,501.085689375177L1217.4300943594426,618.5613694321364L1369.7063945420086,685.2693198435009Z" fill="#891e89" stroke="#891e89"></path><path d="M1258.5998854693025,501.085689375177L1369.7063945420086,685.2693198435009L1470.956097850576,525.5877683311701Z" fill="#7e2284" stroke="#7e2284"></path><path d="M1470.956097850576,525.5877683311701L1369.7063945420086,685.2693198435009L1533.6120886635035,630.4704172443599Z" fill="#6f156e" stroke="#6f156e"></path><path d="M1470.956097850576,525.5877683311701L1533.6120886635035,630.4704172443599L1631.3792279362679,540.261860601604Z" fill="#65206c" stroke="#65206c"></path><path d="M1631.3792279362679,540.261860601604L1533.6120886635035,630.4704172443599L1730.6580572761595,627.1967012062669Z" fill="#571859" stroke="#571859"></path><path d="M1631.3792279362679,540.261860601604L1730.6580572761595,627.1967012062669L1757.066728072241,517.5812954641879Z" fill="#502159" stroke="#502159"></path><path d="M1757.066728072241,517.5812954641879L1730.6580572761595,627.1967012062669L1712.0466372929513,1029.616776863113Z" fill="#2c002a" stroke="#2c002a"></path><path d="M-24.640352614223957,628.7495623156428L-87.21054517664015,771.2490674480796L69.96278213337064,821.4122653193772Z" fill="#a37fa4" stroke="#a37fa4"></path><path d="M-24.640352614223957,628.7495623156428L69.96278213337064,821.4122653193772L128.36828199215233,630.8335935976356Z" fill="#ae80b2" stroke="#ae80b2"></path><path d="M128.36828199215233,630.8335935976356L69.96278213337064,821.4122653193772L195.39278925396502,729.6120068337768Z" fill="#9e78a4" stroke="#9e78a4"></path><path d="M195.39278925396502,729.6120068337768L69.96278213337064,821.4122653193772L180.9545684605837,827.7971606981009Z" fill="#86788e" stroke="#86788e"></path><path d="M195.39278925396502,729.6120068337768L180.9545684605837,827.7971606981009L351.1315191909671,872.7803425490856Z" fill="#787286" stroke="#787286"></path><path d="M195.39278925396502,729.6120068337768L351.1315191909671,872.7803425490856L374.0405695606023,694.5128266979009Z" fill="#826d92" stroke="#826d92"></path><path d="M374.0405695606023,694.5128266979009L351.1315191909671,872.7803425490856L490.6261904910207,811.8297078553587Z" fill="#6f6785" stroke="#6f6785"></path><path d="M374.0405695606023,694.5128266979009L490.6261904910207,811.8297078553587L559.0987878385931,728.104099072516Z" fill="#796293" stroke="#796293"></path><path d="M559.0987878385931,728.104099072516L490.6261904910207,811.8297078553587L568.6950123589486,952.1843880414963Z" fill="#565e74" stroke="#565e74"></path><path d="M559.0987878385931,728.104099072516L568.6950123589486,952.1843880414963L732.5493777170777,856.6395537927747Z" fill="#4c556b" stroke="#4c556b"></path><path d="M559.0987878385931,728.104099072516L732.5493777170777,856.6395537927747L721.7019298207015,634.8175860755146Z" fill="#6e508a" stroke="#6e508a"></path><path d="M721.7019298207015,634.8175860755146L732.5493777170777,856.6395537927747L833.4570557344705,803.5777141526341Z" fill="#64457d" stroke="#64457d"></path><path d="M721.7019298207015,634.8175860755146L833.4570557344705,803.5777141526341L880.0187109969556,658.9601686131209Z" fill="#7b4390" stroke="#7b4390"></path><path d="M880.0187109969556,658.9601686131209L833.4570557344705,803.5777141526341L965.399000197649,817.4827735126019Z" fill="#653577" stroke="#653577"></path><path d="M880.0187109969556,658.9601686131209L965.399000197649,817.4827735126019L947.435820652172,637.5454576872289Z" fill="#783387" stroke="#783387"></path><path d="M947.435820652172,637.5454576872289L965.399000197649,817.4827735126019L1179.5562930218875,628.086837111041Z" fill="#7b2985" stroke="#7b2985"></path><path d="M1179.5562930218875,628.086837111041L965.399000197649,817.4827735126019L1156.9637843314558,857.5328433327377Z" fill="#601c68" stroke="#601c68"></path><path d="M1179.5562930218875,628.086837111041L1156.9637843314558,857.5328433327377L1284.2473176307976,858.0554985813797Z" fill="#590d59" stroke="#590d59"></path><path d="M1179.5562930218875,628.086837111041L1284.2473176307976,858.0554985813797L1217.4300943594426,618.5613694321364Z" fill="#750d71" stroke="#750d71"></path><path d="M1217.4300943594426,618.5613694321364L1284.2473176307976,858.0554985813797L1369.7063945420086,685.2693198435009Z" fill="#670663" stroke="#670663"></path><path d="M1369.7063945420086,685.2693198435009L1284.2473176307976,858.0554985813797L1483.6894904449582,834.3993354029953Z" fill="#41023f" stroke="#41023f"></path><path d="M1369.7063945420086,685.2693198435009L1483.6894904449582,834.3993354029953L1533.6120886635035,630.4704172443599Z" fill="#4f004d" stroke="#4f004d"></path><path d="M1533.6120886635035,630.4704172443599L1483.6894904449582,834.3993354029953L1632.4329094402492,795.0248066615313Z" fill="#360035" stroke="#360035"></path><path d="M1533.6120886635035,630.4704172443599L1632.4329094402492,795.0248066615313L1730.6580572761595,627.1967012062669Z" fill="#420740" stroke="#420740"></path><path d="M1730.6580572761595,627.1967012062669L1632.4329094402492,795.0248066615313L1682.7092111483216,834.0290461387485Z" fill="#230023" stroke="#230023"></path><path d="M1730.6580572761595,627.1967012062669L1682.7092111483216,834.0290461387485L1712.0466372929513,1029.616776863113Z" fill="#070008" stroke="#070008"></path><path d="M-87.21054517664015,771.2490674480796L-84.41204700618982,942.2366858739406L69.96278213337064,821.4122653193772Z" fill="#808082" stroke="#808082"></path><path d="M69.96278213337064,821.4122653193772L-84.41204700618982,942.2366858739406L56.223239377141,941.9612276460975Z" fill="#7b7e7e" stroke="#7b7e7e"></path><path d="M69.96278213337064,821.4122653193772L56.223239377141,941.9612276460975L180.9545684605837,827.7971606981009Z" fill="#757a7c" stroke="#757a7c"></path><path d="M180.9545684605837,827.7971606981009L56.223239377141,941.9612276460975L224.7833274397999,960.9128833282739Z" fill="#72777b" stroke="#72777b"></path><path d="M180.9545684605837,827.7971606981009L224.7833274397999,960.9128833282739L351.1315191909671,872.7803425490856Z" fill="#697177" stroke="#697177"></path><path d="M351.1315191909671,872.7803425490856L224.7833274397999,960.9128833282739L359.18279265984893,1016.6903703566641Z" fill="#646d75" stroke="#646d75"></path><path d="M351.1315191909671,872.7803425490856L359.18279265984893,1016.6903703566641L568.6950123589486,952.1843880414963Z" fill="#596571" stroke="#596571"></path><path d="M351.1315191909671,872.7803425490856L568.6950123589486,952.1843880414963L490.6261904910207,811.8297078553587Z" fill="#55626f" stroke="#55626f"></path><path d="M732.5493777170777,856.6395537927747L568.6950123589486,952.1843880414963L653.0304906517267,1032.4792116321623Z" fill="#495267" stroke="#495267"></path><path d="M732.5493777170777,856.6395537927747L653.0304906517267,1032.4792116321623L782.7487650420517,1024.508371381089Z" fill="#464a63" stroke="#464a63"></path><path d="M732.5493777170777,856.6395537927747L782.7487650420517,1024.508371381089L833.4570557344705,803.5777141526341Z" fill="#46435f" stroke="#46435f"></path><path d="M833.4570557344705,803.5777141526341L782.7487650420517,1024.508371381089L960.6678211782128,929.5602211263031Z" fill="#46395b" stroke="#46395b"></path><path d="M833.4570557344705,803.5777141526341L960.6678211782128,929.5602211263031L965.399000197649,817.4827735126019Z" fill="#463258" stroke="#463258"></path><path d="M965.399000197649,817.4827735126019L960.6678211782128,929.5602211263031L1156.9637843314558,857.5328433327377Z" fill="#452551" stroke="#452551"></path><path d="M1156.9637843314558,857.5328433327377L960.6678211782128,929.5602211263031L1069.1483250260353,983.3825940638781Z" fill="#44214f" stroke="#44214f"></path><path d="M1156.9637843314558,857.5328433327377L1069.1483250260353,983.3825940638781L1330.827535064891,1001.3188772834837Z" fill="#421044" stroke="#421044"></path><path d="M1156.9637843314558,857.5328433327377L1330.827535064891,1001.3188772834837L1284.2473176307976,858.0554985813797Z" fill="#3f073c" stroke="#3f073c"></path><path d="M1284.2473176307976,858.0554985813797L1330.827535064891,1001.3188772834837L1401.52355466038,989.536406295374Z" fill="#330431" stroke="#330431"></path><path d="M1284.2473176307976,858.0554985813797L1401.52355466038,989.536406295374L1483.6894904449582,834.3993354029953Z" fill="#2b022a" stroke="#2b022a"></path><path d="M1483.6894904449582,834.3993354029953L1401.52355466038,989.536406295374L1621.6315287910402,972.628733497113Z" fill="#1b001b" stroke="#1b001b"></path><path d="M1483.6894904449582,834.3993354029953L1621.6315287910402,972.628733497113L1632.4329094402492,795.0248066615313Z" fill="#100010" stroke="#100010"></path><path d="M1632.4329094402492,795.0248066615313L1621.6315287910402,972.628733497113L1682.7092111483216,834.0290461387485Z" fill="#060007" stroke="#060007"></path><path d="M1682.7092111483216,834.0290461387485L1621.6315287910402,972.628733497113L1712.0466372929513,1029.616776863113Z" fill="#020003" stroke="#020003"></path><path d="M-84.41204700618982,942.2366858739406L359.18279265984893,1016.6903703566641L56.223239377141,941.9612276460975Z" fill="#75797c" stroke="#75797c"></path><path d="M56.223239377141,941.9612276460975L359.18279265984893,1016.6903703566641L224.7833274397999,960.9128833282739Z" fill="#6d7479" stroke="#6d7479"></path><path d="M359.18279265984893,1016.6903703566641L653.0304906517267,1032.4792116321623L568.6950123589486,952.1843880414963Z" fill="#505f6d" stroke="#505f6d"></path><path d="M653.0304906517267,1032.4792116321623L1712.0466372929513,1029.616776863113L782.7487650420517,1024.508371381089Z" fill="#442350" stroke="#442350"></path><path d="M782.7487650420517,1024.508371381089L1712.0466372929513,1029.616776863113L1330.827535064891,1001.3188772834837Z" fill="#3c063a" stroke="#3c063a"></path><path d="M782.7487650420517,1024.508371381089L1330.827535064891,1001.3188772834837L1069.1483250260353,983.3825940638781Z" fill="#44214f" stroke="#44214f"></path><path d="M782.7487650420517,1024.508371381089L1069.1483250260353,983.3825940638781L960.6678211782128,929.5602211263031Z" fill="#463056" stroke="#463056"></path><path d="M1330.827535064891,1001.3188772834837L1712.0466372929513,1029.616776863113L1401.52355466038,989.536406295374Z" fill="#1e001e" stroke="#1e001e"></path><path d="M1401.52355466038,989.536406295374L1712.0466372929513,1029.616776863113L1621.6315287910402,972.628733497113Z" fill="#100010" stroke="#100010"></path></g></svg>
