<svg width="1600" height="807" xmlns="http://www.w3.org/2000/svg"><g><path d="M-123.5899665299803,-70.43998992070556L-83.24945437721908,947.4679192621261L-83.9947594050318,869.5529495179653Z" fill="#93c1eb" stroke="#93c1eb"></path><path d="M-123.5899665299803,-70.43998992070556L-83.9947594050318,869.5529495179653L-92.24002417176962,483.96252488717437Z" fill="#aedbf9" stroke="#aedbf9"></path><path d="M-123.5899665299803,-70.43998992070556L-92.24002417176962,483.96252488717437L-69.45888421498239,342.826512074098Z" fill="#d8f4ff" stroke="#d8f4ff"></path><path d="M-123.5899665299803,-70.43998992070556L-69.45888421498239,342.826512074098L-51.20301090180874,202.7370879985392Z" fill="#ecfbff" stroke="#ecfbff"></path><path d="M-123.5899665299803,-70.43998992070556L-51.20301090180874,202.7370879985392L-20.196790555492043,75.59072971343994Z" fill="#f8fdff" stroke="#f8fdff"></path><path d="M-123.5899665299803,-70.43998992070556L-20.196790555492043,75.59072971343994L80.76285920105875,26.93309085443616Z" fill="#f8faff" stroke="#f8faff"></path><path d="M-123.5899665299803,-70.43998992070556L80.76285920105875,26.93309085443616L110.74826368130744,-119.63135241530836Z" fill="#f5f8fe" stroke="#f5f8fe"></path><path d="M110.74826368130744,-119.63135241530836L80.76285920105875,26.93309085443616L211.92827308550477,-133.53157949633896Z" fill="#ebf2fb" stroke="#ebf2fb"></path><path d="M211.92827308550477,-133.53157949633896L80.76285920105875,26.93309085443616L194.74310352467,130.62812643125653Z" fill="#e8f1fa" stroke="#e8f1fa"></path><path d="M211.92827308550477,-133.53157949633896L194.74310352467,130.62812643125653L343.5279274173081,56.31418920122087Z" fill="#dfecf7" stroke="#dfecf7"></path><path d="M211.92827308550477,-133.53157949633896L343.5279274173081,56.31418920122087L368.6347430292517,-131.05420611798763Z" fill="#dceaf5" stroke="#dceaf5"></path><path d="M211.92827308550477,-133.53157949633896L368.6347430292517,-131.05420611798763L1391.8866677116603,-119.64251540601254Z" fill="#b8d8eb" stroke="#b8d8eb"></path><path d="M368.6347430292517,-131.05420611798763L343.5279274173081,56.31418920122087L550.3445637412369,-49.78717795573175Z" fill="#d2e6f1" stroke="#d2e6f1"></path><path d="M368.6347430292517,-131.05420611798763L550.3445637412369,-49.78717795573175L713.8697078358382,-66.51140263304114Z" fill="#c5dfee" stroke="#c5dfee"></path><path d="M368.6347430292517,-131.05420611798763L713.8697078358382,-66.51140263304114L774.3933594692498,-71.93984258919954Z" fill="#bddbec" stroke="#bddbec"></path><path d="M368.6347430292517,-131.05420611798763L774.3933594692498,-71.93984258919954L1100.1098412182182,-84.56709234975278Z" fill="#b0d3e9" stroke="#b0d3e9"></path><path d="M368.6347430292517,-131.05420611798763L1100.1098412182182,-84.56709234975278L1391.8866677116603,-119.64251540601254Z" fill="#9ec6e1" stroke="#9ec6e1"></path><path d="M550.3445637412369,-49.78717795573175L343.5279274173081,56.31418920122087L485.26466206647456,115.74829202145338Z" fill="#cbe5f0" stroke="#cbe5f0"></path><path d="M550.3445637412369,-49.78717795573175L485.26466206647456,115.74829202145338L674.1713098715991,66.22678725980222Z" fill="#bfdeee" stroke="#bfdeee"></path><path d="M550.3445637412369,-49.78717795573175L674.1713098715991,66.22678725980222L713.8697078358382,-66.51140263304114Z" fill="#bad9ec" stroke="#bad9ec"></path><path d="M713.8697078358382,-66.51140263304114L674.1713098715991,66.22678725980222L774.3933594692498,-71.93984258919954Z" fill="#b2d5ea" stroke="#b2d5ea"></path><path d="M774.3933594692498,-71.93984258919954L674.1713098715991,66.22678725980222L826.6313611250371,107.67096851952374Z" fill="#acd2e8" stroke="#acd2e8"></path><path d="M774.3933594692498,-71.93984258919954L826.6313611250371,107.67096851952374L965.2047490049154,15.92552874237299Z" fill="#a5cce5" stroke="#a5cce5"></path><path d="M774.3933594692498,-71.93984258919954L965.2047490049154,15.92552874237299L967.379025220871,-26.66021939367056Z" fill="#a2c9e3" stroke="#a2c9e3"></path><path d="M774.3933594692498,-71.93984258919954L967.379025220871,-26.66021939367056L1100.1098412182182,-84.56709234975278Z" fill="#9ec6e2" stroke="#9ec6e2"></path><path d="M967.379025220871,-26.66021939367056L965.2047490049154,15.92552874237299L1100.1098412182182,-84.56709234975278Z" fill="#9ac2df" stroke="#9ac2df"></path><path d="M1100.1098412182182,-84.56709234975278L965.2047490049154,15.92552874237299L1175.7248746510595,72.66134977340698Z" fill="#95bddd" stroke="#95bddd"></path><path d="M1100.1098412182182,-84.56709234975278L1175.7248746510595,72.66134977340698L1302.2336665168405,-67.27995369583368Z" fill="#8eb3d7" stroke="#8eb3d7"></path><path d="M1100.1098412182182,-84.56709234975278L1302.2336665168405,-67.27995369583368L1391.8866677116603,-119.64251540601254Z" fill="#8aadd1" stroke="#8aadd1"></path><path d="M1302.2336665168405,-67.27995369583368L1175.7248746510595,72.66134977340698L1265.4469276685268,102.73407096974552Z" fill="#88aed3" stroke="#88aed3"></path><path d="M1302.2336665168405,-67.27995369583368L1265.4469276685268,102.73407096974552L1446.9928904436529,93.85751405730844Z" fill="#82a5cc" stroke="#82a5cc"></path><path d="M1302.2336665168405,-67.27995369583368L1446.9928904436529,93.85751405730844L1391.8866677116603,-119.64251540601254Z" fill="#83a1c9" stroke="#83a1c9"></path><path d="M1391.8866677116603,-119.64251540601254L1446.9928904436529,93.85751405730844L1581.9753927737474,-65.91145869344473Z" fill="#8098c2" stroke="#8098c2"></path><path d="M1391.8866677116603,-119.64251540601254L1581.9753927737474,-65.91145869344473L1720.0073394086212,-98.05298432707787Z" fill="#8090bc" stroke="#8090bc"></path><path d="M1581.9753927737474,-65.91145869344473L1446.9928904436529,93.85751405730844L1517.2250786516815,129.50592437759042Z" fill="#7b94bf" stroke="#7b94bf"></path><path d="M1581.9753927737474,-65.91145869344473L1517.2250786516815,129.50592437759042L1695.5744192004204,109.55159526318312Z" fill="#7b8cb9" stroke="#7b8cb9"></path><path d="M1581.9753927737474,-65.91145869344473L1695.5744192004204,109.55159526318312L1720.0073394086212,-98.05298432707787Z" fill="#8086b4" stroke="#8086b4"></path><path d="M1720.0073394086212,-98.05298432707787L1695.5744192004204,109.55159526318312L1750.8436986990273,169.6929627098143Z" fill="#7b80b0" stroke="#7b80b0"></path><path d="M-20.196790555492043,75.59072971343994L-51.20301090180874,202.7370879985392L72.05865740776062,227.13120499625802Z" fill="#e3f6ff" stroke="#e3f6ff"></path><path d="M-20.196790555492043,75.59072971343994L72.05865740776062,227.13120499625802L80.76285920105875,26.93309085443616Z" fill="#eaf7fe" stroke="#eaf7fe"></path><path d="M80.76285920105875,26.93309085443616L72.05865740776062,227.13120499625802L194.74310352467,130.62812643125653Z" fill="#e1f2fb" stroke="#e1f2fb"></path><path d="M194.74310352467,130.62812643125653L72.05865740776062,227.13120499625802L273.5651593655348,271.7276345472783Z" fill="#caeaf9" stroke="#caeaf9"></path><path d="M194.74310352467,130.62812643125653L273.5651593655348,271.7276345472783L321.9764419924468,233.02449605427682Z" fill="#c2e6f6" stroke="#c2e6f6"></path><path d="M194.74310352467,130.62812643125653L321.9764419924468,233.02449605427682L343.5279274173081,56.31418920122087Z" fill="#cfeaf5" stroke="#cfeaf5"></path><path d="M343.5279274173081,56.31418920122087L321.9764419924468,233.02449605427682L485.26466206647456,115.74829202145338Z" fill="#c8e6f3" stroke="#c8e6f3"></path><path d="M485.26466206647456,115.74829202145338L321.9764419924468,233.02449605427682L503.67929502390325,168.97440902888775Z" fill="#bbe2f1" stroke="#bbe2f1"></path><path d="M485.26466206647456,115.74829202145338L503.67929502390325,168.97440902888775L631.5161881037056,165.0475707370788Z" fill="#b5deee" stroke="#b5deee"></path><path d="M485.26466206647456,115.74829202145338L631.5161881037056,165.0475707370788L674.1713098715991,66.22678725980222Z" fill="#b6dced" stroke="#b6dced"></path><path d="M674.1713098715991,66.22678725980222L631.5161881037056,165.0475707370788L826.6313611250371,107.67096851952374Z" fill="#aad5ea" stroke="#aad5ea"></path><path d="M826.6313611250371,107.67096851952374L631.5161881037056,165.0475707370788L766.0773136373609,278.82447238080204Z" fill="#98cfe9" stroke="#98cfe9"></path><path d="M826.6313611250371,107.67096851952374L766.0773136373609,278.82447238080204L978.5573877487332,193.84684114716947Z" fill="#8cc8e5" stroke="#8cc8e5"></path><path d="M826.6313611250371,107.67096851952374L978.5573877487332,193.84684114716947L965.2047490049154,15.92552874237299Z" fill="#98c8e2" stroke="#98c8e2"></path><path d="M965.2047490049154,15.92552874237299L978.5573877487332,193.84684114716947L1175.7248746510595,72.66134977340698Z" fill="#90c0de" stroke="#90c0de"></path><path d="M1175.7248746510595,72.66134977340698L978.5573877487332,193.84684114716947L1153.6386603768915,209.6498622559011Z" fill="#81b9dc" stroke="#81b9dc"></path><path d="M1175.7248746510595,72.66134977340698L1153.6386603768915,209.6498622559011L1265.4469276685268,102.73407096974552Z" fill="#81b2d6" stroke="#81b2d6"></path><path d="M1265.4469276685268,102.73407096974552L1153.6386603768915,209.6498622559011L1220.612408760935,248.86282090097666Z" fill="#74add5" stroke="#74add5"></path><path d="M1265.4469276685268,102.73407096974552L1220.612408760935,248.86282090097666L1382.458047028631,225.17675690352917Z" fill="#6fa6d0" stroke="#6fa6d0"></path><path d="M1265.4469276685268,102.73407096974552L1382.458047028631,225.17675690352917L1446.9928904436529,93.85751405730844Z" fill="#75a1ca" stroke="#75a1ca"></path><path d="M1446.9928904436529,93.85751405730844L1382.458047028631,225.17675690352917L1517.2250786516815,129.50592437759042Z" fill="#6f99c4" stroke="#6f99c4"></path><path d="M1517.2250786516815,129.50592437759042L1382.458047028631,225.17675690352917L1551.918979967013,259.36152703128755Z" fill="#6492c2" stroke="#6492c2"></path><path d="M1517.2250786516815,129.50592437759042L1551.918979967013,259.36152703128755L1695.5744192004204,109.55159526318312Z" fill="#6c8aba" stroke="#6c8aba"></path><path d="M1695.5744192004204,109.55159526318312L1551.918979967013,259.36152703128755L1750.8436986990273,169.6929627098143Z" fill="#6982b4" stroke="#6982b4"></path><path d="M-51.20301090180874,202.7370879985392L-69.45888421498239,342.826512074098L72.05865740776062,227.13120499625802Z" fill="#d0efff" stroke="#d0efff"></path><path d="M72.05865740776062,227.13120499625802L-69.45888421498239,342.826512074098L34.14720509201288,368.62359900958836Z" fill="#bfe6ff" stroke="#bfe6ff"></path><path d="M72.05865740776062,227.13120499625802L34.14720509201288,368.62359900958836L213.12034056521952,388.85257875546813Z" fill="#b2defc" stroke="#b2defc"></path><path d="M72.05865740776062,227.13120499625802L213.12034056521952,388.85257875546813L273.5651593655348,271.7276345472783Z" fill="#b4dff9" stroke="#b4dff9"></path><path d="M273.5651593655348,271.7276345472783L213.12034056521952,388.85257875546813L424.71033319830894,336.78505953401327Z" fill="#a0d4f5" stroke="#a0d4f5"></path><path d="M273.5651593655348,271.7276345472783L424.71033319830894,336.78505953401327L321.9764419924468,233.02449605427682Z" fill="#aadbf4" stroke="#aadbf4"></path><path d="M321.9764419924468,233.02449605427682L424.71033319830894,336.78505953401327L503.67929502390325,168.97440902888775Z" fill="#adddf1" stroke="#adddf1"></path><path d="M503.67929502390325,168.97440902888775L424.71033319830894,336.78505953401327L515.6762128137052,375.08822249248624Z" fill="#9ad3f0" stroke="#9ad3f0"></path><path d="M503.67929502390325,168.97440902888775L515.6762128137052,375.08822249248624L631.5161881037056,165.0475707370788Z" fill="#a1d7ee" stroke="#a1d7ee"></path><path d="M631.5161881037056,165.0475707370788L515.6762128137052,375.08822249248624L615.1555521972477,382.2994307242334Z" fill="#8acaed" stroke="#8acaed"></path><path d="M631.5161881037056,165.0475707370788L615.1555521972477,382.2994307242334L766.0773136373609,278.82447238080204Z" fill="#89caeb" stroke="#89caeb"></path><path d="M766.0773136373609,278.82447238080204L615.1555521972477,382.2994307242334L872.0676591899246,413.8200475182384Z" fill="#6db9e7" stroke="#6db9e7"></path><path d="M766.0773136373609,278.82447238080204L872.0676591899246,413.8200475182384L978.5573877487332,193.84684114716947Z" fill="#72bbe4" stroke="#72bbe4"></path><path d="M978.5573877487332,193.84684114716947L872.0676591899246,413.8200475182384L1012.733899159357,369.3279344961047Z" fill="#63b1e1" stroke="#63b1e1"></path><path d="M978.5573877487332,193.84684114716947L1012.733899159357,369.3279344961047L1153.6386603768915,209.6498622559011Z" fill="#6fb4de" stroke="#6fb4de"></path><path d="M1153.6386603768915,209.6498622559011L1012.733899159357,369.3279344961047L1176.6956968791783,360.74813925661147Z" fill="#5ba7db" stroke="#5ba7db"></path><path d="M1153.6386603768915,209.6498622559011L1176.6956968791783,360.74813925661147L1220.612408760935,248.86282090097666Z" fill="#62a7d7" stroke="#62a7d7"></path><path d="M1220.612408760935,248.86282090097666L1176.6956968791783,360.74813925661147L1262.359138727188,387.77120450511575Z" fill="#509bd5" stroke="#509bd5"></path><path d="M1220.612408760935,248.86282090097666L1262.359138727188,387.77120450511575L1380.309547483921,364.8378867097199Z" fill="#4b94d0" stroke="#4b94d0"></path><path d="M1220.612408760935,248.86282090097666L1380.309547483921,364.8378867097199L1382.458047028631,225.17675690352917Z" fill="#5898cd" stroke="#5898cd"></path><path d="M1382.458047028631,225.17675690352917L1380.309547483921,364.8378867097199L1551.918979967013,259.36152703128755Z" fill="#518dc5" stroke="#518dc5"></path><path d="M1551.918979967013,259.36152703128755L1380.309547483921,364.8378867097199L1522.5827289931476,402.0459784939885Z" fill="#4180c2" stroke="#4180c2"></path><path d="M1551.918979967013,259.36152703128755L1522.5827289931476,402.0459784939885L1754.5100882928818,342.29455498047173Z" fill="#4375b9" stroke="#4375b9"></path><path d="M1551.918979967013,259.36152703128755L1754.5100882928818,342.29455498047173L1750.8436986990273,169.6929627098143Z" fill="#5779b3" stroke="#5779b3"></path><path d="M-69.45888421498239,342.826512074098L-92.24002417176962,483.96252488717437L34.14720509201288,368.62359900958836Z" fill="#b0dcfb" stroke="#b0dcfb"></path><path d="M34.14720509201288,368.62359900958836L-92.24002417176962,483.96252488717437L86.90097243525088,539.4334507640451Z" fill="#9dd0f5" stroke="#9dd0f5"></path><path d="M34.14720509201288,368.62359900958836L86.90097243525088,539.4334507640451L213.12034056521952,388.85257875546813Z" fill="#9bcff4" stroke="#9bcff4"></path><path d="M213.12034056521952,388.85257875546813L86.90097243525088,539.4334507640451L207.7998141478747,513.2023993134499Z" fill="#8cc4ee" stroke="#8cc4ee"></path><path d="M213.12034056521952,388.85257875546813L207.7998141478747,513.2023993134499L418.02541768178344,481.32605915889144Z" fill="#86c3ec" stroke="#86c3ec"></path><path d="M213.12034056521952,388.85257875546813L418.02541768178344,481.32605915889144L424.71033319830894,336.78505953401327Z" fill="#8cc9ef" stroke="#8cc9ef"></path><path d="M424.71033319830894,336.78505953401327L418.02541768178344,481.32605915889144L515.6762128137052,375.08822249248624Z" fill="#84c5ec" stroke="#84c5ec"></path><path d="M515.6762128137052,375.08822249248624L418.02541768178344,481.32605915889144L492.94190956279635,571.7918750178069Z" fill="#72b9e5" stroke="#72b9e5"></path><path d="M515.6762128137052,375.08822249248624L492.94190956279635,571.7918750178069L615.1555521972477,382.2994307242334Z" fill="#71bae6" stroke="#71bae6"></path><path d="M615.1555521972477,382.2994307242334L492.94190956279635,571.7918750178069L690.5572780966759,541.270559951663Z" fill="#60ade0" stroke="#60ade0"></path><path d="M615.1555521972477,382.2994307242334L690.5572780966759,541.270559951663L872.0676591899246,413.8200475182384Z" fill="#5daee1" stroke="#5daee1"></path><path d="M872.0676591899246,413.8200475182384L690.5572780966759,541.270559951663L768.0591178871691,562.5667164288461Z" fill="#4da1da" stroke="#4da1da"></path><path d="M872.0676591899246,413.8200475182384L768.0591178871691,562.5667164288461L970.1243196520954,638.6509395204484Z" fill="#3f96d4" stroke="#3f96d4"></path><path d="M872.0676591899246,413.8200475182384L970.1243196520954,638.6509395204484L1017.8710309043527,564.5460061635822Z" fill="#3890d1" stroke="#3890d1"></path><path d="M872.0676591899246,413.8200475182384L1017.8710309043527,564.5460061635822L1012.733899159357,369.3279344961047Z" fill="#479ed8" stroke="#479ed8"></path><path d="M1012.733899159357,369.3279344961047L1017.8710309043527,564.5460061635822L1124.7311253938824,554.3024840857834Z" fill="#3890d1" stroke="#3890d1"></path><path d="M1012.733899159357,369.3279344961047L1124.7311253938824,554.3024840857834L1176.6956968791783,360.74813925661147Z" fill="#4297d5" stroke="#4297d5"></path><path d="M1176.6956968791783,360.74813925661147L1124.7311253938824,554.3024840857834L1262.359138727188,387.77120450511575Z" fill="#3b8fcf" stroke="#3b8fcf"></path><path d="M1262.359138727188,387.77120450511575L1124.7311253938824,554.3024840857834L1293.827910264954,533.9218770246953Z" fill="#2e83c8" stroke="#2e83c8"></path><path d="M1262.359138727188,387.77120450511575L1293.827910264954,533.9218770246953L1378.557107867673,500.1755356416106Z" fill="#2d7ec4" stroke="#2d7ec4"></path><path d="M1262.359138727188,387.77120450511575L1378.557107867673,500.1755356416106L1380.309547483921,364.8378867097199Z" fill="#3683c6" stroke="#3683c6"></path><path d="M1380.309547483921,364.8378867097199L1378.557107867673,500.1755356416106L1522.5827289931476,402.0459784939885Z" fill="#307abf" stroke="#307abf"></path><path d="M1522.5827289931476,402.0459784939885L1378.557107867673,500.1755356416106L1543.5254945978522,536.9650499615818Z" fill="#246cb7" stroke="#246cb7"></path><path d="M1522.5827289931476,402.0459784939885L1543.5254945978522,536.9650499615818L1713.159339465201,526.6025417391211Z" fill="#2360ae" stroke="#2360ae"></path><path d="M1522.5827289931476,402.0459784939885L1713.159339465201,526.6025417391211L1754.5100882928818,342.29455498047173Z" fill="#2f63ae" stroke="#2f63ae"></path><path d="M1754.5100882928818,342.29455498047173L1713.159339465201,526.6025417391211L1715.2563636470586,715.2155243977904Z" fill="#1c4ca1" stroke="#1c4ca1"></path><path d="M1754.5100882928818,342.29455498047173L1715.2563636470586,715.2155243977904L1700.9156819153577,1018.3854513522238Z" fill="#122a89" stroke="#122a89"></path><path d="M-92.24002417176962,483.96252488717437L-83.9947594050318,869.5529495179653L-65.06821610033512,733.0459526181221Z" fill="#90a6d7" stroke="#90a6d7"></path><path d="M-92.24002417176962,483.96252488717437L-65.06821610033512,733.0459526181221L60.43240550905466,669.2048574518412Z" fill="#8db3e3" stroke="#8db3e3"></path><path d="M-92.24002417176962,483.96252488717437L60.43240550905466,669.2048574518412L86.90097243525088,539.4334507640451Z" fill="#8cbeec" stroke="#8cbeec"></path><path d="M86.90097243525088,539.4334507640451L60.43240550905466,669.2048574518412L180.36894550547004,650.3466447070241Z" fill="#80aee0" stroke="#80aee0"></path><path d="M86.90097243525088,539.4334507640451L180.36894550547004,650.3466447070241L207.7998141478747,513.2023993134499Z" fill="#7fb6e7" stroke="#7fb6e7"></path><path d="M207.7998141478747,513.2023993134499L180.36894550547004,650.3466447070241L335.70377639494836,704.2112172022462Z" fill="#75a6db" stroke="#75a6db"></path><path d="M207.7998141478747,513.2023993134499L335.70377639494836,704.2112172022462L418.02541768178344,481.32605915889144Z" fill="#70afe2" stroke="#70afe2"></path><path d="M418.02541768178344,481.32605915889144L335.70377639494836,704.2112172022462L492.94190956279635,571.7918750178069Z" fill="#66a8dd" stroke="#66a8dd"></path><path d="M492.94190956279635,571.7918750178069L335.70377639494836,704.2112172022462L540.0032993685454,628.3326146006584Z" fill="#629bd3" stroke="#629bd3"></path><path d="M492.94190956279635,571.7918750178069L540.0032993685454,628.3326146006584L690.5572780966759,541.270559951663Z" fill="#56a1d9" stroke="#56a1d9"></path><path d="M690.5572780966759,541.270559951663L540.0032993685454,628.3326146006584L649.890571301803,703.8802195060998Z" fill="#4f93d0" stroke="#4f93d0"></path><path d="M690.5572780966759,541.270559951663L649.890571301803,703.8802195060998L768.0591178871691,562.5667164288461Z" fill="#4794d2" stroke="#4794d2"></path><path d="M768.0591178871691,562.5667164288461L649.890571301803,703.8802195060998L787.904214123264,703.2324761990458Z" fill="#4385c8" stroke="#4385c8"></path><path d="M768.0591178871691,562.5667164288461L787.904214123264,703.2324761990458L970.1243196520954,638.6509395204484Z" fill="#3a84c8" stroke="#3a84c8"></path><path d="M1017.8710309043527,564.5460061635822L970.1243196520954,638.6509395204484L1115.0367365498096,638.4656574670225Z" fill="#2c7cc4" stroke="#2c7cc4"></path><path d="M1017.8710309043527,564.5460061635822L1115.0367365498096,638.4656574670225L1124.7311253938824,554.3024840857834Z" fill="#287ec7" stroke="#287ec7"></path><path d="M1124.7311253938824,554.3024840857834L1115.0367365498096,638.4656574670225L1244.2726335301995,654.9167362600565Z" fill="#2371be" stroke="#2371be"></path><path d="M1124.7311253938824,554.3024840857834L1244.2726335301995,654.9167362600565L1293.827910264954,533.9218770246953Z" fill="#2074c0" stroke="#2074c0"></path><path d="M1293.827910264954,533.9218770246953L1244.2726335301995,654.9167362600565L1382.9008544795215,719.9683402106166Z" fill="#1a5eb0" stroke="#1a5eb0"></path><path d="M1293.827910264954,533.9218770246953L1382.9008544795215,719.9683402106166L1378.557107867673,500.1755356416106Z" fill="#1966b6" stroke="#1966b6"></path><path d="M1378.557107867673,500.1755356416106L1382.9008544795215,719.9683402106166L1543.5254945978522,536.9650499615818Z" fill="#145eb0" stroke="#145eb0"></path><path d="M1543.5254945978522,536.9650499615818L1382.9008544795215,719.9683402106166L1622.7317393850535,716.4300403464586Z" fill="#12469e" stroke="#12469e"></path><path d="M1543.5254945978522,536.9650499615818L1622.7317393850535,716.4300403464586L1713.159339465201,526.6025417391211Z" fill="#134aa1" stroke="#134aa1"></path><path d="M1713.159339465201,526.6025417391211L1622.7317393850535,716.4300403464586L1715.2563636470586,715.2155243977904Z" fill="#123793" stroke="#123793"></path><path d="M-65.06821610033512,733.0459526181221L-83.9947594050318,869.5529495179653L96.80000723339617,781.9066447298974Z" fill="#898cc6" stroke="#898cc6"></path><path d="M-65.06821610033512,733.0459526181221L96.80000723339617,781.9066447298974L60.43240550905466,669.2048574518412Z" fill="#8699d0" stroke="#8699d0"></path><path d="M60.43240550905466,669.2048574518412L96.80000723339617,781.9066447298974L180.36894550547004,650.3466447070241Z" fill="#7f9bd2" stroke="#7f9bd2"></path><path d="M180.36894550547004,650.3466447070241L96.80000723339617,781.9066447298974L233.48437272012234,804.623160045594Z" fill="#798dc8" stroke="#798dc8"></path><path d="M180.36894550547004,650.3466447070241L233.48437272012234,804.623160045594L335.70377639494836,704.2112172022462Z" fill="#728fca" stroke="#728fca"></path><path d="M335.70377639494836,704.2112172022462L233.48437272012234,804.623160045594L390.41647779755294,766.2091615609825Z" fill="#6c84c1" stroke="#6c84c1"></path><path d="M335.70377639494836,704.2112172022462L390.41647779755294,766.2091615609825L540.0032993685454,628.3326146006584Z" fill="#648ec8" stroke="#648ec8"></path><path d="M540.0032993685454,628.3326146006584L390.41647779755294,766.2091615609825L488.8770277518779,868.9030552748591Z" fill="#5e7fbd" stroke="#5e7fbd"></path><path d="M540.0032993685454,628.3326146006584L488.8770277518779,868.9030552748591L649.890571301803,703.8802195060998Z" fill="#557ebf" stroke="#557ebf"></path><path d="M649.890571301803,703.8802195060998L488.8770277518779,868.9030552748591L691.339438771829,847.3985769320279Z" fill="#4e6ab1" stroke="#4e6ab1"></path><path d="M649.890571301803,703.8802195060998L691.339438771829,847.3985769320279L787.904214123264,703.2324761990458Z" fill="#4471b8" stroke="#4471b8"></path><path d="M787.904214123264,703.2324761990458L691.339438771829,847.3985769320279L795.0882971193641,864.0004876535386Z" fill="#3f62ad" stroke="#3f62ad"></path><path d="M787.904214123264,703.2324761990458L795.0882971193641,864.0004876535386L943.6974824219942,879.8935456294566Z" fill="#375aa8" stroke="#375aa8"></path><path d="M787.904214123264,703.2324761990458L943.6974824219942,879.8935456294566L970.1243196520954,638.6509395204484Z" fill="#3368b3" stroke="#3368b3"></path><path d="M970.1243196520954,638.6509395204484L943.6974824219942,879.8935456294566L1116.2334333267063,856.0032773762941Z" fill="#2a54a6" stroke="#2a54a6"></path><path d="M970.1243196520954,638.6509395204484L1116.2334333267063,856.0032773762941L1115.0367365498096,638.4656574670225Z" fill="#2763b2" stroke="#2763b2"></path><path d="M1115.0367365498096,638.4656574670225L1116.2334333267063,856.0032773762941L1244.2726335301995,654.9167362600565Z" fill="#215bad" stroke="#215bad"></path><path d="M1244.2726335301995,654.9167362600565L1116.2334333267063,856.0032773762941L1261.282835137099,856.5766184404492Z" fill="#1d459d" stroke="#1d459d"></path><path d="M1244.2726335301995,654.9167362600565L1261.282835137099,856.5766184404492L1382.9008544795215,719.9683402106166Z" fill="#19479f" stroke="#19479f"></path><path d="M1382.9008544795215,719.9683402106166L1261.282835137099,856.5766184404492L1475.9851607121527,799.0959880873561Z" fill="#143591" stroke="#143591"></path><path d="M1382.9008544795215,719.9683402106166L1475.9851607121527,799.0959880873561L1622.7317393850535,716.4300403464586Z" fill="#113390" stroke="#113390"></path><path d="M1622.7317393850535,716.4300403464586L1475.9851607121527,799.0959880873561L1629.9627380724996,855.7161320652813Z" fill="#102282" stroke="#102282"></path><path d="M1622.7317393850535,716.4300403464586L1629.9627380724996,855.7161320652813L1669.468220891431,829.9184962268919Z" fill="#10197c" stroke="#10197c"></path><path d="M1622.7317393850535,716.4300403464586L1669.468220891431,829.9184962268919L1715.2563636470586,715.2155243977904Z" fill="#112182" stroke="#112182"></path><path d="M1715.2563636470586,715.2155243977904L1669.468220891431,829.9184962268919L1700.9156819153577,1018.3854513522238Z" fill="#0f076f" stroke="#0f076f"></path><path d="M-83.9947594050318,869.5529495179653L-83.24945437721908,947.4679192621261L128.51658945903182,1006.221111221239Z" fill="#867aac" stroke="#867aac"></path><path d="M-83.9947594050318,869.5529495179653L128.51658945903182,1006.221111221239L96.80000723339617,781.9066447298974Z" fill="#8277b5" stroke="#8277b5"></path><path d="M96.80000723339617,781.9066447298974L128.51658945903182,1006.221111221239L233.48437272012234,804.623160045594Z" fill="#7973b4" stroke="#7973b4"></path><path d="M233.48437272012234,804.623160045594L128.51658945903182,1006.221111221239L250.25312522426248,1031.604473227635Z" fill="#726fa4" stroke="#726fa4"></path><path d="M233.48437272012234,804.623160045594L250.25312522426248,1031.604473227635L432.58103714324534,994.895350439474Z" fill="#6a6ba2" stroke="#6a6ba2"></path><path d="M233.48437272012234,804.623160045594L432.58103714324534,994.895350439474L390.41647779755294,766.2091615609825Z" fill="#676daf" stroke="#676daf"></path><path d="M390.41647779755294,766.2091615609825L432.58103714324534,994.895350439474L488.8770277518779,868.9030552748591Z" fill="#5f66a9" stroke="#5f66a9"></path><path d="M488.8770277518779,868.9030552748591L432.58103714324534,994.895350439474L488.32316746003926,982.8075115475804Z" fill="#5b649c" stroke="#5b649c"></path><path d="M488.8770277518779,868.9030552748591L488.32316746003926,982.8075115475804L636.6328951064497,936.9066577870399Z" fill="#54609d" stroke="#54609d"></path><path d="M488.8770277518779,868.9030552748591L636.6328951064497,936.9066577870399L691.339438771829,847.3985769320279Z" fill="#4d5ca4" stroke="#4d5ca4"></path><path d="M691.339438771829,847.3985769320279L636.6328951064497,936.9066577870399L795.0882971193641,864.0004876535386Z" fill="#4256a1" stroke="#4256a1"></path><path d="M795.0882971193641,864.0004876535386L636.6328951064497,936.9066577870399L839.4013782776892,975.0586857832968Z" fill="#3d5398" stroke="#3d5398"></path><path d="M795.0882971193641,864.0004876535386L839.4013782776892,975.0586857832968L943.6974824219942,879.8935456294566Z" fill="#344d98" stroke="#344d98"></path><path d="M943.6974824219942,879.8935456294566L839.4013782776892,975.0586857832968L986.4279667753726,1008.5060899984092Z" fill="#2e498d" stroke="#2e498d"></path><path d="M943.6974824219942,879.8935456294566L986.4279667753726,1008.5060899984092L1116.2334333267063,856.0032773762941Z" fill="#274291" stroke="#274291"></path><path d="M1116.2334333267063,856.0032773762941L986.4279667753726,1008.5060899984092L1135.1777280773968,965.4288912657648Z" fill="#223d8a" stroke="#223d8a"></path><path d="M1116.2334333267063,856.0032773762941L1135.1777280773968,965.4288912657648L1261.282835137099,856.5766184404492Z" fill="#1d368e" stroke="#1d368e"></path><path d="M1261.282835137099,856.5766184404492L1135.1777280773968,965.4288912657648L1331.6349827963859,991.6706502903253Z" fill="#182f81" stroke="#182f81"></path><path d="M1261.282835137099,856.5766184404492L1331.6349827963859,991.6706502903253L1387.0035092812032,978.0670589301735Z" fill="#14277a" stroke="#14277a"></path><path d="M1261.282835137099,856.5766184404492L1387.0035092812032,978.0670589301735L1475.9851607121527,799.0959880873561Z" fill="#132282" stroke="#132282"></path><path d="M1475.9851607121527,799.0959880873561L1387.0035092812032,978.0670589301735L1584.7285660542548,919.520470937714Z" fill="#0e1876" stroke="#0e1876"></path><path d="M1475.9851607121527,799.0959880873561L1584.7285660542548,919.520470937714L1629.9627380724996,855.7161320652813Z" fill="#0f1377" stroke="#0f1377"></path><path d="M1629.9627380724996,855.7161320652813L1584.7285660542548,919.520470937714L1700.9156819153577,1018.3854513522238Z" fill="#0e0965" stroke="#0e0965"></path><path d="M1629.9627380724996,855.7161320652813L1700.9156819153577,1018.3854513522238L1669.468220891431,829.9184962268919Z" fill="#0e0668" stroke="#0e0668"></path><path d="M250.25312522426248,1031.604473227635L1700.9156819153577,1018.3854513522238L986.4279667753726,1008.5060899984092Z" fill="#294580" stroke="#294580"></path><path d="M250.25312522426248,1031.604473227635L986.4279667753726,1008.5060899984092L432.58103714324534,994.895350439474Z" fill="#505f8f" stroke="#505f8f"></path><path d="M432.58103714324534,994.895350439474L986.4279667753726,1008.5060899984092L488.32316746003926,982.8075115475804Z" fill="#475a90" stroke="#475a90"></path><path d="M488.32316746003926,982.8075115475804L986.4279667753726,1008.5060899984092L839.4013782776892,975.0586857832968Z" fill="#3b528d" stroke="#3b528d"></path><path d="M488.32316746003926,982.8075115475804L839.4013782776892,975.0586857832968L636.6328951064497,936.9066577870399Z" fill="#465994" stroke="#465994"></path><path d="M986.4279667753726,1008.5060899984092L1700.9156819153577,1018.3854513522238L1331.6349827963859,991.6706502903253Z" fill="#12266e" stroke="#12266e"></path><path d="M986.4279667753726,1008.5060899984092L1331.6349827963859,991.6706502903253L1135.1777280773968,965.4288912657648Z" fill="#1d387f" stroke="#1d387f"></path><path d="M1331.6349827963859,991.6706502903253L1700.9156819153577,1018.3854513522238L1387.0035092812032,978.0670589301735Z" fill="#0c1966" stroke="#0c1966"></path><path d="M1387.0035092812032,978.0670589301735L1700.9156819153577,1018.3854513522238L1584.7285660542548,919.520470937714Z" fill="#0d1164" stroke="#0d1164"></path></g></svg>